<?xml version="1.0" encoding="UTF-8"?>
<svg width="1350px" height="274px" viewBox="0 0 1350 274" version="1.1" xmlns="http://www.w3.org/2000/svg" xmlns:xlink="http://www.w3.org/1999/xlink">
    <!-- Generator: Sketch 51.2 (57519) - http://www.bohemiancoding.com/sketch -->
    <title>sallyport</title>
    <desc>Created with Sketch.</desc>
    <defs></defs>
    <g id="Page-1" stroke="none" stroke-width="1" fill="none" fill-rule="evenodd">
        <g id="sallyport">
            <rect id="Rectangle-path" fill-opacity="0" fill="#000000" fill-rule="nonzero" x="0.000488281" y="0" width="1350" height="272"></rect>
            <rect id="Rectangle-path" fill-opacity="0" fill="#000000" fill-rule="nonzero" x="129.247" y="0" width="1090.14" height="272"></rect>
            <path d="M579.538,17.6162 L770.506,17.6162 L770.506,82.0977 L1132.71,82.0977 L1132.71,70.0518 L1219.39,70.0518 L1219.39,271.999 L1213.75,271.999 L1132.71,271.999 L720.474,271.999 L720.474,193.077 C720.474,168.559 700.598,148.683 676.079,148.683 C651.561,148.683 631.684,168.559 631.684,193.077 L631.684,271.999 L215.922,271.999 L156.024,271.999 L129.247,271.999 L129.247,70.0518 L215.922,70.0518 L215.922,82.0977 L579.538,82.0977 L579.538,17.6162 Z M646.483,53.2017 C646.483,53.3198 646.479,53.437 646.472,53.5532 L646.482,53.5532 L646.482,83.1489 L635.912,83.1489 L635.912,53.5532 L635.925,53.5532 C635.917,53.437 635.913,53.3198 635.913,53.2017 C635.913,50.2827 638.279,47.9165 641.198,47.9165 C644.117,47.9165 646.483,50.2827 646.483,53.2017 Z M659.859,53.5532 C659.867,53.437 659.871,53.3193 659.871,53.2012 C659.871,50.2822 657.505,47.916 654.586,47.916 C651.667,47.916 649.301,50.2822 649.301,53.2012 C649.301,53.3193 649.305,53.437 649.312,53.5532 L649.301,53.5532 L649.301,83.1489 L659.871,83.1489 L659.871,53.5532 L659.859,53.5532 Z M673.26,53.2012 C673.26,53.3193 673.256,53.437 673.249,53.5532 L673.26,53.5532 L673.26,83.1489 L662.69,83.1489 L662.69,53.5532 L662.702,53.5532 C662.694,53.437 662.69,53.3193 662.69,53.2012 C662.69,50.2822 665.056,47.916 667.975,47.916 C670.894,47.916 673.26,50.2822 673.26,53.2012 Z M686.637,53.5532 C686.645,53.437 686.649,53.3193 686.649,53.2012 C686.649,50.2822 684.283,47.916 681.364,47.916 C678.445,47.916 676.079,50.2822 676.079,53.2012 C676.079,53.3193 676.083,53.437 676.09,53.5532 L676.079,53.5532 L676.079,83.1489 L686.649,83.1489 L686.649,53.5532 L686.637,53.5532 Z M700.039,53.2012 C700.039,53.3193 700.035,53.437 700.027,53.5532 L700.039,53.5532 L700.039,83.1489 L689.468,83.1489 L689.468,53.5532 L689.48,53.5532 C689.472,53.437 689.468,53.3193 689.468,53.2012 C689.468,50.2822 691.834,47.916 694.753,47.916 C697.672,47.916 700.039,50.2822 700.039,53.2012 Z M713.416,53.5532 C713.423,53.437 713.427,53.3193 713.427,53.2012 C713.427,50.2822 711.061,47.916 708.142,47.916 C705.223,47.916 702.857,50.2822 702.857,53.2012 C702.857,53.3193 702.861,53.437 702.869,53.5532 L702.857,53.5532 L702.857,83.1489 L713.427,83.1489 L713.427,53.5532 L713.416,53.5532 Z M215.909,115.564 C215.918,115.448 215.922,115.331 215.922,115.212 C215.922,112.683 213.872,110.632 211.342,110.632 C208.812,110.632 206.762,112.683 206.762,115.212 C206.762,115.331 206.766,115.448 206.775,115.564 L206.761,115.564 L206.761,137.409 L215.921,137.409 L215.921,115.564 L215.909,115.564 Z M229.31,115.212 C229.31,115.331 229.306,115.448 229.297,115.564 L229.31,115.564 L229.31,137.409 L220.149,137.409 L220.149,115.564 L220.163,115.564 C220.154,115.448 220.149,115.331 220.149,115.212 C220.149,112.683 222.2,110.632 224.73,110.632 C227.26,110.632 229.31,112.683 229.31,115.212 Z M271.579,115.564 C271.588,115.448 271.592,115.331 271.592,115.212 C271.592,112.683 269.542,110.632 267.012,110.632 C264.482,110.632 262.432,112.683 262.432,115.212 C262.432,115.331 262.436,115.448 262.445,115.564 L262.432,115.564 L262.432,137.409 L271.592,137.409 L271.592,115.564 L271.579,115.564 Z M284.981,115.212 C284.981,115.331 284.977,115.448 284.968,115.564 L284.98,115.564 L284.98,137.409 L275.82,137.409 L275.82,115.564 L275.833,115.564 C275.825,115.448 275.82,115.331 275.82,115.212 C275.82,112.683 277.871,110.632 280.401,110.632 C282.931,110.632 284.981,112.683 284.981,115.212 Z M327.248,115.564 C327.257,115.448 327.261,115.331 327.261,115.212 C327.261,112.683 325.211,110.632 322.681,110.632 C320.151,110.632 318.101,112.683 318.101,115.212 C318.101,115.331 318.105,115.448 318.114,115.564 L318.101,115.564 L318.101,137.409 L327.261,137.409 L327.261,115.564 L327.248,115.564 Z M340.65,115.212 C340.65,115.331 340.646,115.448 340.637,115.564 L340.649,115.564 L340.649,137.409 L331.489,137.409 L331.489,115.564 L331.502,115.564 C331.494,115.448 331.489,115.331 331.489,115.212 C331.489,112.683 333.54,110.632 336.07,110.632 C338.6,110.632 340.65,112.683 340.65,115.212 Z M382.919,115.564 C382.928,115.448 382.932,115.331 382.932,115.212 C382.932,112.683 380.882,110.632 378.352,110.632 C375.822,110.632 373.771,112.683 373.771,115.212 C373.771,115.331 373.776,115.448 373.785,115.564 L373.771,115.564 L373.771,137.409 L382.932,137.409 L382.932,115.564 L382.919,115.564 Z M396.319,115.212 C396.319,115.331 396.315,115.448 396.306,115.564 L396.32,115.564 L396.32,137.409 L387.16,137.409 L387.16,115.564 L387.172,115.564 C387.163,115.448 387.159,115.331 387.159,115.212 C387.159,112.683 389.209,110.632 391.739,110.632 C394.269,110.632 396.319,112.683 396.319,115.212 Z M438.587,115.564 C438.596,115.448 438.6,115.331 438.6,115.212 C438.6,112.683 436.55,110.632 434.02,110.632 C431.49,110.632 429.439,112.683 429.439,115.212 C429.439,115.331 429.444,115.448 429.453,115.564 L429.439,115.564 L429.439,137.409 L438.6,137.409 L438.6,115.564 L438.587,115.564 Z M451.99,115.212 C451.99,115.331 451.985,115.448 451.977,115.564 L451.99,115.564 L451.99,137.409 L442.829,137.409 L442.829,115.564 L442.842,115.564 C442.833,115.448 442.829,115.331 442.829,115.212 C442.829,112.683 444.88,110.632 447.41,110.632 C449.939,110.632 451.99,112.683 451.99,115.212 Z M494.258,115.564 C494.267,115.448 494.271,115.331 494.271,115.212 C494.271,112.683 492.221,110.632 489.691,110.632 C487.161,110.632 485.11,112.683 485.11,115.212 C485.11,115.331 485.115,115.448 485.124,115.564 L485.11,115.564 L485.11,137.409 L494.271,137.409 L494.271,115.564 L494.258,115.564 Z M507.659,115.212 C507.659,115.331 507.655,115.448 507.646,115.564 L507.66,115.564 L507.66,137.409 L498.499,137.409 L498.499,115.564 L498.512,115.564 C498.503,115.448 498.499,115.331 498.499,115.212 C498.499,112.683 500.549,110.632 503.079,110.632 C505.609,110.632 507.659,112.683 507.659,115.212 Z M549.928,115.564 C549.937,115.448 549.941,115.331 549.941,115.212 C549.941,112.683 547.891,110.632 545.361,110.632 C542.831,110.632 540.78,112.683 540.78,115.212 C540.78,115.331 540.785,115.448 540.793,115.564 L540.78,115.564 L540.78,137.409 L549.941,137.409 L549.941,115.564 L549.928,115.564 Z M563.329,115.212 C563.329,115.331 563.325,115.448 563.316,115.564 L563.329,115.564 L563.329,137.409 L554.168,137.409 L554.168,115.564 L554.182,115.564 C554.173,115.448 554.168,115.331 554.168,115.212 C554.168,112.683 556.219,110.632 558.749,110.632 C561.279,110.632 563.329,112.683 563.329,115.212 Z M800.793,115.564 C800.802,115.448 800.807,115.331 800.807,115.212 C800.807,112.683 798.756,110.632 796.227,110.632 C793.697,110.632 791.646,112.683 791.646,115.212 C791.646,115.331 791.65,115.448 791.659,115.564 L791.646,115.564 L791.646,137.409 L800.806,137.409 L800.806,115.564 L800.793,115.564 Z M814.196,115.212 C814.196,115.331 814.191,115.448 814.183,115.564 L814.196,115.564 L814.196,137.409 L805.036,137.409 L805.036,115.564 L805.048,115.564 C805.04,115.448 805.035,115.331 805.035,115.212 C805.035,112.683 807.086,110.632 809.616,110.632 C812.146,110.632 814.196,112.683 814.196,115.212 Z M856.462,115.564 C856.471,115.448 856.475,115.331 856.475,115.212 C856.475,112.683 854.425,110.632 851.895,110.632 C849.365,110.632 847.314,112.683 847.314,115.212 C847.314,115.331 847.319,115.448 847.328,115.564 L847.314,115.564 L847.314,137.409 L856.475,137.409 L856.475,115.564 L856.462,115.564 Z M869.865,115.212 C869.865,115.331 869.861,115.448 869.852,115.564 L869.865,115.564 L869.865,137.409 L860.705,137.409 L860.705,115.564 L860.718,115.564 C860.709,115.448 860.705,115.331 860.705,115.212 C860.705,112.683 862.755,110.632 865.285,110.632 C867.815,110.632 869.865,112.683 869.865,115.212 Z M912.133,115.564 C912.142,115.448 912.146,115.331 912.146,115.212 C912.146,112.683 910.096,110.632 907.566,110.632 C905.036,110.632 902.985,112.683 902.985,115.212 C902.985,115.331 902.99,115.448 902.999,115.564 L902.985,115.564 L902.985,137.409 L912.146,137.409 L912.146,115.564 L912.133,115.564 Z M925.535,115.212 C925.535,115.331 925.53,115.448 925.521,115.564 L925.534,115.564 L925.534,137.409 L916.374,137.409 L916.374,115.564 L916.387,115.564 C916.378,115.448 916.374,115.331 916.374,115.212 C916.374,112.683 918.425,110.632 920.955,110.632 C923.484,110.632 925.535,112.683 925.535,115.212 Z M967.802,115.564 C967.811,115.448 967.815,115.331 967.815,115.212 C967.815,112.683 965.765,110.632 963.235,110.632 C960.705,110.632 958.654,112.683 958.654,115.212 C958.654,115.331 958.659,115.448 958.667,115.564 L958.654,115.564 L958.654,137.409 L967.815,137.409 L967.815,115.564 L967.802,115.564 Z M981.206,115.212 C981.206,115.331 981.202,115.448 981.193,115.564 L981.205,115.564 L981.205,137.409 L972.044,137.409 L972.044,115.564 L972.059,115.564 C972.05,115.448 972.045,115.331 972.045,115.212 C972.045,112.683 974.096,110.632 976.626,110.632 C979.156,110.632 981.206,112.683 981.206,115.212 Z M1023.47,115.564 C1023.48,115.448 1023.48,115.331 1023.48,115.212 C1023.48,112.683 1021.43,110.632 1018.9,110.632 C1016.38,110.632 1014.32,112.683 1014.32,115.212 C1014.32,115.331 1014.33,115.448 1014.34,115.564 L1014.32,115.564 L1014.32,137.409 L1023.48,137.409 L1023.48,115.564 L1023.47,115.564 Z M1036.87,115.212 C1036.87,115.331 1036.87,115.448 1036.86,115.564 L1036.87,115.564 L1036.87,137.409 L1027.71,137.409 L1027.71,115.564 L1027.73,115.564 C1027.72,115.448 1027.71,115.331 1027.71,115.212 C1027.71,112.683 1029.76,110.632 1032.29,110.632 C1034.82,110.632 1036.87,112.683 1036.87,115.212 Z M1079.14,115.564 C1079.15,115.448 1079.15,115.331 1079.15,115.212 C1079.15,112.683 1077.1,110.632 1074.57,110.632 C1072.04,110.632 1069.99,112.683 1069.99,115.212 C1069.99,115.331 1070,115.448 1070.01,115.564 L1069.99,115.564 L1069.99,137.409 L1079.15,137.409 L1079.15,115.564 L1079.14,115.564 Z M1092.54,115.212 C1092.54,115.331 1092.54,115.448 1092.53,115.564 L1092.54,115.564 L1092.54,137.409 L1083.38,137.409 L1083.38,115.564 L1083.4,115.564 C1083.39,115.448 1083.38,115.331 1083.38,115.212 C1083.38,112.683 1085.43,110.632 1087.96,110.632 C1090.49,110.632 1092.54,112.683 1092.54,115.212 Z M1134.81,115.564 C1134.82,115.448 1134.83,115.331 1134.83,115.212 C1134.83,112.683 1132.77,110.632 1130.25,110.632 C1127.72,110.632 1125.66,112.683 1125.66,115.212 C1125.66,115.331 1125.67,115.448 1125.68,115.564 L1125.66,115.564 L1125.66,137.409 L1134.82,137.409 L1134.82,115.564 L1134.81,115.564 Z M1148.21,115.212 C1148.21,115.331 1148.21,115.448 1148.2,115.564 L1148.21,115.564 L1148.21,137.409 L1139.05,137.409 L1139.05,115.564 L1139.07,115.564 C1139.06,115.448 1139.05,115.331 1139.05,115.212 C1139.05,112.683 1141.1,110.632 1143.63,110.632 C1146.16,110.632 1148.21,112.683 1148.21,115.212 Z M171.527,144.456 C171.527,140.175 168.057,136.705 163.776,136.705 C159.495,136.705 156.024,140.175 156.024,144.456 L156.024,181.803 L171.527,181.803 L171.527,144.456 Z M1191.9,136.705 C1196.19,136.705 1199.66,140.175 1199.66,144.456 L1199.66,181.803 L1184.15,181.803 L1184.15,144.544 L1184.15,144.456 C1184.15,140.175 1187.62,136.705 1191.9,136.705 Z" id="Shape" fill="#D1D2E9"></path>
            <rect id="Rectangle-path" fill-opacity="0" fill="#000000" fill-rule="nonzero" x="195.486" y="69.0566" width="960.476" height="46.5077"></rect>
            <path d="M251.146,76.1035 C251.152,75.9868 251.156,75.8696 251.156,75.7515 C251.156,72.0542 248.158,69.0571 244.461,69.0571 C240.764,69.0571 237.767,72.0542 237.767,75.7515 C237.767,75.8696 237.77,75.9868 237.776,76.1035 L237.767,76.1035 L237.767,79.627 L195.486,79.627 L195.486,97.9482 L237.767,97.9482 L237.767,115.564 L251.156,115.564 L251.156,97.9482 L294.846,97.9482 L294.846,115.564 L308.235,115.564 L308.235,97.9482 L350.516,97.9482 L350.516,115.564 L363.905,115.564 L363.905,97.9482 L406.185,97.9482 L406.185,115.564 L419.574,115.564 L419.574,97.9482 L461.854,97.9482 L461.854,115.564 L475.244,115.564 L475.244,97.9482 L517.525,97.9482 L517.525,115.564 L530.914,115.564 L530.914,97.9482 L587.289,97.9482 L587.289,79.627 L530.914,79.627 L530.914,76.1035 L530.905,76.1035 C530.911,75.9868 530.914,75.8696 530.914,75.7515 C530.914,72.0542 527.917,69.0571 524.219,69.0571 C520.522,69.0571 517.525,72.0542 517.525,75.7515 C517.525,75.8696 517.528,75.9868 517.534,76.1035 L517.525,76.1035 L517.525,79.627 L475.244,79.627 L475.244,76.1035 L475.234,76.1035 C475.24,75.9868 475.244,75.8696 475.244,75.7515 C475.244,72.0542 472.246,69.0571 468.549,69.0571 C464.852,69.0571 461.854,72.0542 461.854,75.7515 C461.854,75.8696 461.858,75.9868 461.864,76.1035 L461.854,76.1035 L461.854,79.627 L419.574,79.627 L419.574,76.1035 L419.565,76.1035 C419.571,75.9868 419.574,75.8696 419.574,75.7515 C419.574,72.0542 416.577,69.0571 412.879,69.0571 C409.182,69.0571 406.185,72.0542 406.185,75.7515 C406.185,75.8696 406.188,75.9868 406.194,76.1035 L406.185,76.1035 L406.185,79.627 L363.905,79.627 L363.905,76.1035 L363.896,76.1035 C363.902,75.9868 363.905,75.8696 363.905,75.7515 C363.905,72.0542 360.908,69.0571 357.21,69.0571 C353.513,69.0571 350.516,72.0542 350.516,75.7515 C350.516,75.8696 350.52,75.9868 350.525,76.1035 L350.516,76.1035 L350.516,79.627 L308.235,79.627 L308.235,76.1035 L308.226,76.1035 C308.232,75.9868 308.235,75.8696 308.235,75.7515 C308.235,72.0542 305.238,69.0571 301.541,69.0571 C297.843,69.0571 294.846,72.0542 294.846,75.7515 C294.846,75.8696 294.85,75.9868 294.855,76.1035 L294.846,76.1035 L294.846,79.627 L251.156,79.627 L251.156,76.1035 L251.146,76.1035 Z" id="Shape" fill="#9FA5C3"></path>
            <path d="M1100.3,76.103 C1100.3,75.9863 1100.29,75.8691 1100.29,75.751 C1100.29,72.0537 1103.29,69.0566 1106.99,69.0566 C1110.69,69.0566 1113.68,72.0537 1113.68,75.751 C1113.68,75.8691 1113.68,75.9863 1113.67,76.103 L1113.68,76.103 L1113.68,79.6265 L1155.96,79.6265 L1155.96,97.9478 L1113.68,97.9478 L1113.68,115.564 L1100.29,115.564 L1100.29,97.9478 L1056.6,97.9478 L1056.6,115.564 L1043.21,115.564 L1043.21,97.9478 L1000.93,97.9478 L1000.93,115.564 L987.544,115.564 L987.544,97.9478 L945.263,97.9478 L945.263,115.564 L931.874,115.564 L931.874,97.9478 L889.594,97.9478 L889.594,115.564 L876.205,115.564 L876.205,97.9478 L833.924,97.9478 L833.924,115.564 L820.535,115.564 L820.535,97.9478 L764.161,97.9478 L764.161,79.6265 L820.535,79.6265 L820.535,76.103 L820.544,76.103 C820.538,75.9863 820.535,75.8691 820.535,75.751 C820.535,72.0537 823.532,69.0566 827.229,69.0566 C830.927,69.0566 833.924,72.0537 833.924,75.751 C833.924,75.8691 833.92,75.9863 833.915,76.103 L833.924,76.103 L833.924,79.6265 L876.205,79.6265 L876.205,76.103 L876.214,76.103 C876.208,75.9863 876.205,75.8691 876.205,75.751 C876.205,72.0537 879.202,69.0566 882.899,69.0566 C886.597,69.0566 889.594,72.0537 889.594,75.751 C889.594,75.8691 889.59,75.9863 889.584,76.103 L889.594,76.103 L889.594,79.6265 L931.874,79.6265 L931.874,76.103 L931.883,76.103 C931.877,75.9863 931.874,75.8691 931.874,75.751 C931.874,72.0537 934.872,69.0566 938.569,69.0566 C942.266,69.0566 945.263,72.0537 945.263,75.751 C945.263,75.8691 945.26,75.9863 945.254,76.103 L945.263,76.103 L945.263,79.6265 L987.544,79.6265 L987.544,76.103 L987.554,76.103 C987.548,75.9863 987.544,75.8691 987.544,75.751 C987.544,72.0537 990.542,69.0566 994.239,69.0566 C997.937,69.0566 1000.93,72.0537 1000.93,75.751 C1000.93,75.8691 1000.93,75.9863 1000.92,76.103 L1000.93,76.103 L1000.93,79.6265 L1043.21,79.6265 L1043.21,76.103 L1043.22,76.103 C1043.22,75.9863 1043.21,75.8691 1043.21,75.751 C1043.21,72.0537 1046.21,69.0566 1049.91,69.0566 C1053.61,69.0566 1056.6,72.0537 1056.6,75.751 C1056.6,75.8691 1056.6,75.9863 1056.59,76.103 L1056.6,76.103 L1056.6,79.6265 L1100.29,79.6265 L1100.29,76.103 L1100.3,76.103 Z" id="Shape" fill="#9FA5C3"></path>
            <rect id="Rectangle-path" fill-opacity="0" fill="#000000" fill-rule="nonzero" x="129.247" y="195.383" width="1090.01" height="76.4905"></rect>
            <rect id="Rectangle-path" fill="#9FA5C3" fill-rule="nonzero" x="164.87" y="195.573" width="439.83" height="76.1734"></rect>
            <rect id="Rectangle-path" fill="#9FA5C3" fill-rule="nonzero" x="748.188" y="195.383" width="439.385" height="76.4901"></rect>
            <path d="M632.005,195.383 L129.247,195.383 L129.247,271.874 L194.028,271.874 L194.028,237.326 L194.033,237.326 C194.031,237.206 194.03,237.086 194.03,236.966 C194.03,225.239 203.33,215.733 214.802,215.733 C226.274,215.733 235.574,225.239 235.574,236.966 L235.574,237.026 C235.574,237.126 235.574,237.226 235.573,237.326 L235.573,271.874 L250.359,271.873 L250.359,237.326 L250.365,237.326 C250.363,237.206 250.362,237.086 250.362,236.966 C250.362,225.239 259.662,215.733 271.134,215.733 C282.606,215.733 291.907,225.239 291.907,236.966 C291.907,237.086 291.906,237.206 291.904,237.326 L291.904,271.873 L306.778,271.873 L306.778,237.415 L306.783,237.415 C306.78,237.266 306.778,237.116 306.778,236.966 C306.778,225.239 316.078,215.733 327.55,215.733 C339.022,215.733 348.323,225.239 348.323,236.966 C348.323,237.116 348.321,237.266 348.318,237.415 L348.322,237.415 L348.322,271.873 L363.021,271.873 L363.021,237.326 L363.025,237.326 C363.023,237.206 363.022,237.086 363.022,236.966 C363.022,225.239 372.322,215.733 383.794,215.733 C395.267,215.733 404.567,225.239 404.567,236.966 L404.567,237.026 C404.567,237.126 404.567,237.226 404.565,237.326 L404.565,271.873 L419.354,271.873 L419.354,237.326 L419.358,237.326 C419.356,237.206 419.355,237.086 419.355,236.966 C419.355,225.239 428.655,215.733 440.127,215.733 C451.599,215.733 460.899,225.239 460.899,236.966 L460.899,237.026 C460.899,237.126 460.899,237.226 460.898,237.326 L460.898,271.873 L475.685,271.873 L475.685,237.326 L475.689,237.326 C475.688,237.206 475.687,237.086 475.687,236.966 C475.687,225.239 484.986,215.733 496.458,215.733 C507.931,215.733 517.231,225.239 517.231,236.966 L517.231,237.026 C517.231,237.126 517.231,237.226 517.229,237.326 L517.229,271.873 L532.271,271.873 L532.271,237.415 L532.276,237.415 C532.273,237.266 532.271,237.116 532.271,236.966 C532.271,225.239 541.571,215.733 553.043,215.733 C564.516,215.733 573.816,225.239 573.816,236.966 C573.816,237.116 573.814,237.266 573.812,237.415 L573.815,237.415 L573.815,271.873 L632.005,271.873 L632.005,195.383 Z M720.727,271.873 L776.354,271.873 L776.354,237.326 L776.358,237.326 C776.356,237.206 776.355,237.086 776.355,236.966 C776.355,225.239 785.655,215.733 797.127,215.733 C808.6,215.733 817.9,225.239 817.9,236.966 L817.9,237.056 C817.9,237.146 817.9,237.236 817.899,237.326 L817.899,271.873 L832.685,271.873 L832.685,237.326 L832.69,237.326 C832.688,237.206 832.687,237.086 832.687,236.966 C832.687,225.239 841.987,215.733 853.459,215.733 C864.931,215.733 874.231,225.239 874.231,236.966 C874.231,237.086 874.231,237.206 874.229,237.326 L874.229,271.873 L889.565,271.873 L889.565,237.415 L889.571,237.415 C889.568,237.266 889.566,237.116 889.566,236.966 C889.566,225.239 898.866,215.733 910.338,215.733 C921.811,215.733 931.111,225.239 931.111,236.966 L931.111,237.094 L931.111,237.148 C931.111,237.237 931.111,237.326 931.11,237.415 L931.11,271.873 L945.348,271.873 L945.348,237.326 L945.353,237.326 C945.351,237.206 945.35,237.086 945.35,236.966 C945.35,225.239 954.649,215.733 966.122,215.733 C977.594,215.733 986.894,225.239 986.894,236.966 L986.894,237.026 C986.894,237.126 986.894,237.226 986.893,237.326 L986.893,271.873 L1001.68,271.873 L1001.68,237.326 L1001.69,237.326 C1001.68,237.206 1001.68,237.086 1001.68,236.966 C1001.68,225.239 1010.98,215.733 1022.45,215.733 C1033.93,215.733 1043.23,225.239 1043.23,236.966 C1043.23,237.086 1043.23,237.206 1043.22,237.326 L1043.22,271.873 L1058.01,271.873 L1058.01,237.326 L1058.02,237.326 C1058.01,237.206 1058.01,237.086 1058.01,236.966 C1058.01,225.239 1067.31,215.733 1078.78,215.733 C1090.26,215.733 1099.56,225.239 1099.56,236.966 C1099.56,237.086 1099.56,237.206 1099.55,237.326 L1099.55,271.873 L1114.34,271.873 L1114.34,237.326 L1114.34,237.125 L1114.34,237.074 L1114.34,236.966 C1114.34,225.239 1123.64,215.733 1135.11,215.733 C1146.59,215.733 1155.89,225.239 1155.89,236.966 L1155.89,237.095 L1155.89,237.133 L1155.89,237.326 L1155.89,271.873 L1219.26,271.874 L1219.26,195.383 L720.727,195.383 L720.727,271.873 Z" id="Shape" fill="#EFF0F8"></path>
            <path d="M194.028,271.874 L184.874,271.874 L184.874,236.786 L184.882,236.786 C184.877,236.553 184.874,236.319 184.874,236.084 C184.874,219.032 198.272,205.208 214.8,205.208 C227.77,205.208 238.812,213.72 242.966,225.626 C247.119,213.72 258.162,205.208 271.132,205.208 C284.102,205.208 295.144,213.72 299.297,225.626 C303.451,213.72 314.494,205.208 327.463,205.208 C340.432,205.208 351.475,213.72 355.628,225.625 C359.782,213.72 370.825,205.208 383.794,205.208 C396.764,205.208 407.807,213.721 411.96,225.627 C416.113,213.721 427.156,205.208 440.126,205.208 C453.095,205.208 464.138,213.72 468.292,225.625 C472.445,213.72 483.488,205.208 496.457,205.208 C509.427,205.208 520.47,213.721 524.623,225.627 C528.776,213.721 539.819,205.208 552.79,205.208 C569.317,205.208 582.715,219.032 582.715,236.084 C582.715,236.319 582.712,236.553 582.708,236.786 L582.715,236.786 L582.715,271.874 L573.815,271.874 L573.815,237.416 L573.812,237.416 C573.814,237.267 573.816,237.117 573.816,236.966 C573.816,225.24 564.516,215.734 553.043,215.734 C541.571,215.734 532.271,225.24 532.271,236.966 C532.271,237.117 532.273,237.267 532.276,237.416 L532.271,237.416 L532.271,271.874 L526.383,271.874 L522.863,271.874 L517.229,271.874 L517.229,237.326 C517.231,237.227 517.231,237.126 517.231,237.026 L517.231,236.966 C517.231,225.24 507.931,215.734 496.458,215.734 C484.986,215.734 475.687,225.24 475.687,236.966 C475.687,237.086 475.688,237.207 475.689,237.326 L475.685,237.326 L475.685,271.874 L470.052,271.874 L466.531,271.874 L460.898,271.874 L460.898,237.326 C460.899,237.227 460.899,237.126 460.899,237.026 L460.899,236.966 C460.899,225.24 451.599,215.734 440.127,215.734 C428.655,215.734 419.355,225.24 419.355,236.966 C419.355,237.086 419.356,237.207 419.358,237.326 L419.354,237.326 L419.354,271.874 L413.72,271.874 L410.2,271.874 L404.565,271.874 L404.565,237.326 C404.567,237.227 404.567,237.126 404.567,237.026 L404.567,236.966 C404.567,225.24 395.267,215.734 383.794,215.734 C372.322,215.734 363.022,225.24 363.022,236.966 C363.022,237.086 363.023,237.207 363.025,237.326 L363.021,237.326 L363.021,271.874 L357.389,271.874 L353.868,271.874 L348.322,271.874 L348.322,237.416 L348.318,237.416 C348.321,237.267 348.323,237.117 348.323,236.966 C348.323,225.24 339.022,215.734 327.55,215.734 C316.078,215.734 306.778,225.24 306.778,236.966 C306.778,237.117 306.78,237.267 306.783,237.416 L306.778,237.416 L306.778,271.874 L301.058,271.874 L297.537,271.874 L291.904,271.874 L291.904,237.326 C291.906,237.207 291.907,237.086 291.907,236.966 C291.907,225.24 282.606,215.734 271.134,215.734 C259.662,215.734 250.362,225.24 250.362,236.966 C250.362,237.086 250.363,237.207 250.365,237.326 L250.359,237.326 L250.359,271.874 L244.726,271.874 L241.206,271.874 L235.573,271.874 L235.573,237.326 C235.574,237.227 235.574,237.126 235.574,237.026 L235.574,236.966 C235.574,225.24 226.274,215.734 214.802,215.734 C203.33,215.734 194.03,225.24 194.03,236.966 C194.03,237.086 194.031,237.207 194.033,237.326 L194.028,237.326 L194.028,271.874 Z" id="Shape" fill="#D1D2E9"></path>
            <path d="M776.354,271.873 L767.2,271.873 L767.2,237.155 L767.208,237.155 C767.203,236.924 767.2,236.692 767.2,236.46 C767.2,219.587 780.598,205.909 797.126,205.909 C810.096,205.909 821.139,214.332 825.292,226.113 C829.445,214.332 840.488,205.909 853.458,205.909 C866.428,205.909 877.47,214.332 881.624,226.112 C885.777,214.332 896.82,205.909 909.79,205.909 C922.759,205.909 933.802,214.332 937.955,226.112 C942.108,214.332 953.151,205.909 966.121,205.909 C979.09,205.909 990.132,214.331 994.286,226.11 C998.44,214.331 1009.48,205.909 1022.45,205.909 C1035.42,205.909 1046.46,214.332 1050.62,226.113 C1054.77,214.332 1065.81,205.909 1078.78,205.909 C1091.75,205.909 1102.79,214.331 1106.95,226.111 C1111.1,214.331 1122.14,205.909 1135.11,205.909 C1151.64,205.909 1165.04,219.587 1165.04,236.46 C1165.04,236.692 1165.04,236.924 1165.03,237.155 L1165.04,237.155 L1165.04,271.873 L1155.89,271.873 L1155.89,238.028 C1155.89,237.928 1155.89,237.828 1155.89,237.728 L1155.89,237.667 C1155.89,225.941 1146.59,216.435 1135.12,216.435 C1123.64,216.435 1114.34,225.941 1114.34,237.667 C1114.34,237.788 1114.35,237.908 1114.35,238.028 L1114.34,238.028 L1114.34,271.873 L1108.71,271.873 L1105.19,271.873 L1099.77,271.873 L1099.77,238.118 L1099.76,238.118 C1099.77,237.968 1099.77,237.818 1099.77,237.667 C1099.77,225.941 1090.47,216.435 1078.99,216.435 C1067.52,216.435 1058.22,225.941 1058.22,237.667 L1058.22,237.796 L1058.22,237.85 C1058.22,237.939 1058.22,238.029 1058.22,238.118 L1058.22,271.873 L1052.38,271.873 L1048.86,271.873 L1043.39,271.873 L1043.39,238.118 C1043.39,237.968 1043.39,237.818 1043.39,237.667 C1043.39,225.941 1034.09,216.435 1022.62,216.435 C1011.15,216.435 1001.85,225.941 1001.85,237.667 C1001.85,237.818 1001.85,237.968 1001.85,238.118 L1001.85,271.873 L996.047,271.873 L992.525,271.873 L986.894,271.873 L986.894,238.028 C986.895,237.928 986.895,237.828 986.895,237.728 L986.895,237.667 C986.895,225.941 977.595,216.435 966.123,216.435 C954.65,216.435 945.351,225.941 945.351,237.667 C945.351,237.788 945.352,237.908 945.354,238.028 L945.349,238.028 L945.349,271.873 L939.715,271.873 L936.195,271.873 L930.647,271.873 L930.647,238.118 L930.643,238.118 C930.646,237.968 930.647,237.818 930.647,237.667 C930.647,225.941 921.347,216.435 909.875,216.435 C898.403,216.435 889.103,225.941 889.103,237.667 C889.103,237.818 889.104,237.968 889.107,238.118 L889.103,238.118 L889.103,271.873 L883.384,271.873 L879.863,271.873 L874.23,271.873 L874.23,238.028 C874.231,237.928 874.231,237.828 874.231,237.728 L874.231,237.667 C874.231,225.941 864.931,216.435 853.459,216.435 C841.987,216.435 832.687,225.941 832.687,237.667 C832.687,237.788 832.688,237.908 832.69,238.028 L832.686,238.028 L832.686,271.873 L827.052,271.873 L823.532,271.873 L817.899,271.873 L817.899,238.028 C817.9,237.938 817.9,237.849 817.9,237.758 L817.9,237.668 C817.9,225.942 808.6,216.436 797.127,216.436 C785.655,216.436 776.355,225.942 776.355,237.668 C776.355,237.789 776.356,237.908 776.358,238.028 L776.354,238.028 L776.354,271.873 Z" id="Shape" fill="#D1D2E9"></path>
            <rect id="Rectangle-path" fill-opacity="0" fill="#000000" fill-rule="nonzero" x="209.58" y="160.662" width="936.52" height="38.7565"></rect>
            <rect id="Rectangle-path" fill-opacity="0" fill="#000000" fill-rule="nonzero" x="209.58" y="160.662" width="936.52" height="38.7565"></rect>
            <rect id="Rectangle-path" fill="#EFF0F8" fill-rule="nonzero" x="209.58" y="160.662" width="15.503" height="38.7564"></rect>
            <rect id="Rectangle-path" fill="#EFF0F8" fill-rule="nonzero" x="265.25" y="160.662" width="15.503" height="38.7564"></rect>
            <rect id="Rectangle-path" fill="#EFF0F8" fill-rule="nonzero" x="320.92" y="160.662" width="15.503" height="38.7564"></rect>
            <rect id="Rectangle-path" fill="#EFF0F8" fill-rule="nonzero" x="376.59" y="160.662" width="15.503" height="38.7564"></rect>
            <rect id="Rectangle-path" fill="#EFF0F8" fill-rule="nonzero" x="432.259" y="160.662" width="15.503" height="38.7564"></rect>
            <rect id="Rectangle-path" fill="#EFF0F8" fill-rule="nonzero" x="487.929" y="160.662" width="15.503" height="38.7564"></rect>
            <rect id="Rectangle-path" fill="#EFF0F8" fill-rule="nonzero" x="543.599" y="160.662" width="15.503" height="38.7564"></rect>
            <rect id="Rectangle-path" fill="#EFF0F8" fill-rule="nonzero" x="796.579" y="160.662" width="15.503" height="38.7564"></rect>
            <rect id="Rectangle-path" fill="#EFF0F8" fill-rule="nonzero" x="852.249" y="160.662" width="15.503" height="38.7564"></rect>
            <rect id="Rectangle-path" fill="#EFF0F8" fill-rule="nonzero" x="907.918" y="160.662" width="15.503" height="38.7564"></rect>
            <rect id="Rectangle-path" fill="#EFF0F8" fill-rule="nonzero" x="963.588" y="160.662" width="15.503" height="38.7564"></rect>
            <rect id="Rectangle-path" fill="#EFF0F8" fill-rule="nonzero" x="1019.26" y="160.662" width="15.503" height="38.7564"></rect>
            <rect id="Rectangle-path" fill="#EFF0F8" fill-rule="nonzero" x="1074.93" y="160.662" width="15.503" height="38.7564"></rect>
            <rect id="Rectangle-path" fill="#EFF0F8" fill-rule="nonzero" x="1130.6" y="160.662" width="15.503" height="38.7564"></rect>
            <rect id="Rectangle-path" fill-opacity="0" fill="#000000" fill-rule="nonzero" x="211.695" y="162.776" width="932.29" height="34.5285"></rect>
            <rect id="Rectangle-path" fill="#9FA5C3" fill-rule="nonzero" x="211.695" y="162.776" width="11.2749" height="34.5284"></rect>
            <rect id="Rectangle-path" fill="#9FA5C3" fill-rule="nonzero" x="267.363" y="162.776" width="11.2749" height="34.5284"></rect>
            <rect id="Rectangle-path" fill="#9FA5C3" fill-rule="nonzero" x="323.033" y="162.776" width="11.2749" height="34.5284"></rect>
            <rect id="Rectangle-path" fill="#9FA5C3" fill-rule="nonzero" x="378.705" y="162.776" width="11.2749" height="34.5284"></rect>
            <rect id="Rectangle-path" fill="#9FA5C3" fill-rule="nonzero" x="434.373" y="162.776" width="11.2749" height="34.5284"></rect>
            <rect id="Rectangle-path" fill="#9FA5C3" fill-rule="nonzero" x="490.042" y="162.776" width="11.2749" height="34.5284"></rect>
            <rect id="Rectangle-path" fill="#9FA5C3" fill-rule="nonzero" x="545.712" y="162.776" width="11.2749" height="34.5284"></rect>
            <rect id="Rectangle-path" fill="#9FA5C3" fill-rule="nonzero" x="798.693" y="162.776" width="11.2749" height="34.5284"></rect>
            <rect id="Rectangle-path" fill="#9FA5C3" fill-rule="nonzero" x="854.362" y="162.776" width="11.2749" height="34.5284"></rect>
            <rect id="Rectangle-path" fill="#9FA5C3" fill-rule="nonzero" x="910.032" y="162.776" width="11.2749" height="34.5284"></rect>
            <rect id="Rectangle-path" fill="#9FA5C3" fill-rule="nonzero" x="965.702" y="162.776" width="11.2749" height="34.5284"></rect>
            <rect id="Rectangle-path" fill="#9FA5C3" fill-rule="nonzero" x="1021.37" y="162.776" width="11.2749" height="34.5284"></rect>
            <rect id="Rectangle-path" fill="#9FA5C3" fill-rule="nonzero" x="1077.04" y="162.776" width="11.2749" height="34.5284"></rect>
            <rect id="Rectangle-path" fill="#9FA5C3" fill-rule="nonzero" x="1132.71" y="162.776" width="11.2749" height="34.5284"></rect>
            <rect id="Rectangle-path" fill-opacity="0" fill="#000000" fill-rule="nonzero" x="622.665" y="141.34" width="104.009" height="130.659"></rect>
            <path d="M726.673,192.279 L726.674,271.873 L713.155,271.873 L713.155,193.93 C713.156,193.802 713.155,193.674 713.155,193.546 C713.155,172.098 695.751,154.71 674.284,154.71 C652.816,154.71 635.413,172.098 635.413,193.546 C635.413,193.674 635.411,193.802 635.413,193.93 L635.413,271.873 L622.665,271.873 L622.665,192.057 C622.665,164.047 645.948,141.34 674.669,141.34 C703.391,141.34 726.674,164.047 726.674,192.057 L726.673,192.279 Z" id="Shape" fill="#EFF0F8"></path>
            <path d="M720.472,193.817 L720.472,272 L709.903,272 L709.903,195.191 C709.904,195.074 709.903,194.957 709.903,194.839 C709.903,175.186 693.97,159.253 674.316,159.253 C654.663,159.253 638.73,175.186 638.73,194.839 C638.73,194.957 638.729,195.074 638.73,195.191 L638.73,272 L628.864,272 L628.864,193.601 C628.864,168.016 649.372,147.274 674.668,147.274 C699.965,147.274 720.473,168.016 720.473,193.601 L720.472,193.817 Z" id="Shape" fill="#B7BCD4"></path>
            <rect id="Rectangle-path" fill-opacity="0" fill="#000000" fill-rule="nonzero" x="152.5" y="132.476" width="1050.68" height="52.8492"></rect>
            <path d="M175.05,185.325 L175.05,143.75 L175.05,143.045 L175.029,143.045 C174.665,137.147 169.766,132.476 163.775,132.476 C157.785,132.476 152.886,137.147 152.522,143.045 L152.5,143.045 L152.5,143.75 L152.5,185.325 L175.05,185.325 Z M163.776,136.703 C168.057,136.703 171.527,140.173 171.527,144.454 L171.527,181.802 L156.024,181.802 L156.024,144.454 C156.024,140.173 159.495,136.703 163.776,136.703 Z" id="Shape" fill="#EFF0F8"></path>
            <path d="M1203.18,185.325 L1203.18,143.9 L1203.18,143.75 L1203.18,143.6 L1203.18,143.045 L1203.16,143.045 C1202.79,137.147 1197.9,132.476 1191.9,132.476 C1185.91,132.476 1181.02,137.147 1180.65,143.045 L1180.63,143.045 L1180.63,185.325 L1203.18,185.325 Z M1191.9,136.703 C1196.19,136.703 1199.66,140.173 1199.66,144.454 L1199.66,181.802 L1184.15,181.802 L1184.15,144.454 C1184.15,140.173 1187.62,136.703 1191.9,136.703 Z" id="Shape" fill="#EFF0F8"></path>
            <rect id="Rectangle-path" fill-opacity="0" fill="#000000" fill-rule="nonzero" x="587.288" y="0" width="176.875" height="136.705"></rect>
            <rect id="Rectangle-path" fill="#EFF0F8" fill-rule="nonzero" x="587.288" y="133.181" width="176.875" height="3.52331"></rect>
            <path d="M733.862,0 L615.476,0 L615.476,33.8237 L628.864,33.8237 L628.864,83.1494 L635.912,83.1494 L635.912,53.5537 L635.923,53.5537 C635.916,53.4375 635.912,53.3203 635.912,53.2021 C635.912,50.2832 638.278,47.917 641.197,47.917 C644.116,47.917 646.482,50.2832 646.482,53.2021 C646.482,53.3203 646.478,53.4375 646.47,53.5537 L646.482,53.5537 L646.482,83.1494 L649.3,83.1494 L649.3,53.5537 L649.312,53.5537 C649.304,53.4375 649.3,53.3203 649.3,53.2021 C649.3,50.2832 651.667,47.917 654.585,47.917 C657.504,47.917 659.871,50.2832 659.871,53.2021 C659.871,53.3203 659.867,53.4375 659.859,53.5537 L659.871,53.5537 L659.871,83.1494 L662.689,83.1494 L662.689,53.5537 L662.701,53.5537 C662.693,53.4375 662.689,53.3203 662.689,53.2021 C662.689,50.2832 665.056,47.917 667.975,47.917 C670.894,47.917 673.26,50.2832 673.26,53.2021 C673.26,53.3203 673.256,53.4375 673.248,53.5537 L673.26,53.5537 L673.26,83.1494 L676.078,83.1494 L676.078,53.5537 L676.09,53.5537 C676.082,53.4375 676.078,53.3203 676.078,53.2021 C676.078,50.2832 678.444,47.917 681.363,47.917 C684.282,47.917 686.648,50.2832 686.648,53.2021 C686.648,53.3203 686.645,53.4375 686.637,53.5537 L686.648,53.5537 L686.648,83.1494 L689.467,83.1494 L689.467,53.5537 L689.479,53.5537 C689.471,53.4375 689.467,53.3203 689.467,53.2021 C689.467,50.2832 691.833,47.917 694.752,47.917 C697.671,47.917 700.037,50.2832 700.037,53.2021 C700.037,53.3203 700.033,53.4375 700.025,53.5537 L700.037,53.5537 L700.037,83.1494 L702.855,83.1494 L702.855,53.5537 L702.867,53.5537 C702.859,53.4375 702.855,53.3203 702.855,53.2021 C702.855,50.2832 705.222,47.917 708.141,47.917 C711.06,47.917 713.426,50.2832 713.426,53.2021 C713.426,53.3203 713.422,53.4375 713.414,53.5537 L713.426,53.5537 L713.426,83.1494 L720.473,83.1494 L720.473,33.8237 L733.862,33.8237 L733.862,0 Z" id="Shape" fill="#EFF0F8"></path>
            <path d="M654.258,111.336 C654.809,100.347 663.894,91.606 675.02,91.606 C686.146,91.606 695.231,100.347 695.782,111.336 L697.922,111.336 C697.922,105.11 702.97,100.062 709.197,100.062 C715.424,100.062 720.472,105.11 720.473,111.336 L720.473,133.181 L675.02,133.181 L629.569,133.181 L629.569,111.336 C629.569,105.11 634.617,100.062 640.844,100.062 C647.071,100.062 652.119,105.11 652.119,111.336 L654.258,111.336 Z" id="Shape" fill="#EFF0F8"></path>
            <rect id="Rectangle-path" fill-opacity="0" fill="#000000" fill-rule="nonzero" x="635.911" y="106.404" width="77.5145" height="26.7776"></rect>
            <path d="M672.54,111.336 C672.549,111.22 672.553,111.103 672.553,110.984 C672.553,108.455 670.503,106.404 667.973,106.404 C665.443,106.404 663.393,108.455 663.393,110.984 C663.393,111.103 663.397,111.22 663.406,111.336 L663.393,111.336 L663.393,133.181 L672.553,133.181 L672.553,111.336 L672.54,111.336 Z" id="Shape" fill="#B7BCD4"></path>
            <path d="M645.058,111.337 C645.067,111.221 645.071,111.103 645.071,110.984 C645.071,108.455 643.021,106.404 640.491,106.404 C637.961,106.404 635.911,108.455 635.911,110.984 C635.911,111.103 635.915,111.221 635.924,111.337 L635.911,111.337 L635.911,133.182 L645.071,133.182 L645.071,111.337 L645.058,111.337 Z" id="Shape" fill="#B7BCD4"></path>
            <path d="M685.931,111.336 C685.939,111.22 685.944,111.103 685.944,110.984 C685.944,108.455 683.894,106.404 681.364,106.404 C678.834,106.404 676.783,108.455 676.783,110.984 C676.783,111.103 676.788,111.22 676.796,111.336 L676.783,111.336 L676.783,133.181 L685.944,133.181 L685.944,111.336 L685.931,111.336 Z" id="Shape" fill="#B7BCD4"></path>
            <path d="M713.412,111.336 C713.421,111.22 713.425,111.103 713.425,110.984 C713.425,108.455 711.375,106.404 708.845,106.404 C706.315,106.404 704.265,108.455 704.265,110.984 C704.265,111.103 704.269,111.22 704.278,111.336 L704.265,111.336 L704.265,133.181 L713.425,133.181 L713.425,111.336 L713.412,111.336 Z" id="Shape" fill="#B7BCD4"></path>
            <rect id="Rectangle-path" fill-opacity="0" fill="#000000" fill-rule="nonzero" x="639.435" y="28.8911" width="70.4678" height="3.52353"></rect>
            <ellipse id="Oval" fill="#B7BCD4" fill-rule="nonzero" cx="641.196" cy="30.6528" rx="1.7617" ry="1.76165"></ellipse>
            <ellipse id="Oval" fill="#B7BCD4" fill-rule="nonzero" cx="654.584" cy="30.6528" rx="1.7617" ry="1.76165"></ellipse>
            <ellipse id="Oval" fill="#B7BCD4" fill-rule="nonzero" cx="667.974" cy="30.6528" rx="1.7617" ry="1.76165"></ellipse>
            <ellipse id="Oval" fill="#B7BCD4" fill-rule="nonzero" cx="681.363" cy="30.6528" rx="1.7617" ry="1.76165"></ellipse>
            <ellipse id="Oval" fill="#B7BCD4" fill-rule="nonzero" cx="694.752" cy="30.6528" rx="1.7617" ry="1.76165"></ellipse>
            <ellipse id="Oval" fill="#B7BCD4" fill-rule="nonzero" cx="708.141" cy="30.6528" rx="1.7617" ry="1.76165"></ellipse>
            <path d="M647.186,83.1494 L646.481,83.1489 L646.481,53.5532 L646.47,53.5532 C646.478,53.437 646.481,53.3198 646.481,53.2017 C646.481,50.2827 644.115,47.9165 641.196,47.9165 C638.277,47.9165 635.911,50.2827 635.911,53.2017 C635.911,53.3198 635.915,53.437 635.923,53.5532 L635.911,53.5532 L635.911,83.1489 L633.797,83.1494 L633.797,53.2017 L633.797,52.8491 L633.805,52.8491 C633.989,48.9263 637.228,45.8027 641.196,45.8027 C644.153,45.8027 646.706,47.5381 647.89,50.0459 C649.074,47.5381 651.627,45.8027 654.584,45.8027 C657.542,45.8027 660.094,47.5376 661.279,50.0454 C662.463,47.5376 665.015,45.8027 667.973,45.8027 C670.931,45.8027 673.483,47.5381 674.667,50.0469 C675.852,47.5381 678.404,45.8027 681.362,45.8027 C684.32,45.8027 686.873,47.5381 688.057,50.0464 C689.241,47.5381 691.793,45.8027 694.751,45.8027 C697.709,45.8027 700.261,47.5381 701.446,50.0459 C702.63,47.5381 705.183,45.8027 708.14,45.8027 C712.108,45.8027 715.347,48.9263 715.531,52.8491 L715.54,52.8491 L715.54,53.2017 L715.54,83.1494 L713.426,83.1489 L713.426,53.5532 L713.414,53.5532 C713.422,53.437 713.426,53.3193 713.426,53.2012 C713.426,50.2822 711.06,47.916 708.141,47.916 C705.222,47.916 702.855,50.2822 702.855,53.2012 C702.855,53.3193 702.859,53.437 702.867,53.5532 L702.855,53.5532 L702.855,83.1489 L702.151,83.1494 L700.741,83.1494 L700.037,83.1489 L700.037,53.5532 L700.025,53.5532 C700.033,53.437 700.037,53.3193 700.037,53.2012 C700.037,50.2822 697.67,47.916 694.751,47.916 C691.833,47.916 689.466,50.2822 689.466,53.2012 C689.466,53.3193 689.47,53.437 689.478,53.5532 L689.466,53.5532 L689.466,83.1489 L688.762,83.1494 L687.353,83.1494 L686.647,83.1489 L686.647,53.5532 L686.636,53.5532 C686.644,53.437 686.647,53.3193 686.647,53.2012 C686.647,50.2822 684.281,47.916 681.362,47.916 C678.443,47.916 676.077,50.2822 676.077,53.2012 C676.077,53.3193 676.081,53.437 676.089,53.5532 L676.077,53.5532 L676.077,83.1489 L675.372,83.1494 L673.963,83.1494 L673.259,83.1489 L673.259,53.5532 L673.248,53.5532 C673.255,53.437 673.259,53.3193 673.259,53.2012 C673.259,50.2822 670.893,47.916 667.974,47.916 C665.055,47.916 662.689,50.2822 662.689,53.2012 C662.689,53.3193 662.693,53.437 662.701,53.5532 L662.689,53.5532 L662.689,83.1489 L661.984,83.1494 L660.574,83.1494 L659.87,83.1489 L659.87,53.5532 L659.858,53.5532 C659.866,53.437 659.87,53.3193 659.87,53.2012 C659.87,50.2822 657.503,47.916 654.584,47.916 C651.666,47.916 649.299,50.2822 649.299,53.2012 C649.299,53.3193 649.303,53.437 649.311,53.5532 L649.299,53.5532 L649.299,83.1489 L648.595,83.1494 L647.186,83.1494 Z" id="Shape" fill="#B7BCD4"></path>
            <rect id="Rectangle-path" fill-opacity="0" fill="#000000" fill-rule="nonzero" x="0.000488281" y="110.071" width="1350" height="161.928"></rect>
            <path d="M73.4204,143.871 C76.5498,146.126 78.1699,150.903 78.1699,157.053 C78.1699,158.284 78.2173,159.484 78.2632,160.634 L78.2642,160.662 L78.2651,160.686 L78.2656,160.703 C78.3408,162.584 78.4102,164.326 78.2588,165.843 C79.8154,166.975 80.7344,168.824 80.3589,171.637 C80.1025,173.56 79.6025,175.032 78.8784,176.132 C80.6997,178.752 81.8188,182.307 81.8188,186.222 C81.8188,189.772 80.8994,193.024 79.3706,195.553 C79.7534,196.335 80.0781,197.337 80.3584,198.619 C80.6128,199.783 80.7422,200.88 80.7246,201.887 C83.7935,206.255 85.832,212.764 85.832,218.672 C85.832,225.027 85.1055,231.639 81.8179,235.652 L81.8184,235.809 C81.8184,243.058 79.9941,248.935 72.6973,248.935 C71.7095,248.935 70.8218,248.827 70.0254,248.623 C69.0498,258.422 70.8735,273 70.8735,273 L65.0361,273 C65.0361,273 67.2886,254.145 65.8569,246.351 C65.5977,246.372 65.3242,246.382 65.0356,246.382 C57.7388,246.382 55.5498,239.488 55.5498,231.434 C55.5498,229.946 55.6616,228.51 55.8687,227.157 C53.877,224.926 52.6318,222.048 52.6318,219.766 C52.6318,218.606 52.9536,217.292 53.5312,215.987 C51.604,213.069 50.4424,209.298 50.4424,205.181 C50.4424,199.139 52.9448,193.842 56.6982,190.89 C55.4043,187.473 55.4927,182.595 55.915,177.106 C56.5044,169.447 58.3491,163.453 60.5239,161.434 L60.5615,160.522 C60.6084,159.423 60.6577,158.263 60.6577,157.053 C60.6577,150.707 62.5273,145.081 66.1299,143.158 L66.1299,142.263 L66.1299,141.739 C66.1299,127.241 68.3462,101.997 70.8726,114.394 C73.0825,125.235 73.3804,132.517 73.4204,143.871 Z" id="Shape" fill="#D1D2E9"></path>
            <path d="M19.6089,273.103 L15.4981,273.103 C16.0303,264.572 16.6548,250.489 15.437,244.876 C6.37941,243.871 5.5464,239.665 5.10109,234.852 C5.08156,234.641 5.07277,234.429 5.07472,234.217 C1.4629,232.804 -0.804674,229.119 0.267592,222.089 C0.744154,218.964 2.59181,215.593 4.91749,213.084 C4.56691,212.194 4.3716,211.206 4.3716,210.166 C4.3716,208.386 4.94337,206.759 5.88869,205.513 C1.16945,203.337 0.803724,197.554 1.45314,190.215 C1.95997,184.485 4.01076,179.536 6.72316,176.549 C6.74318,176.14 6.77589,175.723 6.82179,175.302 C7.00538,173.621 7.37892,172.07 7.87745,170.759 C7.49904,169.358 7.29005,167.82 7.29005,166.206 C7.29005,160.703 9.72169,156.077 13.0156,154.752 C12.7422,153.15 12.6924,151.211 12.9956,148.96 L13.0962,148.213 C14.0049,141.455 14.6587,136.592 16.6441,133.426 C18.3628,130.685 19.2466,138.875 19.916,145.393 C21.3096,146.661 22.3818,149.606 22.7398,153.111 L22.7901,153.601 C23.1524,157.113 23.4776,160.264 22.0054,161.578 C22.271,162.543 22.4566,163.574 22.5479,164.65 C24.3994,165.37 26.0029,166.72 26.3633,169.249 C26.603,170.933 26.1904,172.094 25.3643,172.894 C26.7778,174.302 27.936,176.226 28.6021,178.483 C29.6968,182.194 29.1841,185.868 27.5122,188.254 C28.6987,190.108 29.5943,192.126 30.0117,193.951 C30.6958,196.943 30.1182,200.383 28.3169,202.777 C28.4043,203.309 28.4502,203.857 28.4502,204.418 C28.4502,205.203 28.3604,205.964 28.1919,206.689 C30.4326,209.513 32.0308,213.513 32.565,217.606 C33.3345,223.503 32.4732,228.178 28.0972,229.985 C28.3281,231.288 28.4507,232.888 28.4507,234.852 C28.4507,239.849 27.3706,244.581 19.8184,245.03 C18.6714,252.662 19.1455,265.292 19.6089,273.103 Z" id="Shape" fill="#D1D2E9"></path>
            <path d="M1280.23,272.104 L1276,272.104 C1276.37,263.672 1276.65,252.262 1275.95,244.247 C1267.96,243.821 1264.15,237.361 1265.2,230.05 C1265.51,227.828 1266.09,225.685 1266.92,223.766 C1264.38,221.63 1262.94,217.735 1262.59,211.387 C1262.48,209.225 1262.96,206.935 1263.85,204.672 C1260.17,201.781 1259.79,195.637 1260.61,190.058 C1261.4,184.73 1263.14,180.699 1265.08,178.369 C1264.95,177.402 1265.06,176.338 1265.15,175.378 L1265.2,174.949 C1265.44,172.399 1267.1,168.906 1269.06,168.474 C1269.08,166.903 1269.25,165.39 1269.55,163.965 C1268.27,161.471 1268.31,157.463 1268.62,152.844 C1269.03,146.863 1271.08,141.452 1273.59,139.447 C1273.72,129.809 1275.11,122.217 1276.8,122.217 C1277.69,122.217 1278.49,124.27 1279.07,127.595 C1280.34,127.949 1281.32,130.313 1281.32,133.178 C1281.32,135.293 1280.78,137.135 1279.99,138.097 C1280,138.51 1280.01,138.927 1280.02,139.348 C1280.41,139.328 1280.84,139.344 1281.32,139.399 C1283.25,139.624 1285.19,143.25 1286.09,149.826 C1286.34,151.649 1285.91,153.362 1285.11,154.782 C1288.03,157.143 1289.49,161.869 1290.34,168.864 C1290.74,172.139 1290.46,174.929 1289.71,177.223 C1291.27,178.881 1292.39,181.381 1292.95,185.021 C1293.39,187.855 1292.7,189.991 1291.34,191.533 C1292.52,194.7 1292.93,198.707 1292.93,203.092 C1292.93,209.025 1292.3,214.433 1289.91,217.885 C1290.19,218.732 1290.35,219.634 1290.35,220.57 C1290.35,221.919 1290.03,223.199 1289.46,224.344 C1290.03,226.309 1290.37,228.876 1290.78,232.179 C1291.47,237.719 1288.35,240.494 1284.65,241.472 C1283.51,242.577 1282.07,243.398 1280.3,243.856 C1279.67,251.96 1279.91,263.565 1280.23,272.104 Z" id="Shape" fill="#D1D2E9"></path>
            <path d="M1337.39,272.103 L1333.04,272.103 C1333.37,266.321 1333.62,258.796 1333.26,252.676 C1330.86,252.124 1329.49,250.63 1328.71,248.614 C1328.05,248.715 1327.3,248.744 1326.42,248.689 C1321.16,248.357 1320.21,246.313 1320.21,243.383 C1320.21,243.227 1320.22,243.072 1320.24,242.919 C1318.25,241.7 1316.61,238.145 1317.11,233.103 C1317.45,229.667 1318.31,226.922 1319.45,225.135 C1317.32,223.328 1316.16,220.413 1316.49,216.19 C1316.86,211.453 1318.99,207.655 1321.57,205.357 C1320.71,202.59 1320.21,199.381 1320.21,195.961 C1320.21,188.865 1322.33,182.681 1325.47,179.449 C1324.02,178.354 1323.64,176.346 1323.64,173.743 C1323.64,170.374 1325.1,167.538 1327.08,166.7 C1327.05,166.304 1327.04,165.888 1327.04,165.453 C1327.04,163.171 1327.81,161.088 1329.08,159.507 C1328.22,157.925 1327.96,155.613 1328.28,152.852 C1328.86,147.894 1330.18,143.804 1332.44,143.29 C1333.12,138.686 1334.53,134.613 1336.35,134.613 C1338.29,134.613 1339.45,138.924 1340.07,144.23 C1340.41,147.103 1339.99,149.684 1339.16,151.447 C1340.8,152.907 1341.93,155.958 1341.93,159.484 C1341.93,159.866 1341.92,160.242 1341.89,160.611 C1342.7,162.007 1343.17,163.669 1343.17,165.453 C1343.17,167.763 1342.94,169.526 1342.4,170.85 C1343.08,171.801 1343.66,172.996 1344.1,174.366 C1346.16,176.55 1347.52,180.356 1347.52,184.687 C1347.52,188.829 1346.27,192.492 1344.36,194.713 C1345.17,195.656 1345.66,196.909 1345.66,198.283 C1345.66,199.163 1345.46,199.992 1345.1,200.722 C1347.08,202.726 1348.37,206.556 1348.76,212.874 C1348.97,216.27 1348.63,218.947 1347.94,221.008 C1349.21,222.394 1350,224.329 1350,226.47 C1350,229.065 1348.84,230.476 1347.07,231.178 C1348.14,233.355 1348.76,235.952 1348.76,238.74 C1348.76,246.433 1348.76,250.924 1338.21,252.668 C1337.86,252.725 1337.53,252.772 1337.21,252.809 C1336.91,258.933 1337.12,266.376 1337.39,272.103 Z" id="Shape" fill="#D1D2E9"></path>
        </g>
    </g>
</svg>