<svg width="257" height="133" viewBox="0 0 257 133" fill="none" xmlns="http://www.w3.org/2000/svg">
<rect width="257" height="133" fill="black" fill-opacity="0"/>
<rect width="70.2146" height="130.97" fill="black" fill-opacity="0" transform="translate(186.785)"/>
<path d="M186.785 19.7458L208.192 31.7654V85.8533L198.034 91.4648L186.787 97.9401L186.785 19.7458Z" fill="#B9BBE1"/>
<path d="M186.815 37.6667L232.82 62.827V88.6398L186.814 63.4795L186.815 37.6667Z" fill="white"/>
<path d="M186.815 37.6667L232.82 62.827V88.6398L186.814 63.4795L186.815 37.6667Z" fill="white"/>
<path d="M257 32.7632L232.459 45.7321L232.821 71.5081L257 58.896V32.7632Z" fill="#B9BBE1"/>
<path opacity="0.97" d="M255.288 111.609L231.312 98.7311L209.99 110.129L233.14 123.286L255.288 111.609Z" fill="white"/>
<path d="M256.658 32.9167L231.04 19.4387L209.308 32.9168L232.799 46.0735L256.658 32.9167Z" fill="white"/>
<path d="M232.028 20.0483L209.336 6.82723L186.787 19.5974L209.31 32.9167L232.028 20.0483Z" fill="white"/>
<path d="M257 69.3547L232.8 81.2998L233.024 123.629L257 110.771V69.3547Z" fill="#B9BBE1"/>
<path d="M257 47.7681L232.821 60.8265L232.8 86.5282L257 73.397V47.7681Z" fill="#B9BBE1"/>
<path opacity="0.97" d="M231.427 98.7236L208.304 85.7563L186.785 97.3479L209.991 110.129L231.427 98.7236Z" fill="white"/>
<rect width="73.6394" height="116.761" fill="black" fill-opacity="0" transform="translate(95.554 16.239)"/>
<g opacity="0.87">
<path d="M148.042 35.6984L169.193 29.0815V48.931L148.042 88.63L148.042 35.6984Z" fill="white"/>
<path d="M148.042 80.0674L148.042 48.931L169.193 112L148.042 100.306L148.042 80.0674Z" fill="white"/>
</g>
<path d="M122.19 133L95.5543 115.875V88.6306L122.19 103.42V133Z" fill="#B9BBE1"/>
<path d="M122.19 81.6248L95.5543 64.4997V37.2554L122.19 52.0452V81.6248Z" fill="#B9BBE1"/>
<path d="M169.193 48.9312L121.798 73.4511L122.19 103.42L159 81.5L169.193 48.9312Z" fill="#B9BBE1"/>
<path d="M169.193 48.9312L121.798 73.4511L122.19 103.42L159 81.5L169.193 48.9312Z" fill="#B9BBE1"/>
<path d="M122.189 52.0457L95.554 37.2559L140.599 16.2392L169.193 29.1993L122.189 52.0457Z" fill="white"/>
<path d="M95.554 58.8279L121.928 73.5065L122.189 103.42L95.554 88.6298V58.8279Z" fill="white"/>
<rect width="77.0642" height="101.307" fill="black" fill-opacity="0" transform="translate(0 7.49634)"/>
<path d="M0 7.49658L25.6881 21.7238V50.1782L0 35.951V7.49658Z" fill="#B9BBE1"/>
<path d="M51.3762 35.9502L25.6882 50.1774V78.6318L51.3762 64.4046V35.9502Z" fill="#B9BBE1"/>
<path d="M51.3762 7.49634L77.0643 21.7235V50.1779L51.3762 35.9507V7.49634Z" fill="#B9BBE1"/>
<path d="M51.3762 35.9502L77.0643 50.1774V78.6318L51.3762 64.4046V35.9502Z" fill="white"/>
<path d="M51.3762 64.4053L77.0643 78.6325V108.804L51.3762 92.8597V64.4053Z" fill="#B9BBE1"/>
<path d="M0 64.4053L25.6881 78.6325V107.087L0 92.8597V64.4053Z" fill="#B9BBE1"/>
<path d="M0 35.9502L25.6881 50.1774V78.6318L0 64.4046V35.9502Z" fill="white"/>
</svg>
