<svg width="466" height="382" viewBox="0 0 466 382" fill="none" xmlns="http://www.w3.org/2000/svg">
<rect width="459" height="376" fill="black" fill-opacity="0" transform="translate(2 1)"/>
<rect width="459" height="189.019" fill="black" fill-opacity="0" transform="translate(461 187.981) scale(-1 1)"/>
<path fill-rule="evenodd" clip-rule="evenodd" d="M2 377L3.26318 375.299C86.9355 262.644 206.349 237.38 271.231 235.571C300.912 234.744 339.619 228.2 376.444 218.571C409.997 209.797 440.729 198.79 461 187.981V220.154C439.205 230.055 411.823 239.209 383.712 246.559C345.598 256.525 304.609 263.575 272.032 264.483C215.53 266.058 114.308 287.083 38.6909 377H31.1934C75.2979 322.962 128.431 292.61 176.758 276.204C123.589 291.216 64.0249 320.649 18.3711 377H2Z" fill="#979CD8"/>
<rect width="179.856" height="334.351" fill="black" fill-opacity="0" transform="translate(178.534 1)"/>
<rect width="179.856" height="151.028" fill="black" fill-opacity="0" transform="translate(178.534 1)"/>
<path d="M178.534 1L268.462 51.3426V152.028L178.534 101.685V1Z" fill="#D1D2E9"/>
<path d="M358.39 1L268.462 51.3426V152.028L358.39 101.685V1Z" fill="#9FA5C3"/>
<rect width="179.856" height="132.981" fill="black" fill-opacity="0" transform="translate(178.534 202.37)"/>
<path fill-rule="evenodd" clip-rule="evenodd" d="M268.462 252.537L178.534 202.37L268.462 335.351L268.462 252.537Z" fill="#3E3F69"/>
<path fill-rule="evenodd" clip-rule="evenodd" d="M268.462 335.351V252.537L358.39 202.37L268.462 335.351Z" fill="#282954"/>
<rect width="179.856" height="151.028" fill="black" fill-opacity="0" transform="translate(178.534 101.685)"/>
<path d="M358.39 101.685L268.462 152.028V252.713L358.39 202.37V101.685Z" fill="#E4E5F2"/>
<path d="M178.534 101.685L268.462 152.028V252.713L178.534 202.37V101.685Z" fill="white"/>
<rect width="144.39" height="54.1421" fill="black" fill-opacity="0" transform="translate(196.583 49.4424)"/>
<rect width="144.39" height="54.1421" fill="black" fill-opacity="0" transform="translate(196.583 49.4424)"/>
<ellipse cx="223.655" cy="76.5134" rx="27.0729" ry="27.071" fill="#282954"/>
<ellipse cx="313.9" cy="76.5134" rx="27.0729" ry="27.071" fill="#282954"/>
<rect width="133.473" height="42.7439" fill="black" fill-opacity="0" transform="translate(202.2 55.1421)"/>
<path d="M243.297 76.5144C243.297 87.4942 234.428 96.3863 223.498 96.3863C212.569 96.3863 203.7 87.4942 203.7 76.5144C203.7 65.5347 212.569 56.6426 223.498 56.6426C234.428 56.6426 243.297 65.5347 243.297 76.5144Z" stroke="#D1D2E9" stroke-width="3"/>
<path d="M334.172 76.5139C334.172 87.4627 325.123 96.3858 313.9 96.3858C302.678 96.3858 293.628 87.4627 293.628 76.5139C293.628 65.5651 302.678 56.6421 313.9 56.6421C325.123 56.6421 334.172 65.5651 334.172 76.5139Z" stroke="#D1D2E9" stroke-width="3"/>
<rect width="179.856" height="132.98" fill="black" fill-opacity="0" transform="translate(178.534 1)"/>
<path fill-rule="evenodd" clip-rule="evenodd" d="M268.462 51.167L178.534 1L268.462 133.98L268.462 51.167Z" fill="#3E3F69"/>
<path fill-rule="evenodd" clip-rule="evenodd" d="M268.462 133.98V51.167L358.39 1L268.462 133.98Z" fill="#282954"/>
<rect width="128.739" height="52.7" fill="black" fill-opacity="0" transform="translate(204.093 156.777)"/>
<path d="M221.056 181.932L204.093 156.778L221.115 166.3L238.019 156.778L221.056 181.932Z" fill="#3E3F69"/>
<path d="M268.462 181.931L251.499 156.777L268.522 166.299L285.426 156.777L268.462 181.931Z" fill="#3E3F69"/>
<path d="M315.869 181.931L298.906 156.777L315.928 166.299L332.832 156.777L315.869 181.931Z" fill="#3E3F69"/>
<path d="M244.722 209.477L227.758 184.323L244.781 193.846L261.685 184.323L244.722 209.477Z" fill="#3E3F69"/>
<path d="M292.052 209.477L275.088 184.323L292.111 193.846L309.015 184.323L292.052 209.477Z" fill="#3E3F69"/>
</svg>
