<?xml version="1.0" encoding="utf-8"?>
<!-- Generator: Adobe Illustrator 24.2.1, SVG Export Plug-In . SVG Version: 6.00 Build 0)  -->
<svg version="1.1" id="Layer_1" xmlns="http://www.w3.org/2000/svg" xmlns:xlink="http://www.w3.org/1999/xlink" x="0px" y="0px"
	 viewBox="0 0 24 24" style="enable-background:new 0 0 24 24;" xml:space="preserve">
<style type="text/css">
	.st0{fill:#FFFFFF;}
</style>
<path class="st0" d="M13.7,10.5c0,0.8-0.3,1.8-0.7,2.6c-1,2-3.1,2-3.1-0.1c0-0.8,0.3-1.8,0.7-2.6C11.7,8.5,13.7,8.8,13.7,10.5z
	 M24,12c0,6.6-5.4,12-12,12S0,18.6,0,12S5.4,0,12,0S24,5.4,24,12z M19,10.8c0-3.2-2.6-5.6-6.3-5.6c-5,0-7.7,3.1-7.7,7.1
	c0,3.7,2.5,6.5,7,6.5c2.5,0,4.1-0.7,5.1-1.3l-0.7-1c-1,0.6-2.3,1.1-4.3,1.1c-3.4,0-5.7-2.2-5.7-5.5c0-5.7,6.4-6.8,9.2-5.1
	c2.6,1.6,2.5,5.6,0.6,7.1c-1,0.8-2.2,0.8-1.8-0.8c0,0,1.2-4.5,1.4-5h-1.4l-0.3,1c-0.3-0.8-0.9-1.3-1.9-1.3c-2,0-3.7,2.2-3.7,4.8
	c0,1.7,0.9,2.8,2.4,2.8c1.3,0,1.9-0.7,2.4-1.4C13,17.2,19,15.9,19,10.8z"/>
</svg>
