<?xml version="1.0" encoding="utf-8"?>
<!-- Generator: Adobe Illustrator 19.0.1, SVG Export Plug-In . SVG Version: 6.00 Build 0)  -->
<svg version="1.1" id="Layer_1" xmlns="http://www.w3.org/2000/svg" xmlns:xlink="http://www.w3.org/1999/xlink" x="0px" y="0px"
	 viewBox="-187 370 236.6 54" style="enable-background:new -187 370 236.6 54;" xml:space="preserve">
<style type="text/css">
	.st0{fill:#BBBDBF;}
	.st1{fill:#FFFFFF;}
	.st2{fill:#314255;}
</style>
<g id="Layer_2">
</g>
<g id="Layer_3">
</g>
<g id="Layer_1_1_">
	<g>
		<polygon class="st0" points="-173.6,393.1 -173.6,408.6 -160.3,400.8 -160.3,385.4 		"/>
		<polygon class="st1" points="-146.9,393.1 -160.3,385.4 -160.3,400.8 -160.3,400.8 -146.9,408.6 		"/>
		<polygon class="st0" points="-160.3,400.8 -160.3,416.3 -146.9,424 -146.9,408.6 		"/>
		<polygon class="st0" points="-173.6,408.6 -187,400.8 -187,416.3 -173.6,424 		"/>
		<polygon class="st0" points="-146.9,377.7 -146.9,377.7 -160.3,370 -160.3,385.4 -160.3,385.4 -160.3,385.4 -160.3,385.4 
			-160.3,385.4 -146.9,393.1 		"/>
		<polygon class="st1" points="-173.6,393.1 -187,385.4 -187,400.8 -187,400.8 -187,400.8 -187,400.8 -187,400.8 -173.6,408.6 		"/>
		<polygon class="st0" points="-187,370 -187,385.4 -187,385.4 -173.6,393.1 -173.6,377.7 		"/>
	</g>
	<g>
		<path class="st2" d="M-110.7,408.6v-9.1h-9.7v9.1h-5.9v-23.3h5.9v9.6h9.7v-9.6h5.9v23.4h-5.9V408.6z"/>
		<path class="st2" d="M-94.8,404.3l-1.7,4.3h-6.1l10.1-23.4h6.1l9.8,23.4h-6.3l-1.7-4.3H-94.8z M-89.6,391.2l-3.4,8.6h6.7
			L-89.6,391.2z"/>
		<path class="st2" d="M-54.7,389l-3.4,4.1c-1.5-1.9-3.8-3-5.9-3c-3.7,0-6.5,2.9-6.5,6.8s2.8,6.9,6.5,6.9c2,0,4.2-1.1,5.9-2.7
			l3.5,3.7c-2.5,2.6-6.2,4.3-9.6,4.3c-7,0-12.3-5.2-12.3-12c0-6.7,5.4-11.8,12.5-11.8C-60.6,385.1-57,386.6-54.7,389z"/>
		<path class="st2" d="M-42.9,399.5l-3.1,3.4v5.7h-5.9v-23.3h5.9v10.1l8.9-10.1h6.9l-8.7,9.7l9.2,13.7h-7.1L-42.9,399.5z"/>
		<path class="st2" d="M-16.4,402.1h-0.2H-21v6.6h-6v-23.4h10.5c6.2,0,9.7,2.9,9.7,8.1c0,3.6-1.5,6.1-4.2,7.5l4.9,7.7h-6.7
			L-16.4,402.1z M-16.5,397.4c2.6,0,4.1-1.3,4.1-3.8c0-2.4-1.5-3.7-4.1-3.7H-21v7.4h4.5V397.4z"/>
		<path class="st2" d="M-2.8,408.6v-23.3h5.9v23.4h-5.9V408.6z"/>
		<path class="st2" d="M28.2,389l-3.4,4.1c-1.5-1.9-3.8-3-5.9-3c-3.7,0-6.5,2.9-6.5,6.8s2.8,6.9,6.5,6.9c2,0,4.2-1.1,5.9-2.7
			l3.5,3.7c-2.5,2.6-6.2,4.3-9.6,4.3c-7,0-12.3-5.2-12.3-12c0-6.7,5.4-11.8,12.5-11.8C22.2,385.1,25.8,386.6,28.2,389z"/>
		<path class="st2" d="M36.8,389.9v4.6H48v4.7H36.8v4.8h12.7v4.7H30.8v-23.4h18.3v4.7H36.8V389.9z"/>
	</g>
</g>
</svg>
