<svg width="1351" height="272" viewBox="0 0 1351 272" fill="none" xmlns="http://www.w3.org/2000/svg">
<path fill-rule="evenodd" clip-rule="evenodd" d="M450.291 0H641.26V64.4814H1003.46V52.4355H1090.14V254.383H1084.5H1003.46H591.228V175.46C591.228 150.942 571.351 131.067 546.832 131.067C522.313 131.067 502.438 150.942 502.438 175.46V254.383H86.6758H26.7783H0V52.4355H86.6758V64.4814H450.291V0ZM517.236 35.5854C517.236 35.7036 517.232 35.8208 517.225 35.937H517.235V65.5327H506.665V35.937H506.678C506.67 35.8208 506.666 35.7036 506.666 35.5854C506.666 32.6665 509.032 30.3003 511.951 30.3003C514.87 30.3003 517.236 32.6665 517.236 35.5854ZM530.612 35.937C530.62 35.8208 530.624 35.7031 530.624 35.585C530.624 32.666 528.258 30.2998 525.339 30.2998C522.42 30.2998 520.054 32.666 520.054 35.585C520.054 35.7031 520.058 35.8208 520.065 35.937H520.054V65.5327H530.624V35.937H530.612ZM544.013 35.585C544.013 35.7031 544.009 35.8208 544.001 35.937H544.013V65.5327H533.442V35.937H533.454C533.446 35.8208 533.442 35.7031 533.442 35.585C533.442 32.666 535.809 30.2998 538.728 30.2998C541.646 30.2998 544.013 32.666 544.013 35.585ZM557.391 35.937C557.398 35.8208 557.402 35.7031 557.402 35.585C557.402 32.666 555.036 30.2998 552.117 30.2998C549.198 30.2998 546.832 32.666 546.832 35.585C546.832 35.7031 546.836 35.8208 546.844 35.937H546.832V65.5327H557.402V35.937H557.391ZM570.791 35.585C570.791 35.7031 570.787 35.8208 570.779 35.937H570.791V65.5327H560.221V35.937H560.232C560.225 35.8208 560.221 35.7031 560.221 35.585C560.221 32.666 562.587 30.2998 565.506 30.2998C568.425 30.2998 570.791 32.666 570.791 35.585ZM584.169 35.937C584.177 35.8208 584.181 35.7031 584.181 35.585C584.181 32.666 581.814 30.2998 578.896 30.2998C575.977 30.2998 573.61 32.666 573.61 35.585C573.61 35.7031 573.614 35.8208 573.622 35.937H573.61V65.5327H584.181V35.937H584.169ZM86.6621 97.9478C86.6709 97.8315 86.6758 97.7144 86.6758 97.5957C86.6758 95.0664 84.625 93.0156 82.0947 93.0156C79.5654 93.0156 77.5146 95.0664 77.5146 97.5957C77.5146 97.7144 77.5195 97.8315 77.5283 97.9478H77.5137V119.792H86.6748V97.9478H86.6621ZM100.063 97.5957C100.063 97.7144 100.059 97.8315 100.05 97.9478H100.063V119.792H90.9023V97.9478H90.916C90.9072 97.8315 90.9023 97.7144 90.9023 97.5957C90.9023 95.0664 92.9531 93.0156 95.4824 93.0156C98.0127 93.0156 100.063 95.0664 100.063 97.5957ZM142.332 97.9478C142.341 97.8315 142.346 97.7144 142.346 97.5957C142.346 95.0664 140.295 93.0156 137.765 93.0156C135.235 93.0156 133.185 95.0664 133.185 97.5957C133.185 97.7144 133.189 97.8315 133.198 97.9478H133.185V119.792H142.346V97.9478H142.332ZM155.735 97.5957C155.735 97.7144 155.73 97.8315 155.722 97.9478H155.734V119.792H146.573V97.9478H146.588C146.579 97.8315 146.574 97.7144 146.574 97.5957C146.574 95.0664 148.625 93.0156 151.154 93.0156C153.685 93.0156 155.735 95.0664 155.735 97.5957ZM198.001 97.9478C198.01 97.8315 198.015 97.7144 198.015 97.5957C198.015 95.0664 195.964 93.0156 193.434 93.0156C190.904 93.0156 188.854 95.0664 188.854 97.5957C188.854 97.7144 188.858 97.8315 188.867 97.9478H188.854V119.792H198.015V97.9478H198.001ZM211.403 97.5957C211.403 97.7144 211.398 97.8315 211.39 97.9478H211.403V119.792H202.242V97.9478H202.256C202.247 97.8315 202.242 97.7144 202.242 97.5957C202.242 95.0664 204.293 93.0156 206.822 93.0156C209.353 93.0156 211.403 95.0664 211.403 97.5957ZM253.671 97.9478C253.68 97.8315 253.685 97.7144 253.685 97.5957C253.685 95.0664 251.634 93.0156 249.104 93.0156C246.574 93.0156 244.523 95.0664 244.523 97.5957C244.523 97.7144 244.528 97.8315 244.537 97.9478H244.523V119.792H253.685V97.9478H253.671ZM267.073 97.5957C267.073 97.7144 267.068 97.8315 267.06 97.9478H267.074V119.792H257.913V97.9478H257.926C257.917 97.8315 257.912 97.7144 257.912 97.5957C257.912 95.0664 259.963 93.0156 262.492 93.0156C265.022 93.0156 267.073 95.0664 267.073 97.5957ZM309.34 97.9478C309.349 97.8315 309.354 97.7144 309.354 97.5957C309.354 95.0664 307.303 93.0156 304.772 93.0156C302.243 93.0156 300.192 95.0664 300.192 97.5957C300.192 97.7144 300.197 97.8315 300.206 97.9478H300.192V119.792H309.354V97.9478H309.34ZM322.743 97.5957C322.743 97.7144 322.738 97.8315 322.729 97.9478H322.743V119.792H313.582V97.9478H313.596C313.587 97.8315 313.582 97.7144 313.582 97.5957C313.582 95.0664 315.633 93.0156 318.162 93.0156C320.692 93.0156 322.743 95.0664 322.743 97.5957ZM365.011 97.9478C365.02 97.8315 365.024 97.7144 365.024 97.5957C365.024 95.0664 362.974 93.0156 360.443 93.0156C357.914 93.0156 355.863 95.0664 355.863 97.5957C355.863 97.7144 355.868 97.8315 355.877 97.9478H355.863V119.792H365.024V97.9478H365.011ZM378.413 97.5957C378.413 97.7144 378.408 97.8315 378.399 97.9478H378.414V119.792H369.253V97.9478H369.266C369.257 97.8315 369.252 97.7144 369.252 97.5957C369.252 95.0664 371.303 93.0156 373.832 93.0156C376.362 93.0156 378.413 95.0664 378.413 97.5957ZM420.681 97.9478C420.689 97.8315 420.694 97.7144 420.694 97.5957C420.694 95.0664 418.644 93.0156 416.113 93.0156C413.584 93.0156 411.533 95.0664 411.533 97.5957C411.533 97.7144 411.538 97.8315 411.547 97.9478H411.533V119.792H420.694V97.9478H420.681ZM434.082 97.5957C434.082 97.7144 434.077 97.8315 434.068 97.9478H434.082V119.792H424.921V97.9478H424.935C424.926 97.8315 424.921 97.7144 424.921 97.5957C424.921 95.0664 426.972 93.0156 429.501 93.0156C432.031 93.0156 434.082 95.0664 434.082 97.5957ZM671.546 97.9478C671.555 97.8315 671.56 97.7144 671.56 97.5957C671.56 95.0664 669.509 93.0156 666.979 93.0156C664.449 93.0156 662.398 95.0664 662.398 97.5957C662.398 97.7144 662.403 97.8315 662.412 97.9478H662.398V119.792H671.56V97.9478H671.546ZM684.949 97.5957C684.949 97.7144 684.944 97.8315 684.936 97.9478H684.95V119.792H675.789V97.9478H675.802C675.793 97.8315 675.788 97.7144 675.788 97.5957C675.788 95.0664 677.839 93.0156 680.368 93.0156C682.898 93.0156 684.949 95.0664 684.949 97.5957ZM727.215 97.9478C727.224 97.8315 727.229 97.7144 727.229 97.5957C727.229 95.0664 725.178 93.0156 722.647 93.0156C720.118 93.0156 718.067 95.0664 718.067 97.5957C718.067 97.7144 718.072 97.8315 718.081 97.9478H718.067V119.792H727.229V97.9478H727.215ZM740.618 97.5957C740.618 97.7144 740.613 97.8315 740.604 97.9478H740.618V119.792H731.457V97.9478H731.471C731.462 97.8315 731.457 97.7144 731.457 97.5957C731.457 95.0664 733.508 93.0156 736.037 93.0156C738.567 93.0156 740.618 95.0664 740.618 97.5957ZM782.886 97.9478C782.895 97.8315 782.899 97.7144 782.899 97.5957C782.899 95.0664 780.849 93.0156 778.318 93.0156C775.789 93.0156 773.738 95.0664 773.738 97.5957C773.738 97.7144 773.743 97.8315 773.752 97.9478H773.738V119.792H782.899V97.9478H782.886ZM796.288 97.5957C796.288 97.7144 796.283 97.8315 796.274 97.9478H796.288V119.792H787.127V97.9478H787.141C787.132 97.8315 787.127 97.7144 787.127 97.5957C787.127 95.0664 789.178 93.0156 791.707 93.0156C794.237 93.0156 796.288 95.0664 796.288 97.5957ZM838.555 97.9478C838.563 97.8315 838.568 97.7144 838.568 97.5957C838.568 95.0664 836.518 93.0156 833.987 93.0156C831.458 93.0156 829.407 95.0664 829.407 97.5957C829.407 97.7144 829.412 97.8315 829.421 97.9478H829.407V119.792H838.568V97.9478H838.555ZM851.959 97.5957C851.959 97.7144 851.954 97.8315 851.945 97.9478H851.958V119.792H842.797V97.9478H842.812C842.803 97.8315 842.798 97.7144 842.798 97.5957C842.798 95.0664 844.849 93.0156 847.378 93.0156C849.908 93.0156 851.959 95.0664 851.959 97.5957ZM894.225 97.9478C894.233 97.8315 894.238 97.7144 894.238 97.5957C894.238 95.0664 892.188 93.0156 889.657 93.0156C887.128 93.0156 885.077 95.0664 885.077 97.5957C885.077 97.7144 885.082 97.8315 885.091 97.9478H885.077V119.792H894.238V97.9478H894.225ZM907.628 97.5957C907.628 97.7144 907.623 97.8315 907.614 97.9478H907.628V119.792H898.467V97.9478H898.48C898.472 97.8315 898.467 97.7144 898.467 97.5957C898.467 95.0664 900.518 93.0156 903.047 93.0156C905.577 93.0156 907.628 95.0664 907.628 97.5957ZM949.895 97.9478C949.903 97.8315 949.908 97.7144 949.908 97.5957C949.908 95.0664 947.857 93.0156 945.327 93.0156C942.798 93.0156 940.747 95.0664 940.747 97.5957C940.747 97.7144 940.752 97.8315 940.761 97.9478H940.746V119.792H949.907V97.9478H949.895ZM963.297 97.5957C963.297 97.7144 963.292 97.8315 963.283 97.9478H963.297V119.792H954.136V97.9478H954.149C954.141 97.8315 954.136 97.7144 954.136 97.5957C954.136 95.0664 956.187 93.0156 958.716 93.0156C961.246 93.0156 963.297 95.0664 963.297 97.5957ZM1005.57 97.9478C1005.57 97.8315 1005.58 97.7144 1005.58 97.5957C1005.58 95.0664 1003.53 93.0156 1001 93.0156C998.469 93.0156 996.418 95.0664 996.418 97.5957C996.418 97.7144 996.423 97.8315 996.432 97.9478H996.417V119.792H1005.58V97.9478H1005.57ZM1018.97 97.5957C1018.97 97.7144 1018.96 97.8315 1018.95 97.9478H1018.97V119.792H1009.81V97.9478H1009.82C1009.81 97.8315 1009.81 97.7144 1009.81 97.5957C1009.81 95.0664 1011.86 93.0156 1014.39 93.0156C1016.92 93.0156 1018.97 95.0664 1018.97 97.5957ZM42.2812 126.84C42.2812 122.559 38.8105 119.088 34.5303 119.088C30.249 119.088 26.7783 122.559 26.7783 126.84V164.187H42.2812V126.84ZM1062.66 119.088C1066.94 119.088 1070.41 122.559 1070.41 126.84L1070.41 164.187H1054.91V126.964L1054.91 126.84C1054.91 122.559 1058.38 119.088 1062.66 119.088Z" transform="translate(129.247 17.6162)" fill="#D1D2E9"/>
<path fill-rule="evenodd" clip-rule="evenodd" d="M55.6602 7.04639C55.666 6.92969 55.6689 6.8125 55.6689 6.69434C55.6689 2.99707 52.6719 0 48.9746 0C45.2773 0 42.2803 2.99707 42.2803 6.69434C42.2803 6.8125 42.2832 6.92969 42.2891 7.04639H42.2803V10.5698H0V28.8911H42.2803V46.5073H55.6689V28.8911H99.3604V46.5073H112.749V28.8911H155.03V46.5073H168.419V28.8911H210.698V46.5073H224.087V28.8911H266.368V46.5073H279.757V28.8911H322.038V46.5073H335.427V28.8911H391.802V10.5698H335.427V7.04639H335.418C335.424 6.92969 335.427 6.8125 335.427 6.69434C335.427 2.99707 332.43 0 328.732 0C325.035 0 322.038 2.99707 322.038 6.69434C322.038 6.8125 322.041 6.92969 322.047 7.04639H322.038V10.5698H279.757V7.04639H279.748C279.754 6.92969 279.757 6.8125 279.757 6.69434C279.757 2.99707 276.76 0 273.062 0C269.365 0 266.368 2.99707 266.368 6.69434C266.368 6.8125 266.371 6.92969 266.377 7.04639H266.368V10.5698H224.087V7.04639H224.078C224.084 6.92969 224.087 6.8125 224.087 6.69434C224.087 2.99707 221.09 0 217.393 0C213.695 0 210.698 2.99707 210.698 6.69434C210.698 6.8125 210.701 6.92969 210.707 7.04639H210.698V10.5698H168.419V7.04639H168.41C168.416 6.92969 168.419 6.8125 168.419 6.69434C168.419 2.99707 165.422 0 161.725 0C158.027 0 155.03 2.99707 155.03 6.69434C155.03 6.8125 155.033 6.92969 155.039 7.04639H155.03V10.5698H112.749V7.04639H112.74C112.746 6.92969 112.749 6.8125 112.749 6.69434C112.749 2.99707 109.752 0 106.055 0C102.357 0 99.3604 2.99707 99.3604 6.69434C99.3604 6.8125 99.3633 6.92969 99.3691 7.04639H99.3604V10.5698H55.6689V7.04639H55.6602Z" transform="translate(195.487 69.0571)" fill="#9FA5C3"/>
<path fill-rule="evenodd" clip-rule="evenodd" d="M55.6602 7.04639C55.666 6.92969 55.6689 6.8125 55.6689 6.69434C55.6689 2.99707 52.6719 0 48.9746 0C45.2773 0 42.2803 2.99707 42.2803 6.69434C42.2803 6.8125 42.2832 6.92969 42.2891 7.04639H42.2803V10.5698H0V28.8911H42.2803V46.5073H55.6689V28.8911H99.3594V46.5073H112.748V28.8911H155.029V46.5073H168.418V28.8911H210.699V46.5073H224.088V28.8911H266.369V46.5073H279.758V28.8911H322.039V46.5073H335.428V28.8911H391.802V10.5698H335.428V7.04639H335.419C335.425 6.92969 335.428 6.8125 335.428 6.69434C335.428 2.99707 332.431 0 328.733 0C325.036 0 322.039 2.99707 322.039 6.69434C322.039 6.8125 322.042 6.92969 322.048 7.04639H322.039V10.5698H279.758V7.04639H279.749C279.755 6.92969 279.758 6.8125 279.758 6.69434C279.758 2.99707 276.761 0 273.063 0C269.366 0 266.369 2.99707 266.369 6.69434C266.369 6.8125 266.372 6.92969 266.378 7.04639H266.369V10.5698H224.088V7.04639H224.079C224.085 6.92969 224.088 6.8125 224.088 6.69434C224.088 2.99707 221.091 0 217.394 0C213.696 0 210.699 2.99707 210.699 6.69434C210.699 6.8125 210.702 6.92969 210.708 7.04639H210.699V10.5698H168.418V7.04639H168.409C168.415 6.92969 168.418 6.8125 168.418 6.69434C168.418 2.99707 165.421 0 161.724 0C158.026 0 155.029 2.99707 155.029 6.69434C155.029 6.8125 155.032 6.92969 155.038 7.04639H155.029V10.5698H112.748V7.04639H112.739C112.745 6.92969 112.748 6.8125 112.748 6.69434C112.748 2.99707 109.751 0 106.054 0C102.356 0 99.3594 2.99707 99.3594 6.69434C99.3594 6.8125 99.3623 6.92969 99.3682 7.04639H99.3594V10.5698H55.6689V7.04639H55.6602Z" transform="translate(1155.96 69.0566) scale(-1 1)" fill="#9FA5C3"/>
<rect width="439.83" height="76.1734" transform="translate(164.871 195.573)" fill="#9FA5C3"/>
<rect width="439.385" height="76.4901" transform="translate(748.188 195.383)" fill="#9FA5C3"/>
<path fill-rule="evenodd" clip-rule="evenodd" d="M502.758 0H0V76.4902H64.7822V41.9429V41.7178L64.7832 41.5825C64.7832 29.856 74.083 20.3501 85.5557 20.3501C97.0273 20.3501 106.327 29.856 106.327 41.5825V41.6724V41.7402L106.326 41.9429V76.4902L121.111 76.4897V41.9424C121.11 41.8726 121.111 41.8027 121.112 41.7329L121.114 41.5825C121.114 29.856 130.414 20.3501 141.887 20.3501C153.358 20.3501 162.658 29.856 162.658 41.5825L162.655 41.9424V76.4897H177.53V42.0317C177.528 41.9365 177.529 41.8413 177.53 41.7461L177.531 41.5825C177.531 29.856 186.831 20.3501 198.304 20.3501C209.775 20.3501 219.075 29.856 219.075 41.5825V41.7109C219.076 41.8179 219.076 41.9248 219.074 42.0317V76.4897H233.774V41.9424C233.773 41.8706 233.774 41.7988 233.775 41.7266L233.776 41.5825C233.776 29.856 243.076 20.3501 254.549 20.3501C266.021 20.3501 275.32 29.856 275.32 41.5825C275.32 41.7026 275.32 41.8228 275.318 41.9424V76.4897H290.106V41.9424C290.105 41.8706 290.106 41.7988 290.107 41.7266L290.108 41.5825C290.108 29.856 299.408 20.3501 310.881 20.3501C322.353 20.3501 331.652 29.856 331.652 41.5825C331.652 41.7026 331.652 41.8228 331.65 41.9424V76.4897H346.438V41.9424C346.438 41.8706 346.438 41.7988 346.439 41.7266L346.44 41.5825C346.44 29.856 355.74 20.3501 367.213 20.3501C378.685 20.3501 387.984 29.856 387.984 41.5825C387.984 41.7026 387.984 41.8228 387.982 41.9424V76.4897H403.023V42.0317C403.021 41.9365 403.022 41.8413 403.023 41.7461L403.024 41.5825C403.024 29.856 412.324 20.3501 423.797 20.3501C435.269 20.3501 444.568 29.856 444.568 41.5825V41.7109C444.569 41.8179 444.569 41.9248 444.567 42.0317V76.4897H502.758V0ZM591.479 76.4897H647.107V41.9424C647.106 41.8706 647.107 41.7988 647.108 41.7266L647.109 41.5825C647.109 29.856 656.409 20.3501 667.882 20.3501C679.354 20.3501 688.653 29.856 688.653 41.5825C688.653 41.7026 688.653 41.8228 688.651 41.9424V76.4897H703.438V41.9424C703.437 41.8726 703.438 41.8027 703.438 41.7329L703.44 41.5825C703.44 29.856 712.74 20.3501 724.213 20.3501C735.685 20.3501 744.984 29.856 744.984 41.5825L744.981 41.9424V76.4897H760.318V42.0317C760.316 41.9365 760.317 41.8413 760.318 41.7461L760.319 41.5825C760.319 29.856 769.619 20.3501 781.092 20.3501C792.563 20.3501 801.863 29.856 801.863 41.5825V41.7109C801.864 41.8179 801.864 41.9248 801.862 42.0317V76.4897H816.101V41.9424C816.1 41.8706 816.101 41.7988 816.102 41.7266L816.103 41.5825C816.103 29.856 825.402 20.3501 836.875 20.3501C848.347 20.3501 857.646 29.856 857.646 41.5825C857.646 41.7026 857.646 41.8228 857.645 41.9424V76.4897H872.434V41.9424C872.433 41.8706 872.434 41.7988 872.435 41.7266L872.436 41.5825C872.436 29.856 881.735 20.3501 893.208 20.3501C904.68 20.3501 913.979 29.856 913.979 41.5825C913.979 41.7026 913.979 41.8228 913.978 41.9424V76.4897H928.763V41.9424C928.762 41.8726 928.763 41.8027 928.764 41.7329L928.766 41.5825C928.766 29.856 938.065 20.3501 949.538 20.3501C961.01 20.3501 970.31 29.856 970.31 41.5825L970.307 41.9424V76.4897H985.095V41.9424V41.7026V41.5825C985.095 29.856 994.395 20.3501 1005.87 20.3501C1017.34 20.3501 1026.64 29.856 1026.64 41.5825V41.7026V41.9424V76.4897L1090.01 76.4902V0H591.479V76.4897Z" transform="translate(129.247 195.383)" fill="#EFF0F8"/>
<path fill-rule="evenodd" clip-rule="evenodd" d="M9.1543 66.666H0V31.5786H0.0078125C0.00292969 31.3452 0 31.1113 0 30.877C0 13.8242 13.3984 0 29.9258 0C42.8955 0 53.9385 8.5127 58.0918 20.4175C62.2451 8.5127 73.2881 0 86.2568 0C99.2275 0 110.27 8.5127 114.423 20.4185C118.576 8.5127 129.619 0 142.589 0C155.559 0 166.6 8.51172 170.754 20.416C174.908 8.51172 185.95 0 198.919 0C211.89 0 222.933 8.51367 227.086 20.4199C231.239 8.51367 242.282 0 255.252 0C268.222 0 279.263 8.51172 283.417 20.416C287.571 8.51172 298.613 0 311.582 0C324.553 0 335.595 8.5127 339.748 20.4185C343.901 8.5127 354.944 0 367.914 0C384.442 0 397.841 13.8242 397.841 30.877C397.841 31.1113 397.838 31.3452 397.833 31.5786H397.841V66.666H388.939V32.2085C388.941 32.1021 388.941 31.9951 388.94 31.8877V31.7588C388.94 20.0322 379.641 10.5264 368.169 10.5264C356.696 10.5264 347.396 20.0322 347.396 31.7588L347.396 31.9229C347.395 32.0181 347.394 32.1133 347.396 32.2085V66.666H341.509H337.988H332.354V32.1187C332.356 31.999 332.356 31.8789 332.356 31.7588C332.356 20.0322 323.057 10.5264 311.585 10.5264C300.112 10.5264 290.812 20.0322 290.812 31.7588L290.812 31.9028C290.811 31.9751 290.81 32.0469 290.811 32.1187V66.666H285.178H281.656H276.022V32.1187C276.024 31.999 276.024 31.8789 276.024 31.7588C276.024 20.0322 266.725 10.5264 255.253 10.5264C243.78 10.5264 234.48 20.0322 234.48 31.7588L234.479 31.9028C234.479 31.9751 234.478 32.0469 234.479 32.1187V66.666H228.846H225.325H219.69V32.1187C219.692 31.999 219.692 31.8789 219.692 31.7588C219.692 20.0322 210.393 10.5264 198.921 10.5264C187.448 10.5264 178.148 20.0322 178.148 31.7588L178.147 31.9028C178.146 31.9751 178.146 32.0469 178.146 32.1187V66.666H172.516H168.993H163.446V32.2085C163.448 32.1021 163.448 31.9951 163.447 31.8877V31.7588C163.447 20.0322 154.147 10.5264 142.676 10.5264C131.203 10.5264 121.903 20.0322 121.903 31.7588L121.902 31.9229C121.901 32.0181 121.9 32.1133 121.902 32.2085V66.666H116.184H112.663H107.027V32.1187L107.03 31.7588C107.03 20.0322 97.7305 10.5264 86.2588 10.5264C74.7861 10.5264 65.4863 20.0322 65.4863 31.7588L65.4844 31.9092C65.4834 31.979 65.4824 32.0488 65.4834 32.1187V66.666H59.8525H56.3311H50.6982V32.1187L50.6992 31.8491V31.7588C50.6992 20.0322 41.3994 10.5264 29.9277 10.5264C18.4551 10.5264 9.15527 20.0322 9.15527 31.7588L9.1543 31.894V32.1187V66.666Z" transform="translate(184.874 205.208)" fill="#D1D2E9"/>
<path fill-rule="evenodd" clip-rule="evenodd" d="M9.1543 65.9639H0V31.2461H0.0078125C0.00292969 31.0151 0 30.7837 0 30.5518C0 13.6787 13.3984 0 29.9258 0C42.8965 0 53.9385 8.42334 58.0918 20.2036C62.2451 8.42334 73.2881 0 86.2578 0C99.2285 0 110.271 8.42334 114.424 20.2036C118.577 8.42334 129.62 0 142.59 0C155.56 0 166.603 8.42236 170.756 20.2021C174.909 8.42236 185.952 0 198.921 0C211.891 0 222.932 8.42188 227.086 20.2007C231.24 8.42188 242.282 0 255.251 0C268.221 0 279.264 8.42236 283.417 20.2021C287.57 8.42236 298.613 0 311.582 0C324.552 0 335.595 8.42236 339.748 20.2021C343.901 8.42236 354.944 0 367.913 0C384.441 0 397.84 13.6787 397.84 30.5518C397.84 30.7837 397.837 31.0151 397.832 31.2461H397.84V65.9639H388.688V32.1191L388.689 31.8491V31.7588C388.689 20.0322 379.39 10.5264 367.918 10.5264C356.445 10.5264 347.146 20.0322 347.146 31.7588L347.145 31.894V32.1191V65.9639H341.509H337.987H332.568V32.209C332.57 32.1167 332.569 32.0244 332.567 31.9321L332.566 31.7588C332.566 20.0322 323.267 10.5264 311.795 10.5264C300.322 10.5264 291.022 20.0322 291.022 31.7588V31.8491C291.022 31.9692 291.022 32.0889 291.024 32.209V65.9639H285.178H281.656H276.193V32.209C276.195 32.1021 276.195 31.9951 276.194 31.8877V31.7588C276.194 20.0322 266.895 10.5264 255.423 10.5264C243.95 10.5264 234.65 20.0322 234.65 31.7588L234.649 31.9229C234.648 32.0181 234.647 32.1138 234.649 32.209V65.9639H228.848H225.325H219.694V32.1191L219.695 31.8491V31.7588C219.695 20.0322 210.396 10.5264 198.924 10.5264C187.451 10.5264 178.151 20.0322 178.151 31.7588L178.15 31.894V32.1191V65.9639H172.516H168.995H163.446V32.209L163.447 31.9844V31.9092L163.446 31.7588C163.446 20.0322 154.146 10.5264 142.675 10.5264C131.202 10.5264 121.902 20.0322 121.902 31.7588L121.901 31.9092V31.9844L121.902 32.209V65.9639H116.185H112.663H107.03V32.1191L107.031 31.8491V31.7588C107.031 20.0322 97.7314 10.5264 86.2598 10.5264C74.7871 10.5264 65.4873 20.0322 65.4873 31.7588L65.4863 31.894V32.1191V65.9639H59.8525H56.332H50.6982V32.1191C50.7002 31.9995 50.7002 31.8799 50.7002 31.7598C50.7002 20.0332 41.4004 10.5273 29.9287 10.5273C18.4561 10.5273 9.15625 20.0332 9.15625 31.7598L9.15527 31.9038C9.1543 31.9756 9.15332 32.0474 9.1543 32.1191V65.9639Z" transform="translate(767.2 205.909)" fill="#D1D2E9"/>
<rect width="15.503" height="38.7564" transform="translate(209.581 160.662)" fill="#EFF0F8"/>
<rect width="15.503" height="38.7564" transform="translate(265.251 160.662)" fill="#EFF0F8"/>
<rect width="15.503" height="38.7564" transform="translate(320.921 160.662)" fill="#EFF0F8"/>
<rect width="15.503" height="38.7564" transform="translate(376.591 160.662)" fill="#EFF0F8"/>
<rect width="15.503" height="38.7564" transform="translate(432.26 160.662)" fill="#EFF0F8"/>
<rect width="15.503" height="38.7564" transform="translate(487.931 160.662)" fill="#EFF0F8"/>
<rect width="15.503" height="38.7564" transform="translate(543.6 160.662)" fill="#EFF0F8"/>
<rect width="15.503" height="38.7564" transform="translate(796.58 160.662)" fill="#EFF0F8"/>
<rect width="15.503" height="38.7564" transform="translate(852.25 160.662)" fill="#EFF0F8"/>
<rect width="15.503" height="38.7564" transform="translate(907.919 160.662)" fill="#EFF0F8"/>
<rect width="15.503" height="38.7564" transform="translate(963.589 160.662)" fill="#EFF0F8"/>
<rect width="15.503" height="38.7564" transform="translate(1019.26 160.662)" fill="#EFF0F8"/>
<rect width="15.503" height="38.7564" transform="translate(1074.93 160.662)" fill="#EFF0F8"/>
<rect width="15.503" height="38.7564" transform="translate(1130.6 160.662)" fill="#EFF0F8"/>
<rect width="11.2749" height="34.5284" transform="translate(211.696 162.776)" fill="#9FA5C3"/>
<rect width="11.2749" height="34.5284" transform="translate(267.364 162.776)" fill="#9FA5C3"/>
<rect width="11.2749" height="34.5284" transform="translate(323.035 162.776)" fill="#9FA5C3"/>
<rect width="11.2749" height="34.5284" transform="translate(378.706 162.776)" fill="#9FA5C3"/>
<rect width="11.2749" height="34.5284" transform="translate(434.375 162.776)" fill="#9FA5C3"/>
<rect width="11.2749" height="34.5284" transform="translate(490.044 162.776)" fill="#9FA5C3"/>
<rect width="11.2749" height="34.5284" transform="translate(545.714 162.776)" fill="#9FA5C3"/>
<rect width="11.2749" height="34.5284" transform="translate(798.694 162.776)" fill="#9FA5C3"/>
<rect width="11.2749" height="34.5284" transform="translate(854.363 162.776)" fill="#9FA5C3"/>
<rect width="11.2749" height="34.5284" transform="translate(910.034 162.776)" fill="#9FA5C3"/>
<rect width="11.2749" height="34.5284" transform="translate(965.703 162.776)" fill="#9FA5C3"/>
<rect width="11.2749" height="34.5284" transform="translate(1021.37 162.776)" fill="#9FA5C3"/>
<rect width="11.2749" height="34.5284" transform="translate(1077.04 162.776)" fill="#9FA5C3"/>
<rect width="11.2749" height="34.5284" transform="translate(1132.71 162.776)" fill="#9FA5C3"/>
<path fill-rule="evenodd" clip-rule="evenodd" d="M104.009 50.7163C104.009 22.7065 80.7256 0 52.0049 0C23.2832 0 0 22.7065 0 50.7163V130.533H12.748V52.5898C12.748 52.4619 12.748 52.334 12.748 52.2056C12.748 30.7573 30.1514 13.3701 51.6191 13.3701C73.0869 13.3701 90.4902 30.7573 90.4902 52.2056C90.4902 52.334 90.4902 52.4619 90.4902 52.5898V130.533H104.009V50.7163Z" transform="translate(622.665 141.34)" fill="#EFF0F8"/>
<path fill-rule="evenodd" clip-rule="evenodd" d="M91.6084 46.3267V124.725H81.0391V47.917C81.0391 47.7998 81.0391 47.6821 81.0391 47.5645C81.0391 27.9111 65.1064 11.979 45.4521 11.979C25.7988 11.979 9.86621 27.9111 9.86621 47.5645C9.86621 47.6821 9.86621 47.7998 9.86621 47.917V124.725H0V46.3267C0 20.7412 20.5068 0 45.8047 0C71.1016 0 91.6084 20.7412 91.6084 46.3267Z" transform="translate(628.864 147.274)" fill="#B7BCD4"/>
<path fill-rule="evenodd" clip-rule="evenodd" d="M22.5498 52.8486V11.2744V10.5688H22.5283C22.1641 4.6709 17.2646 0 11.2744 0C5.28516 0 0.385742 4.6709 0.0214844 10.5688H0V11.2744V52.8486H22.5498ZM11.2764 4.22656C15.5566 4.22656 19.0273 7.69678 19.0273 11.978V49.3257H3.52441V11.978C3.52441 7.69678 6.99512 4.22656 11.2764 4.22656Z" transform="translate(152.501 132.476)" fill="#EFF0F8"/>
<path fill-rule="evenodd" clip-rule="evenodd" d="M22.5498 52.8491V11.4243L22.5508 11.2744L22.5498 11.1245V10.5693H22.5293C22.165 4.67139 17.2656 0 11.2754 0C5.28516 0 0.386719 4.67139 0.0224609 10.5693H0L0.000976562 11.2744L0 52.8491H22.5498ZM11.2754 4.22705C15.5557 4.22705 19.0264 7.69727 19.0264 11.9785V49.3262H3.52344V11.9785C3.52344 7.69727 6.99414 4.22705 11.2754 4.22705Z" transform="translate(1180.63 132.476)" fill="#EFF0F8"/>
<rect width="176.875" height="3.52331" transform="translate(587.288 133.181)" fill="#EFF0F8"/>
<path fill-rule="evenodd" clip-rule="evenodd" d="M118.387 0H0V33.8237H13.3877V83.1494H20.4355V53.5537H20.4473C20.4395 53.4375 20.4355 53.3203 20.4355 53.2021C20.4355 50.2832 22.8018 47.917 25.7207 47.917C28.6396 47.917 31.0059 50.2832 31.0059 53.2021C31.0059 53.3203 31.002 53.4375 30.9941 53.5537H31.0059V83.1494H33.8242V53.5537H33.8359C33.8281 53.4375 33.8242 53.3203 33.8242 53.2021C33.8242 50.2832 36.1904 47.917 39.1094 47.917C42.0283 47.917 44.3945 50.2832 44.3945 53.2021C44.3945 53.3203 44.3906 53.4375 44.3828 53.5537H44.3945V83.1494H47.2129V53.5537H47.2246C47.2168 53.4375 47.2129 53.3203 47.2129 53.2021C47.2129 50.2832 49.5791 47.917 52.498 47.917C55.417 47.917 57.7832 50.2832 57.7832 53.2021C57.7832 53.3203 57.7793 53.4375 57.7715 53.5537H57.7832V83.1494H60.6025V53.5537H60.6143C60.6064 53.4375 60.6025 53.3203 60.6025 53.2021C60.6025 50.2832 62.9688 47.917 65.8877 47.917C68.8066 47.917 71.1729 50.2832 71.1729 53.2021C71.1729 53.3203 71.1689 53.4375 71.1611 53.5537H71.1729V83.1494H73.9902V53.5537H74.002C73.9941 53.4375 73.9902 53.3203 73.9902 53.2021C73.9902 50.2832 76.3564 47.917 79.2754 47.917C82.1943 47.917 84.5605 50.2832 84.5605 53.2021C84.5605 53.3203 84.5566 53.4375 84.5488 53.5537H84.5605V83.1494H87.3799V53.5537H87.3916C87.3838 53.4375 87.3799 53.3203 87.3799 53.2021C87.3799 50.2832 89.7461 47.917 92.665 47.917C95.584 47.917 97.9502 50.2832 97.9502 53.2021C97.9502 53.3203 97.9463 53.4375 97.9385 53.5537H97.9502V83.1494H104.996V33.8237H118.387V0Z" transform="translate(615.476)" fill="#EFF0F8"/>
<path fill-rule="evenodd" clip-rule="evenodd" d="M24.6885 19.7305C25.2393 8.74121 34.3242 0 45.4502 0C56.5762 0 65.6611 8.74121 66.2119 19.7305H68.3525C68.3525 13.5039 73.4004 8.45605 79.627 8.45605C85.8545 8.45605 90.9023 13.5039 90.9033 19.7305V41.5752H45.4502H0V19.7305C0 13.5039 5.04785 8.45605 11.2744 8.45605C17.502 8.45605 22.5498 13.5039 22.5498 19.7305H24.6885Z" transform="translate(629.569 91.606)" fill="#EFF0F8"/>
<path fill-rule="evenodd" clip-rule="evenodd" d="M9.14746 4.93262C9.15625 4.81641 9.16113 4.69873 9.16113 4.58008C9.16113 2.05078 7.11035 0 4.58008 0C2.05078 0 0 2.05078 0 4.58008C0 4.69873 0.00488281 4.81641 0.0136719 4.93262H0V26.7773H9.16113V4.93262H9.14746Z" transform="translate(663.393 106.404)" fill="#B7BCD4"/>
<path fill-rule="evenodd" clip-rule="evenodd" d="M9.14746 4.93262C9.15625 4.81641 9.16113 4.69873 9.16113 4.58008C9.16113 2.05078 7.11035 0 4.58008 0C2.05078 0 0 2.05078 0 4.58008C0 4.69873 0.00488281 4.81641 0.0136719 4.93262H0V26.7773H9.16113V4.93262H9.14746Z" transform="translate(635.91 106.404)" fill="#B7BCD4"/>
<path fill-rule="evenodd" clip-rule="evenodd" d="M9.14746 4.93262C9.15625 4.81641 9.16113 4.69873 9.16113 4.58008C9.16113 2.05078 7.11035 0 4.58008 0C2.05078 0 0 2.05078 0 4.58008C0 4.69873 0.00488281 4.81641 0.0136719 4.93262H0V26.7773H9.16113V4.93262H9.14746Z" transform="translate(676.783 106.404)" fill="#B7BCD4"/>
<path fill-rule="evenodd" clip-rule="evenodd" d="M9.14746 4.93262C9.15625 4.81641 9.16113 4.69873 9.16113 4.58008C9.16113 2.05078 7.11035 0 4.58008 0C2.05078 0 0 2.05078 0 4.58008C0 4.69873 0.00488281 4.81641 0.0136719 4.93262H0V26.7773H9.16113V4.93262H9.14746Z" transform="translate(704.264 106.404)" fill="#B7BCD4"/>
<ellipse cx="1.7617" cy="1.76165" rx="1.7617" ry="1.76165" transform="translate(639.435 28.8911)" fill="#B7BCD4"/>
<ellipse cx="1.7617" cy="1.76165" rx="1.7617" ry="1.76165" transform="translate(652.822 28.8911)" fill="#B7BCD4"/>
<ellipse cx="1.7617" cy="1.76165" rx="1.7617" ry="1.76165" transform="translate(666.212 28.8911)" fill="#B7BCD4"/>
<ellipse cx="1.7617" cy="1.76165" rx="1.7617" ry="1.76165" transform="translate(679.602 28.8911)" fill="#B7BCD4"/>
<ellipse cx="1.7617" cy="1.76165" rx="1.7617" ry="1.76165" transform="translate(692.99 28.8911)" fill="#B7BCD4"/>
<ellipse cx="1.7617" cy="1.76165" rx="1.7617" ry="1.76165" transform="translate(706.379 28.8911)" fill="#B7BCD4"/>
<path fill-rule="evenodd" clip-rule="evenodd" d="M13.3887 37.3467L12.6846 37.3462V7.75049H12.6729C12.6807 7.63428 12.6846 7.51709 12.6846 7.39893C12.6846 4.47998 10.3184 2.11377 7.39941 2.11377C4.48047 2.11377 2.11426 4.47998 2.11426 7.39893C2.11426 7.51709 2.11816 7.63428 2.12598 7.75049H2.11426V37.3462L0 37.3467V7.39893V7.04639H0.0078125C0.191406 3.12354 3.43066 0 7.39941 0C10.3564 0 12.9092 1.73438 14.0938 4.24219C15.2783 1.73438 17.8301 0 20.7881 0C23.7451 0 26.2969 1.73438 27.4814 4.24121C28.666 1.73438 31.2188 0 34.1758 0C37.1338 0 39.6865 1.73584 40.8711 4.24463C42.0557 1.73584 44.6074 0 47.5664 0C50.5234 0 53.0762 1.73438 54.2607 4.24219C55.4453 1.73438 57.9971 0 60.9551 0C63.9121 0 66.4648 1.73438 67.6494 4.24219C68.834 1.73438 71.3857 0 74.3438 0C78.3115 0 81.5508 3.12354 81.7344 7.04639H81.7422V7.39893V37.3467L79.6289 37.3462V7.75049H79.6172C79.625 7.63428 79.6289 7.5166 79.6289 7.39844C79.6289 4.47949 77.2627 2.11328 74.3438 2.11328C71.4248 2.11328 69.0586 4.47949 69.0586 7.39844C69.0586 7.5166 69.0625 7.63428 69.0703 7.75049H69.0586V37.3462L68.3535 37.3467H66.9443L66.2402 37.3462V7.75049H66.2285C66.2363 7.63428 66.2402 7.5166 66.2402 7.39844C66.2402 4.47949 63.874 2.11328 60.9551 2.11328C58.0361 2.11328 55.6699 4.47949 55.6699 7.39844C55.6699 7.5166 55.6738 7.63428 55.6816 7.75049H55.6699V37.3462L54.9648 37.3467H53.5557L52.8506 37.3462V7.75049H52.8389C52.8467 7.63428 52.8506 7.5166 52.8506 7.39844C52.8506 4.47949 50.4844 2.11328 47.5654 2.11328C44.6465 2.11328 42.2803 4.47949 42.2803 7.39844C42.2803 7.5166 42.2842 7.63428 42.292 7.75049H42.2803V37.3462L41.5742 37.3467H40.167L39.4619 37.3462V7.75049H39.4502C39.458 7.63428 39.4619 7.5166 39.4619 7.39844C39.4619 4.47949 37.0957 2.11328 34.1768 2.11328C31.2578 2.11328 28.8916 4.47949 28.8916 7.39844C28.8916 7.5166 28.8955 7.63428 28.9033 7.75049H28.8916V37.3462L28.1865 37.3467H26.7764L26.0732 37.3462V7.75049H26.0615C26.0693 7.63428 26.0732 7.5166 26.0732 7.39844C26.0732 4.47949 23.707 2.11328 20.7881 2.11328C17.8691 2.11328 15.5029 4.47949 15.5029 7.39844C15.5029 7.5166 15.5068 7.63428 15.5146 7.75049H15.5029V37.3462L14.7979 37.3467H13.3887Z" transform="translate(633.797 45.8027)" fill="#B7BCD4"/>
<path fill-rule="evenodd" clip-rule="evenodd" d="M22.9785 32.8003C26.1084 35.0547 27.7275 39.8316 27.7275 45.9815C27.7275 47.2105 27.7744 48.4082 27.8203 49.5547L27.8223 49.6133C27.8975 51.501 27.9668 53.2495 27.8154 54.772C29.3721 55.9038 30.291 57.7525 29.916 60.566C29.6592 62.4878 29.1602 63.9595 28.4355 65.0601C30.2578 67.6802 31.377 71.2354 31.377 75.1509C31.377 78.7002 30.458 81.9536 28.9287 84.4825C29.3115 85.2647 29.6357 86.2657 29.916 87.5479C30.1699 88.711 30.2998 89.8081 30.2822 90.815C33.3516 95.1836 35.3896 101.692 35.3896 107.601C35.3896 113.956 34.6631 120.567 31.375 124.581L31.376 124.737C31.376 131.987 29.5518 137.863 22.2549 137.863C21.2666 137.863 20.3799 137.755 19.583 137.551C18.6074 147.351 20.4307 161.928 20.4307 161.928H14.5938C14.5938 161.928 16.8467 143.073 15.415 135.279C15.1553 135.3 14.8809 135.311 14.5928 135.311C7.29688 135.311 5.10742 128.417 5.10742 120.362C5.10742 118.875 5.21875 117.439 5.42578 116.086C3.43359 113.855 2.18945 110.977 2.18945 108.695C2.18945 107.535 2.51074 106.22 3.08887 104.916C1.16113 101.997 0 98.2266 0 94.1099C0 88.0674 2.50195 82.771 6.25586 79.8189C4.96191 76.4014 5.0498 71.524 5.47266 66.0352C6.06152 58.377 7.90625 52.3838 10.0801 50.3638L10.1182 49.4517L10.1191 49.4283C10.166 48.3355 10.2148 47.1841 10.2148 45.9815C10.2148 39.6348 12.085 34.0088 15.6875 32.0865V31.1914V30.668C15.6875 16.1695 17.9043 -9.07467 20.4307 3.3223C22.6396 14.1636 22.9385 21.4458 22.9785 32.8003Z" transform="translate(50.4424 110.071)" fill="#D1D2E9"/>
<path fill-rule="evenodd" clip-rule="evenodd" d="M19.6074 140.222H15.497C16.0283 131.691 16.6523 117.608 15.4355 111.994C6.37787 110.989 5.54487 106.783 5.09955 101.97C5.08002 101.758 5.07123 101.546 5.07319 101.335C1.46186 99.9207 -0.80572 96.2367 0.267522 89.2069C0.744085 86.0824 2.59174 82.7108 4.91694 80.202C4.56635 79.3119 4.37104 78.3241 4.37104 77.284C4.37104 75.5037 4.9433 73.8763 5.88862 72.6302C1.16889 70.4544 0.802678 64.6722 1.45209 57.3328C1.95893 51.6029 4.01069 46.6541 6.7226 43.6668C6.74213 43.2577 6.77533 42.8411 6.82123 42.4193C7.00483 40.7391 7.37885 39.1873 7.8769 37.8768C7.49897 36.4754 7.28998 34.9373 7.28998 33.3241C7.28998 27.8211 9.72065 23.1952 13.0146 21.87C12.7412 20.2684 12.6913 18.3285 12.9951 16.0775L13.0947 15.3402C14.0029 8.57699 14.6572 3.71078 16.6435 0.543298C18.3622 -2.19742 19.247 5.99447 19.916 12.512C21.3085 13.7806 22.3808 16.7254 22.7392 20.2288L22.79 20.721C23.1513 24.2318 23.4755 27.3807 22.0048 28.6952C22.2705 29.6605 22.456 30.6917 22.5478 31.7684C24.3994 32.4876 26.0019 33.8382 26.3622 36.3675C26.6025 38.0501 26.1904 39.2113 25.3642 40.0116C26.7773 41.4193 27.9365 43.3431 28.6025 45.6009C29.6972 49.3123 29.1826 52.9867 27.5107 55.3729C28.6972 57.2264 29.5927 59.244 30.0107 61.0692C30.6953 64.0614 30.1181 67.5008 28.3164 69.8953C28.4042 70.4266 28.4492 70.9749 28.4492 71.5355C28.4492 72.3211 28.3593 73.0828 28.1914 73.8075C30.4316 76.6317 32.0292 80.6312 32.5634 84.724C33.333 90.6214 32.4716 95.2967 28.0956 97.1038C28.3261 98.4061 28.4492 100.006 28.4492 101.97C28.4492 106.967 27.3691 111.7 19.8173 112.148C18.6708 119.78 19.1435 132.411 19.6074 140.222Z" transform="translate(0.000976562 131.882)" fill="#D1D2E9"/>
<path fill-rule="evenodd" clip-rule="evenodd" d="M19.9779 149.887H15.7484C16.1254 141.456 16.4056 130.045 15.7074 122.03C7.71228 121.605 3.90173 115.145 4.9486 107.833C5.26696 105.611 5.84607 103.468 6.66833 101.549C4.1361 99.4131 2.69567 95.5181 2.34607 89.1699C2.22692 87.0083 2.70935 84.7178 3.60388 82.4551C-0.0787397 79.5645 -0.462529 73.4199 0.363643 67.8408C1.15271 62.5132 2.89489 58.4819 4.83435 56.1514C4.70153 55.1855 4.80896 54.1216 4.90564 53.1621L4.9486 52.7319C5.19274 50.1816 6.85192 46.6885 8.81774 46.2568C8.83532 44.6865 9.00427 43.1729 9.30407 41.7476C8.02087 39.2539 8.06384 35.2466 8.37731 30.6274C8.78356 24.6465 10.8314 19.2349 13.3422 17.2305C13.4681 7.59229 14.8588 0 16.557 0C17.4398 0 18.2386 2.05273 18.8207 5.37842C20.0892 5.73242 21.0707 8.09668 21.0707 10.9614C21.0707 13.0767 20.5365 14.9189 19.7455 15.8809C19.7562 16.2935 19.764 16.7104 19.7699 17.1313C20.1644 17.1108 20.597 17.127 21.0707 17.1821C23.0052 17.4067 24.9398 21.0332 25.8431 27.6089C26.0941 29.4326 25.6605 31.1445 24.8627 32.5645C27.7826 34.9248 29.2465 39.6514 30.097 46.647C30.4945 49.9224 30.2133 52.7129 29.4613 55.0063C31.0267 56.665 32.1381 59.1641 32.7045 62.8047C33.1449 65.6382 32.4535 67.7744 31.0883 69.3159C32.2738 72.4834 32.6781 76.4902 32.6781 80.875C32.6781 86.8086 32.0492 92.2163 29.6634 95.668C29.9457 96.5151 30.098 97.4175 30.098 98.3535C30.098 99.7026 29.7816 100.981 29.2162 102.126C29.7865 104.091 30.1254 106.659 30.5345 109.962C31.2211 115.503 28.1029 118.277 24.4017 119.255C23.2572 120.36 21.8207 121.182 20.0502 121.639C19.4261 129.743 19.6586 141.349 19.9779 149.887Z" transform="translate(1260.25 122.217)" fill="#D1D2E9"/>
<path fill-rule="evenodd" clip-rule="evenodd" d="M20.9577 137.49H16.6013C16.9314 131.707 17.1902 124.182 16.8249 118.062C14.4275 117.509 13.0564 116.017 12.2722 114.001C11.6189 114.102 10.862 114.131 9.98411 114.076C4.72435 113.744 3.77903 111.7 3.77903 108.77C3.77903 108.613 3.78685 108.459 3.80247 108.306C1.81321 107.087 0.180402 103.531 0.676495 98.4893C1.01439 95.0542 1.8806 92.3091 3.01439 90.5225C0.88255 88.7153 -0.2737 85.7993 0.0554016 81.5767C0.424542 76.8389 2.55345 73.0415 5.13157 70.7437C4.27122 67.9761 3.77903 64.7681 3.77903 61.3481C3.77903 54.2515 5.8972 48.0679 9.03099 44.8359C7.5886 43.7407 7.20579 41.7329 7.20579 39.1299C7.20579 35.7607 8.66282 32.9248 10.6433 32.0864C10.6179 31.6904 10.6052 31.2749 10.6052 30.8398C10.6052 28.5576 11.3747 26.4751 12.6413 24.8936C11.7878 23.311 11.5232 20.999 11.8454 18.2383C12.4255 13.2803 13.7409 9.19092 16.0085 8.67627C16.6882 4.07275 18.0925 0 19.9138 0C21.8591 0 23.0173 4.31104 23.6374 9.6167C23.9734 12.4893 23.5574 15.0698 22.7243 16.833C24.3679 18.2925 25.4988 21.3433 25.4988 24.8706C25.4988 25.2524 25.4851 25.6289 25.4597 25.9985C26.2702 27.3945 26.74 29.0562 26.74 30.8398C26.74 33.1499 26.5017 34.9131 25.9665 36.2373C26.6462 37.188 27.2243 38.3828 27.6648 39.752C29.7224 41.9355 31.0837 45.7422 31.0837 50.0737C31.0837 54.2158 29.8386 57.8789 27.9304 60.1006C28.7322 61.043 29.2214 62.2954 29.2214 63.6699C29.2214 64.5493 29.0212 65.3784 28.6667 66.1089C30.6501 68.1123 31.9411 71.9429 32.3249 78.2607C32.531 81.6567 32.2009 84.3345 31.5046 86.3955C32.7761 87.7808 33.5661 89.7158 33.5661 91.8569C33.5661 94.4512 32.407 95.8623 30.6355 96.564C31.7038 98.7417 32.3249 101.339 32.3249 104.127C32.3249 111.819 32.3259 116.311 21.7761 118.055C21.4304 118.112 21.0954 118.159 20.7722 118.195C20.4724 124.319 20.6853 131.763 20.9577 137.49Z" transform="translate(1316.44 134.613)" fill="#D1D2E9"/>
</svg>
