<svg width="459" height="376" viewBox="0 0 459 376" fill="none" xmlns="http://www.w3.org/2000/svg">
<path fill-rule="evenodd" clip-rule="evenodd" d="M0 189.019L1.26318 187.318C84.9355 74.6631 204.349 49.3989 269.231 47.5903C298.912 46.7632 337.619 40.2192 374.444 30.5898C407.997 21.8164 438.729 10.8086 459 0V32.1733C437.205 42.0742 409.823 51.228 381.712 58.5781C343.598 68.5444 302.609 75.5942 270.032 76.5024C213.53 78.0771 112.308 99.1016 36.6909 189.019H29.1934C73.2979 134.981 126.431 104.629 174.758 88.2227C121.589 103.235 62.0249 132.668 16.3711 189.019H0Z" transform="translate(459 186.981) scale(-1 1)" fill="#979CD8"/>
<path d="M0 0L89.928 50.3426V151.028L0 100.685V0Z" transform="translate(176.534)" fill="#D1D2E9"/>
<path d="M0 0L89.928 50.3426V151.028L0 100.685V0Z" transform="translate(356.39) scale(-1 1)" fill="#9FA5C3"/>
<path fill-rule="evenodd" clip-rule="evenodd" d="M89.9282 50.167L0 0L89.9277 132.98L89.9282 50.167Z" transform="translate(176.534 201.37)" fill="#3E3F69"/>
<path fill-rule="evenodd" clip-rule="evenodd" d="M89.9277 132.98V50.167L0 0L89.9277 132.98Z" transform="translate(356.39 201.37) scale(-1 1)" fill="#282954"/>
<path d="M0 0L89.928 50.3426V151.028L0 100.685V0Z" transform="translate(356.39 100.685) scale(-1 1)" fill="#E4E5F2"/>
<path d="M0 0L89.928 50.3426V151.028L0 100.685V0Z" transform="translate(176.534 100.685)" fill="white"/>
<ellipse cx="27.0729" cy="27.071" rx="27.0729" ry="27.071" transform="translate(194.583 48.4424)" fill="#282954"/>
<ellipse cx="27.0729" cy="27.071" rx="27.0729" ry="27.071" transform="translate(284.827 48.4424)" fill="#282954"/>
<path d="M41.0975 21.3718C41.0975 32.3516 32.2284 41.2437 21.2987 41.2437C10.369 41.2437 1.5 32.3516 1.5 21.3718C1.5 10.3921 10.369 1.5 21.2987 1.5C32.2284 1.5 41.0975 10.3921 41.0975 21.3718Z" transform="translate(200.2 54.1426)" stroke="#D1D2E9" stroke-width="3"/>
<path d="M42.0441 21.3718C42.0441 32.3206 32.9943 41.2437 21.772 41.2437C10.5497 41.2437 1.5 32.3206 1.5 21.3718C1.5 10.423 10.5497 1.5 21.772 1.5C32.9943 1.5 42.0441 10.423 42.0441 21.3718Z" transform="translate(290.128 54.1421)" stroke="#D1D2E9" stroke-width="3"/>
<path fill-rule="evenodd" clip-rule="evenodd" d="M89.9282 50.167L0 0L89.9277 132.98L89.9282 50.167Z" transform="translate(176.534)" fill="#3E3F69"/>
<path fill-rule="evenodd" clip-rule="evenodd" d="M89.9277 132.98V50.167L0 0L89.9277 132.98Z" transform="translate(356.39) scale(-1 1)" fill="#282954"/>
<path d="M16.9633 25.1537L0 0L17.0227 9.52247L33.9265 0L16.9633 25.1537Z" transform="translate(202.093 155.778)" fill="#3E3F69"/>
<path d="M16.9633 25.1537L0 0L17.0227 9.52247L33.9265 0L16.9633 25.1537Z" transform="translate(249.499 155.777)" fill="#3E3F69"/>
<path d="M16.9633 25.1537L0 0L17.0227 9.52247L33.9265 0L16.9633 25.1537Z" transform="translate(296.906 155.777)" fill="#3E3F69"/>
<path d="M16.9633 25.1537L0 0L17.0227 9.52247L33.9265 0L16.9633 25.1537Z" transform="translate(225.758 183.323)" fill="#3E3F69"/>
<path d="M16.9633 25.1537L0 0L17.0227 9.52247L33.9265 0L16.9633 25.1537Z" transform="translate(273.088 183.323)" fill="#3E3F69"/>
</svg>
