<svg width="178" height="32" viewBox="0 0 178 32" fill="none" xmlns="http://www.w3.org/2000/svg">
<path fill-rule="evenodd" clip-rule="evenodd" d="M46.1136 10.4044H40.6431V7.96887H54.2953V10.4044H48.827V23.9031H46.1136V10.4044ZM56.8524 7.96887H59.7229L63.3615 20.0579H63.4075L66.8438 7.96887H69.374L72.788 20.0579H72.8332L76.4948 7.96887H79.3432L74.3478 23.9031H71.4313L68.1085 12.2255H68.0633L64.7405 23.9031H61.8247L56.8524 7.96887ZM88.4431 7.69482C93.0314 7.69482 96.5121 10.9047 96.5121 15.8438C96.5121 20.9002 93.0314 24.1764 88.4431 24.1764C83.8556 24.1764 80.3503 20.8994 80.3503 15.8438C80.3503 10.9047 83.8556 7.69482 88.4431 7.69482ZM88.4431 21.8103C91.4263 21.8103 93.755 19.5793 93.755 15.8438C93.755 12.2479 91.4501 10.0401 88.4431 10.0401C85.4369 10.0401 83.1312 12.2479 83.1312 15.8438C83.1312 19.5793 85.4599 21.8111 88.4431 21.8111V21.8103ZM119.752 7.96887H122.464V23.9031H119.751V14.9946L119.752 7.96887ZM134.119 7.69482C136.29 7.69482 138.122 8.37802 139.725 9.49352C139.725 9.49352 138.172 11.3262 138.093 11.2775C136.898 10.5056 135.633 10.0625 134.187 10.0625C130.932 10.0625 128.785 12.4309 128.785 15.8005C128.785 19.4643 130.796 21.8103 134.187 21.8103C135.363 21.8103 136.538 21.5131 137.353 21.036V17.2557H133.375V15.2308H139.861V22.4464C138.323 23.5395 136.312 24.1756 134.12 24.1756C129.168 24.1756 126.005 20.8075 126.005 15.7998C126.005 11.11 129.214 7.69482 134.119 7.69482ZM143.705 7.96887H146.441L151.663 15.4578L156.884 7.96887H159.598V23.9031H156.976V12.021L151.639 19.5322L146.306 12.021V23.9031H143.706L143.705 7.96887Z" fill="white"/>
<mask id="mask0" mask-type="alpha" maskUnits="userSpaceOnUse" x="162" y="7" width="16" height="17">
<path d="M177.028 23.9033V7.96753H162.13V23.9033H177.027H177.028Z" fill="white"/>
</mask>
<g mask="url(#mask0)">
<path fill-rule="evenodd" clip-rule="evenodd" d="M167.986 7.96753H171.173L177.029 23.9033H174.111L172.914 20.465H166.245L165.07 23.9033H162.13L167.986 7.96753ZM166.99 18.2571H172.145L169.592 10.8354H169.546L166.99 18.2571Z" fill="white"/>
</g>
<path fill-rule="evenodd" clip-rule="evenodd" d="M105.721 20.4663C107.148 21.2437 108.495 21.7632 110.234 21.7632C112.315 21.7632 113.353 20.8523 113.353 19.5786C113.353 15.9812 104.449 18.348 104.449 12.2711C104.449 9.72125 106.549 7.69482 110.098 7.69482C112.178 7.69482 114.27 8.19892 115.908 9.16311L114.134 10.9857C112.846 10.4299 111.75 10.108 110.189 10.108C108.358 10.108 107.272 11.0421 107.272 12.2263C107.272 15.8005 116.179 13.3634 116.179 19.5554C116.179 22.1747 114.211 24.1756 110.234 24.1756C107.908 24.1756 105.382 23.345 103.893 22.3082L105.721 20.4663Z" fill="white"/>
<path fill-rule="evenodd" clip-rule="evenodd" d="M0.84375 15.936L16.6528 0.0102539L32.4658 15.936L16.6528 31.8604L0.84375 15.936ZM12.0098 15.6116C10.293 16.4592 8.24268 17.4714 8.31445 20.4504L8.32959 21.2849H15.9565V19.7563H10.1255C10.1255 18.2205 11.4766 17.5735 12.8882 16.8972C14.4326 16.1575 16.0493 15.3831 16.0493 13.3721C16.0493 11.7039 14.7598 10.282 12.2275 10.282C10.6475 10.282 9.14209 11.0232 8.17725 11.9341L9.29639 13.0635C10.0483 12.3679 11.0771 11.8267 12.1509 11.8267C13.623 11.8267 14.2847 12.5532 14.2847 13.4023C14.2847 14.4883 13.2314 15.0083 12.0098 15.6116ZM18.6729 17.855C18.6729 19.3079 19.3643 20.0645 20.5303 20.0645C22.0034 20.0645 23.2163 18.4092 23.2163 16.5559C23.2163 15.0874 22.5249 14.3303 21.375 14.3303C19.9009 14.3303 18.6729 15.9993 18.6729 17.855ZM21.5029 12.9236H27.9751L26.6147 14.2754H24.356C24.772 14.8635 25.0122 15.6287 25.0122 16.541C25.0122 19.3535 23.0166 21.4709 20.3618 21.4709C18.3203 21.4709 16.8784 20.1116 16.8784 17.8689C16.8784 15.0452 18.8687 12.9299 21.5029 12.9236Z" fill="white"/>
</svg>
