<svg width="275" height="34" viewBox="0 0 275 34" fill="none" xmlns="http://www.w3.org/2000/svg">
<path d="M214.82 8.78345C213.85 8.78345 213.05 9.10692 212.409 9.7515C211.768 10.3969 211.454 11.1243 211.454 11.9473C211.454 12.9919 211.923 14.1526 212.862 15.4418C211.303 16.4715 210.239 17.3394 209.687 18.0154C209.138 18.693 208.876 19.5215 208.876 20.5182C208.876 21.39 209.102 22.144 209.544 22.8084C209.985 23.4737 210.536 23.999 211.239 24.3668C211.942 24.7345 212.688 24.9334 213.459 24.9334C215.032 24.9334 216.534 24.1479 217.947 22.5959C219.135 24.1479 220.512 24.9334 222.077 24.9334C222.799 24.9334 223.437 24.7195 223.987 24.3196C224.535 23.9204 224.891 23.3872 225.061 22.7376H224.488C224.079 23.4508 223.499 23.8237 222.745 23.8237C222.191 23.8237 221.683 23.6543 221.194 23.3279C220.705 23.0023 220.023 22.2296 219.164 21.014C219.525 20.5405 219.927 19.8052 220.358 18.7946C220.871 17.5707 221.377 16.7339 221.862 16.2918C222.347 15.8488 222.907 15.5445 223.557 15.3709V14.8043H218.401V15.3709C219.663 15.5131 220.286 16.0211 220.286 16.9293C220.286 17.3078 220.145 17.8369 219.881 18.5112C219.617 19.1864 219.263 19.8388 218.806 20.4709C217.538 18.6909 216.199 16.8533 214.772 14.9459C217.076 13.7997 218.21 12.6232 218.21 11.4043C218.21 10.6209 217.88 9.97439 217.183 9.49178C216.485 9.00917 215.685 8.78345 214.82 8.78345ZM236.734 8.85428C235.331 8.85428 234.041 9.17114 232.867 9.82234C231.693 10.4735 230.777 11.4764 230.122 12.8209C229.466 14.1647 229.143 15.596 229.143 17.1182C229.143 19.4362 229.845 21.305 231.267 22.714C232.689 24.123 234.541 24.8154 236.782 24.8154C238.902 24.8154 240.645 24.0481 242.01 22.5251C242.37 22.9953 242.61 23.5386 242.75 24.1543H243.275V18.7473H242.75C242.658 19.6407 242.35 20.5765 241.842 21.5334C241.336 22.4912 240.658 23.1632 239.789 23.564C238.919 23.9648 238.067 24.1543 237.235 24.1543C235.68 24.1543 234.366 23.5448 233.32 22.3126C232.277 21.0796 231.769 19.3123 231.769 17.0001C231.769 14.5581 232.244 12.6685 233.201 11.3571C234.159 10.0439 235.442 9.39734 237.068 9.39734C238.395 9.39734 239.591 9.80864 240.649 10.6251C241.707 11.4416 242.406 12.8767 242.75 14.9459H243.275L243.131 9.114H242.606C242.535 9.80238 242.346 10.4788 242.01 11.1209C241.545 10.5483 240.826 10.0337 239.885 9.56261C238.943 9.09157 237.892 8.85428 236.734 8.85428ZM145.067 8.9015C143.664 8.9015 142.374 9.21836 141.2 9.86956C140.025 10.5208 139.111 11.5236 138.455 12.8682C137.799 14.2119 137.476 15.6424 137.476 17.1654C137.476 19.4826 138.179 21.3514 139.601 22.7612C141.021 24.1702 142.849 24.8626 145.091 24.8626C147.21 24.8626 148.955 24.1198 150.319 22.5959C150.682 23.0678 150.945 23.6086 151.083 24.2251H151.608V18.7946H151.083C150.991 19.6887 150.684 20.6237 150.176 21.5807C149.669 22.5385 148.993 23.2104 148.123 23.6112C147.252 24.012 146.4 24.2251 145.569 24.2251C144.013 24.2251 142.699 23.5912 141.654 22.3598C140.608 21.1269 140.102 19.3604 140.102 17.0473C140.102 14.6054 140.577 12.7394 141.534 11.4279C142.492 10.1156 143.777 9.44456 145.401 9.44456C146.73 9.44456 147.926 9.85586 148.982 10.6723C150.039 11.4888 150.739 12.9239 151.083 14.9932H151.608L151.465 9.18484H150.94C150.869 9.87322 150.656 10.5261 150.319 11.1682C149.854 10.5955 149.161 10.0801 148.218 9.60984C147.278 9.13879 146.226 8.9015 145.067 8.9015ZM31.5104 8.94873C30.6323 8.94873 29.4033 8.98284 27.8342 9.04317L25.8767 9.114V9.63345H26.1632C26.9577 9.63345 27.4759 9.70959 27.7148 9.84595C27.9546 9.98313 28.099 10.2209 28.1684 10.5779C28.2377 10.9349 28.2877 11.7346 28.2877 12.9626V20.5182C28.2877 21.8082 28.2377 22.6445 28.1684 22.9973C28.099 23.3502 27.9491 23.6096 27.6909 23.7765C27.4328 23.9434 26.9534 24.0126 26.2825 24.0126H25.8767V24.5321H33.062V24.0126H32.5369C31.835 24.0126 31.3594 23.9363 31.1046 23.7529C30.8497 23.5703 30.6848 23.2797 30.6271 22.9029C30.5687 22.5261 30.5555 21.7363 30.5555 20.5182V17.2598H32.2743C34.0639 17.2598 35.3119 17.097 36.0221 16.764C36.7331 16.4301 37.2644 15.9447 37.6454 15.3001C38.0255 14.6547 38.2183 13.8991 38.2183 13.0571C38.2183 12.0869 37.9409 11.2859 37.3828 10.6487C36.8247 10.0116 36.1074 9.5769 35.2343 9.3265C34.3612 9.07611 33.1254 8.94873 31.5104 8.94873ZM16.7339 9.114V9.63345H17.092C17.8832 9.63345 18.3858 9.70959 18.6198 9.84595C18.8545 9.9823 19.0245 10.2225 19.0972 10.5779C19.1699 10.9341 19.1927 11.7363 19.1927 12.9626V18.2043C19.1927 19.9223 19.1484 21.1658 19.0256 21.9112C18.9044 22.6583 18.5232 23.2986 17.9275 23.8473C17.3318 24.3961 16.6019 24.6737 15.7313 24.6737C15.3035 24.6737 14.9478 24.5968 14.6571 24.4612C14.368 24.3257 14.2274 24.1359 14.2274 23.8946C14.2274 23.8037 14.2624 23.6741 14.3468 23.4932C14.4395 23.2891 14.49 23.0921 14.49 22.9029C14.49 22.5856 14.3839 22.3191 14.1558 22.1001C13.9285 21.8803 13.6356 21.7696 13.2964 21.7696C12.9647 21.7696 12.689 21.9027 12.4609 22.1473C12.2337 22.3919 12.1267 22.6867 12.1267 23.0446C12.1267 23.6379 12.4474 24.1487 13.0816 24.5793C13.7174 25.009 14.6018 25.2168 15.7791 25.2168C16.8268 25.2168 17.7569 25.0461 18.5482 24.6973C19.3394 24.3478 19.9841 23.8569 20.4579 23.2098C20.9316 22.5619 21.2128 21.8855 21.3172 21.2029C21.42 20.5211 21.4605 19.5328 21.4605 18.2279V12.9626C21.4605 11.6817 21.503 10.872 21.5798 10.5307C21.6559 10.1894 21.82 9.94629 22.0573 9.82234C22.2937 9.6959 22.7958 9.63345 23.5612 9.63345H23.9431V9.114H16.7339ZM40.319 9.114V9.63345H40.7487C41.5432 9.63345 42.0408 9.70959 42.2764 9.84595C42.5121 9.98313 42.6812 10.2209 42.7539 10.5779C42.8274 10.9349 42.8494 11.7338 42.8494 12.9626V19.6682C42.8494 20.9425 42.8228 21.818 42.73 22.289C42.6381 22.7592 42.3633 23.1725 41.9422 23.4932C41.522 23.8155 40.9907 23.9754 40.319 24.0126V24.5321H45.9288V24.0126C45.2078 23.9672 44.6563 23.7831 44.2578 23.4459C43.8576 23.1088 43.6177 22.7133 43.5416 22.2654C43.4648 21.8175 43.4223 20.9753 43.4223 19.739V10.7196L49.6289 24.5321H50.1779L56.3129 10.7196V20.5418C56.3129 21.8318 56.2901 22.6445 56.2174 22.9973C56.1447 23.3502 55.9743 23.6087 55.7161 23.7765C55.4571 23.9434 54.9958 24.0126 54.3316 24.0126H53.7825V24.5321H61.2782V24.0126H60.5859C59.8791 24.0126 59.4026 23.9355 59.1536 23.7529C58.903 23.5711 58.7372 23.3017 58.6762 22.9265C58.6144 22.5513 58.5807 21.7321 58.5807 20.5182V12.9626C58.5807 11.6809 58.6182 10.8728 58.7001 10.5307C58.7794 10.1894 58.9394 9.94712 59.1775 9.82234C59.4156 9.69755 59.9374 9.63345 60.7053 9.63345H61.2782V9.114H56.4561L50.7986 21.8876L45.0694 9.114H40.319ZM214.868 9.37372C215.453 9.37372 215.917 9.56982 216.276 9.964C216.633 10.359 216.825 10.8591 216.825 11.4987C216.825 12.5714 216.012 13.5743 214.414 14.4973C213.432 13.1644 212.958 12.1069 212.958 11.3334C212.958 10.7732 213.132 10.3189 213.483 9.94039C213.833 9.56273 214.287 9.37372 214.868 9.37372ZM31.7491 9.49178C33.1711 9.49178 34.1952 9.79152 34.8285 10.389C35.4618 10.9857 35.7834 11.9211 35.7834 13.1987C35.7834 14.0359 35.6028 14.7535 35.2343 15.3237C34.8651 15.8939 34.4021 16.2533 33.8498 16.4334C33.2967 16.6119 32.5757 16.7168 31.6775 16.7168H30.5555V9.539C30.8321 9.50843 31.2278 9.49178 31.7491 9.49178ZM186.102 12.4196C185.19 12.4196 184.454 12.6832 183.858 13.2459C183.264 13.8087 182.951 14.5256 182.951 15.3709C182.951 15.9255 183.107 16.4401 183.381 16.9293C183.655 17.4193 184.015 17.8285 184.503 18.1334C184.991 18.44 185.738 18.7885 186.699 19.1959C187.777 19.6513 188.514 20.0751 188.919 20.4709C189.325 20.8726 189.516 21.3643 189.516 21.9584C189.516 22.5468 189.286 23.0888 188.824 23.564C188.361 24.0392 187.709 24.2723 186.866 24.2723C184.992 24.2723 183.811 23.0259 183.309 20.5418H182.856V24.3668H183.309C183.404 23.8701 183.543 23.4834 183.739 23.2098C184.62 24.2065 185.717 24.6973 187.033 24.6973C188.179 24.6973 189.094 24.3876 189.779 23.7529C190.464 23.1166 190.805 22.2885 190.805 21.2737C190.805 20.6324 190.658 20.0638 190.375 19.5737C190.091 19.0845 189.724 18.7172 189.253 18.4404C188.784 18.1636 188.019 17.7877 186.986 17.3307C185.905 16.8489 185.18 16.4139 184.766 16.0321C184.344 15.6569 184.121 15.2056 184.121 14.6626C184.121 14.2131 184.287 13.7905 184.622 13.4112C184.958 13.0336 185.479 12.8446 186.198 12.8446C186.952 12.8446 187.632 13.1105 188.203 13.6237C188.777 14.1386 189.171 14.8293 189.397 15.7251H189.779V12.6321H189.397C189.362 13.0048 189.215 13.3511 188.943 13.6709C188.47 13.1586 188.007 12.8185 187.559 12.6557C187.108 12.492 186.613 12.4196 186.102 12.4196ZM68.6306 12.4432C66.7825 12.4432 65.2591 12.9878 64.0234 14.0959C62.7877 15.2033 62.1614 16.6808 62.1614 18.5112C62.1614 20.3888 62.7814 21.8847 63.9995 23.0209C65.2177 24.1589 66.7768 24.7446 68.6784 24.7446C70.6309 24.7446 72.2068 24.1589 73.4049 23.0209C74.6022 21.8847 75.1953 20.4183 75.1953 18.5821C75.1953 16.6871 74.5593 15.1926 73.3094 14.0959C72.0587 13.0002 70.4955 12.4432 68.6306 12.4432ZM96.3455 12.4432C94.479 12.4432 93.0162 13.0789 91.9292 14.3557C90.8422 15.6316 90.2821 17.1224 90.2821 18.8182C90.2821 20.5321 90.8646 21.9517 92.0008 23.0682C93.1363 24.1846 94.5602 24.7446 96.2738 24.7446C97.1269 24.7446 98.0412 24.5489 99.0429 24.1779C99.7782 23.9052 100.38 23.7765 100.833 23.7765C100.945 23.7765 101.076 23.7761 101.215 23.8001V22.5487C101.215 21.524 101.246 20.8787 101.311 20.6126C101.375 20.3473 101.513 20.1364 101.717 20.0223C101.92 19.9083 102.315 19.8571 102.886 19.8571V19.4557H97.7061V19.8571H97.9926C98.468 19.8571 98.7934 19.9016 98.9713 19.9751C99.1493 20.047 99.2672 20.1877 99.3533 20.4001C99.4393 20.6133 99.4965 21.038 99.4965 21.6751C99.4965 22.2181 99.393 22.6656 99.21 23.0209C99.0287 23.3771 98.7062 23.6703 98.2074 23.9182C97.7078 24.1677 97.1464 24.2959 96.5364 24.2959C95.345 24.2959 94.3324 23.8741 93.5286 22.9973C92.724 22.1222 92.335 20.6136 92.335 18.5112C92.335 16.4031 92.7639 14.9468 93.6002 14.1196C94.4366 13.2932 95.4102 12.8682 96.5364 12.8682C97.6259 12.8682 98.5427 13.2233 99.3055 13.9307C100.069 14.6389 100.544 15.5989 100.714 16.8112H101.12V12.8446H100.714C100.66 13.323 100.529 13.7764 100.332 14.1904C99.2793 13.0277 97.9513 12.4432 96.3455 12.4432ZM252.68 12.4432C250.832 12.4432 249.309 12.9878 248.073 14.0959C246.837 15.2033 246.211 16.6808 246.211 18.5112C246.211 20.3888 246.807 21.8847 248.025 23.0209C249.243 24.1589 250.803 24.7446 252.704 24.7446C254.658 24.7446 256.232 24.1589 257.431 23.0209C258.628 21.8847 259.245 20.4183 259.245 18.5821C259.245 16.6871 258.609 15.1926 257.359 14.0959C256.108 13.0002 254.544 12.4432 252.68 12.4432ZM175.002 12.4668L171.517 20.6834C171.266 21.2743 171.1 21.612 171.063 21.6987C170.693 22.6284 170.393 23.2284 170.132 23.5168C169.872 23.806 169.473 24.0016 168.939 24.0834V24.4848H172.543V24.0834C172.155 24.0834 171.834 23.9844 171.589 23.8001C171.345 23.6167 171.23 23.3535 171.23 22.9973C171.23 22.6643 171.463 21.964 171.923 20.8723L172.233 20.1168H176.769L177.7 22.3126C177.971 22.9489 178.105 23.3179 178.105 23.4459C178.105 23.6963 177.997 23.8811 177.795 23.9654C177.591 24.0497 177.201 24.0834 176.625 24.0834V24.4848H181.328V24.0834C180.908 24.043 180.606 23.9376 180.397 23.7765C180.187 23.617 180.019 23.3947 179.896 23.1154L179.347 21.8876L175.36 12.4668H175.002ZM81.2348 12.514C80.5639 12.514 79.6547 12.5353 78.5134 12.5848L76.8186 12.6557V13.0571H77.0095C77.627 13.0571 78.0406 13.1174 78.227 13.2223C78.4116 13.3273 78.5316 13.5155 78.585 13.789C78.6394 14.0625 78.6567 14.6633 78.6567 15.6071V21.439C78.6567 22.4298 78.6385 23.056 78.585 23.3279C78.5324 23.5989 78.4011 23.7909 78.2031 23.9182C78.0059 24.0463 77.6427 24.1071 77.1289 24.1071H76.7469V24.5084H82.5V24.1071H81.9271C81.3831 24.1071 80.9964 24.0342 80.8051 23.8946C80.6121 23.7557 80.4905 23.5446 80.447 23.2571C80.4027 22.972 80.3993 22.3654 80.3993 21.439V18.8418H80.8767C81.1984 18.8418 81.4161 18.9005 81.569 19.0071C81.7202 19.1145 82.0001 19.3898 82.4045 19.8807C82.808 20.3691 83.1982 20.8824 83.5742 21.4154C84.7447 23.083 85.6319 24.111 86.2001 24.5084H89.3988V24.1071C88.6979 24.0839 88.0993 23.8895 87.5846 23.5168C87.0716 23.1424 86.3641 22.3556 85.46 21.1557C84.3505 19.6731 83.5248 18.8192 83.0251 18.5821C84.1347 18.4482 84.984 18.1155 85.5555 17.5668C86.1287 17.0181 86.4149 16.3366 86.4149 15.5598C86.4149 14.8946 86.1876 14.3383 85.7465 13.8598C85.3054 13.3797 84.7413 13.0317 84.0277 12.8209C83.3126 12.611 82.3752 12.514 81.2348 12.514ZM109.809 12.514L106.3 20.7071C106.048 21.2971 105.909 21.6356 105.87 21.7223C105.503 22.652 105.177 23.2756 104.915 23.564C104.654 23.8532 104.279 24.0252 103.746 24.1071V24.5084H107.35V24.1071C106.96 24.1071 106.639 24.0316 106.395 23.8473C106.151 23.6631 106.037 23.3771 106.037 23.0209C106.037 22.6879 106.269 21.9876 106.73 20.8959L107.04 20.1404H111.575L112.483 22.3362C112.753 22.9725 112.912 23.3651 112.912 23.4932C112.912 23.7436 112.806 23.9047 112.602 23.989C112.399 24.0733 112.009 24.1071 111.432 24.1071V24.5084H116.135V24.1071C115.716 24.0657 115.413 23.9849 115.204 23.8237C114.995 23.6642 114.825 23.4419 114.703 23.1626L114.154 21.9112L110.167 12.514H109.809ZM154.401 12.6321V13.0334H154.64C155.251 13.0334 155.628 13.0946 155.809 13.1987C155.99 13.3037 156.113 13.491 156.168 13.7654C156.224 14.0389 156.263 14.6405 156.263 15.5834V21.3918C156.263 22.3834 156.224 23.0324 156.168 23.3043C156.113 23.5753 155.984 23.7673 155.786 23.8946C155.587 24.0226 155.228 24.0834 154.711 24.0834H154.401V24.4848H159.844V24.0834H159.533C158.99 24.0834 158.605 24.0106 158.411 23.8709C158.218 23.7305 158.1 23.5219 158.053 23.2334C158.006 22.9442 157.982 22.3273 157.982 21.3918V18.5348H164.236V21.3918C164.236 22.3851 164.218 23.0088 164.164 23.2807C164.112 23.5526 163.977 23.7656 163.783 23.8946C163.586 24.0226 163.235 24.0834 162.732 24.0834H162.326V24.4848H167.745V24.0834H167.483C166.948 24.0834 166.579 24.0106 166.385 23.8709C166.191 23.7313 166.071 23.5219 166.026 23.2334C165.981 22.945 165.955 22.3248 165.955 21.3918V15.5834C165.955 14.6 165.989 13.9801 166.05 13.7182C166.113 13.4562 166.227 13.2701 166.408 13.1751C166.591 13.0784 166.99 13.0334 167.578 13.0334H167.745V12.6321H162.326V13.0334H162.637C163.239 13.0334 163.628 13.0946 163.806 13.1987C163.985 13.3037 164.112 13.491 164.164 13.7654C164.218 14.0389 164.236 14.6405 164.236 15.5834V17.9446H157.982V15.5834C157.982 14.6 158.015 13.9801 158.077 13.7182C158.14 13.4562 158.274 13.2701 158.459 13.1751C158.644 13.0784 159.014 13.0334 159.605 13.0334H159.844V12.6321H154.401ZM193.073 12.6321V13.0334C193.655 13.0334 194.037 13.0847 194.219 13.1987C194.4 13.3111 194.527 13.5039 194.577 13.789C194.629 14.0741 194.648 14.681 194.648 15.5834V21.3918C194.648 22.3826 194.624 23.0149 194.577 23.2571C194.529 23.4984 194.416 23.6895 194.243 23.8473C194.07 24.0043 193.71 24.0834 193.121 24.0834H192.858V24.4848H202.741L203.003 20.8015H202.598C202.385 21.689 202.081 22.3818 201.714 22.8793C201.348 23.3784 200.972 23.7027 200.569 23.8473C200.162 23.992 199.646 24.0598 199.017 24.0598H198.134C197.333 24.0598 196.837 23.9291 196.654 23.6821C196.471 23.435 196.391 22.6061 196.391 21.2029V18.3932H197.68C198.19 18.3932 198.563 18.4435 198.778 18.5112C198.992 18.5782 199.145 18.7123 199.256 18.9362C199.367 19.1618 199.423 19.6006 199.423 20.2584H199.829V16.2209H199.423C199.423 16.8019 199.377 17.2015 199.303 17.4015C199.23 17.6023 199.08 17.7509 198.85 17.8501C198.619 17.9493 198.211 17.9918 197.632 17.9918H196.391V13.0334H198.038C198.869 13.0334 199.453 13.085 199.829 13.1751C200.203 13.266 200.535 13.4672 200.807 13.8126C201.078 14.1589 201.312 14.7579 201.5 15.5834H201.905L201.619 12.6321H193.073ZM117.687 12.6557V13.0571C118.333 13.0571 118.741 13.1111 118.928 13.1987C119.115 13.2863 119.248 13.4808 119.334 13.789C119.42 14.0972 119.477 14.6972 119.477 15.6071V21.9112C119.477 22.6277 119.437 23.0645 119.381 23.2571C119.326 23.4488 119.155 23.6332 118.856 23.8001C118.558 23.967 118.135 24.0657 117.567 24.1071V24.5084H122.007V24.1071C121.374 24.1071 120.916 24.0283 120.599 23.8473C120.282 23.6672 120.071 23.4736 120.002 23.2571C119.934 23.0414 119.907 22.593 119.907 21.9112V13.6709L128.429 24.7918H128.787V14.9696C128.787 14.4622 128.828 14.1203 128.906 13.9071C128.985 13.6947 129.168 13.4916 129.455 13.3404C129.744 13.1892 130.148 13.0984 130.649 13.0571V12.6557H126.328V13.0571C126.799 13.0571 127.187 13.1236 127.522 13.2459C127.858 13.3683 128.081 13.5327 128.19 13.7418C128.299 13.9525 128.357 14.3276 128.357 14.8515V21.9348L121.267 12.6557H117.687ZM68.6545 12.8682C70.1141 12.8682 71.2287 13.3731 71.9965 14.3557C72.7643 15.3382 73.1423 16.7384 73.1423 18.5821C73.1423 20.4778 72.7513 21.8987 71.9726 22.8557C71.1923 23.8126 70.1404 24.2959 68.7977 24.2959C67.2662 24.2959 66.1255 23.8126 65.3602 22.8557C64.5949 21.8987 64.2144 20.4894 64.2144 18.5821C64.2144 16.7037 64.5949 15.2679 65.3602 14.3084C66.1255 13.349 67.2166 12.8682 68.6545 12.8682ZM252.704 12.8682C254.164 12.8682 255.278 13.3731 256.046 14.3557C256.815 15.3382 257.192 16.7384 257.192 18.5821C257.192 20.4778 256.801 21.8987 256.022 22.8557C255.242 23.8126 254.189 24.2959 252.847 24.2959C251.316 24.2959 250.151 23.8126 249.386 22.8557C248.621 21.8987 248.24 20.4894 248.24 18.5821C248.24 16.7037 248.621 15.2679 249.386 14.3084C250.151 13.349 251.266 12.8682 252.704 12.8682ZM81.1393 12.939C82.5338 12.939 83.4446 13.1929 83.8606 13.6946C84.2759 14.1962 84.4813 14.8677 84.4813 15.7015C84.4813 16.1808 84.4123 16.5784 84.2903 16.9057C84.1675 17.2321 84.0013 17.5076 83.789 17.7084C83.5768 17.9101 83.2969 18.0529 82.9535 18.1571C82.611 18.262 82.2015 18.322 81.7361 18.3459C81.2707 18.3691 80.8354 18.3824 80.3993 18.3932V12.9626C80.6783 12.9386 80.9237 12.939 81.1393 12.939ZM174.501 14.6626L176.602 19.6682H172.424L174.501 14.6626ZM109.308 14.6862L111.408 19.7154H107.207L109.308 14.6862ZM213.22 15.9376C214.439 17.5127 215.903 19.5598 217.589 22.1001C216.639 23.1934 215.604 23.7529 214.486 23.7529C213.479 23.7529 212.561 23.3228 211.764 22.4543C210.967 21.5866 210.571 20.6441 210.571 19.6682C210.571 19.0352 210.801 18.3869 211.263 17.7084C211.723 17.03 212.38 16.445 213.22 15.9376ZM261.56 22.2418C261.2 22.2418 260.886 22.365 260.629 22.6196C260.371 22.8741 260.247 23.185 260.247 23.5404C260.247 23.8891 260.376 24.1984 260.629 24.4612C260.882 24.724 261.194 24.839 261.56 24.839C261.92 24.839 262.23 24.7149 262.491 24.4612C262.753 24.2059 262.873 23.904 262.873 23.5404C262.873 23.185 262.748 22.8741 262.491 22.6196C262.232 22.365 261.929 22.2418 261.56 22.2418Z" fill="white"/>
</svg>
