<?xml version="1.0" encoding="utf-8"?>
<!-- Generator: Adobe Illustrator 24.2.1, SVG Export Plug-In . SVG Version: 6.00 Build 0)  -->
<svg version="1.1" id="Layer_1" xmlns="http://www.w3.org/2000/svg" xmlns:xlink="http://www.w3.org/1999/xlink" x="0px" y="0px"
	 viewBox="0 0 24 24" style="enable-background:new 0 0 24 24;" xml:space="preserve">
<style type="text/css">
	.st0{fill:#FFFFFF;}
</style>
<path class="st0" d="M17,1c0-0.6-0.4-1-1-1s-1,0.4-1,1v2c0,0.6,0.4,1,1,1c0.6,0,1-0.4,1-1V1z M5,3c0,0.6-0.4,1-1,1S3,3.6,3,3V1
	c0-0.6,0.4-1,1-1s1,0.4,1,1V3z M18,8v10H2V8H18z M20,2h-2v1c0,1.1-0.9,2-2,2s-2-0.9-2-2V2H6v1c0,1.1-0.9,2-2,2S2,4.1,2,3V2H0v18h20
	V2z M24,5v19H2v-2h20V5H24z M7,12H5v-2h2V12z M11,12H9v-2h2V12z M15,12h-2v-2h2V12z M7,16H5v-2h2V16z M11,16H9v-2h2V16z M15,16h-2
	v-2h2V16z"/>
</svg>
