<?xml version="1.0" encoding="utf-8"?>
<!-- Generator: Adobe Illustrator 24.2.1, SVG Export Plug-In . SVG Version: 6.00 Build 0)  -->
<svg version="1.1" id="Layer_1" xmlns="http://www.w3.org/2000/svg" xmlns:xlink="http://www.w3.org/1999/xlink" x="0px" y="0px"
	 viewBox="0 0 24 24" style="enable-background:new 0 0 24 24;" xml:space="preserve">
<style type="text/css">
	.st0{fill:#000000!important;}
</style>
<path class="st0" d="M19,0H5C2.2,0,0,2.2,0,5v14c0,2.8,2.2,5,5,5h14c2.8,0,5-2.2,5-5V5C24,2.2,21.8,0,19,0z M16,7h-1.9
	C13.5,7,13,7.3,13,7.9V9h3l-0.2,3H13v8h-3v-8H8V9h2V7.1c0-2,1.1-3.1,3.5-3.1H16V7z"/>
</svg>
