<?xml version="1.0" encoding="utf-8"?>
<!-- Generator: Adobe Illustrator 24.2.1, SVG Export Plug-In . SVG Version: 6.00 Build 0)  -->
<svg version="1.1" id="Layer_1" xmlns="http://www.w3.org/2000/svg" xmlns:xlink="http://www.w3.org/1999/xlink" x="0px" y="0px"
	 viewBox="0 0 24 24" style="enable-background:new 0 0 24 24;" xml:space="preserve">
<style type="text/css">
	.st0{fill-rule:evenodd;clip-rule:evenodd;fill:#000000!important;}
</style>
<path class="st0" d="M19,24H5c-2.8,0-5-2.2-5-5V5c0-2.8,2.2-5,5-5h14c2.8,0,5,2.2,5,5v14C24,21.8,21.8,24,19,24z M20,18.4v-0.3
	l-1.2-1.2c-0.1-0.1-0.2-0.2-0.1-0.4v-9c0-0.1,0-0.3,0.1-0.4L20,5.9V5.6h-4.4l-3.2,7.9L8.8,5.6H4.2v0.3l1.5,1.8
	C5.8,7.9,5.9,8,5.9,8.2v7.1c0,0.3,0,0.5-0.2,0.7l-1.7,2v0.3h4.8v-0.3l-1.7-2c-0.2-0.2-0.3-0.4-0.2-0.7V9.2l4.2,9.1h0.5l3.6-9.1v7.3
	c0,0.2,0,0.2-0.1,0.4l-1.3,1.3v0.3C13.7,18.4,20,18.4,20,18.4z"/>
</svg>
