<svg width="1350" height="272" viewBox="0 0 1350 272" fill="none" xmlns="http://www.w3.org/2000/svg">
<rect width="1350" height="272" fill="black" fill-opacity="0" transform="translate(0.000488281)"/>
<rect width="1090.14" height="272" fill="black" fill-opacity="0" transform="translate(129.247)"/>
<path fill-rule="evenodd" clip-rule="evenodd" d="M579.538 17.6162H770.506V82.0977H1132.71V70.0518H1219.39V271.999H1213.75H1132.71H720.474V193.077C720.474 168.559 700.598 148.683 676.079 148.683C651.561 148.683 631.684 168.559 631.684 193.077V271.999H215.922H156.024H129.247V70.0518H215.922V82.0977H579.538V17.6162ZM646.483 53.2017C646.483 53.3198 646.479 53.437 646.472 53.5532H646.482V83.1489H635.912V53.5532H635.925C635.917 53.437 635.913 53.3198 635.913 53.2017C635.913 50.2827 638.279 47.9165 641.198 47.9165C644.117 47.9165 646.483 50.2827 646.483 53.2017ZM659.859 53.5532C659.867 53.437 659.871 53.3193 659.871 53.2012C659.871 50.2822 657.505 47.916 654.586 47.916C651.667 47.916 649.301 50.2822 649.301 53.2012C649.301 53.3193 649.305 53.437 649.312 53.5532H649.301V83.1489H659.871V53.5532H659.859ZM673.26 53.2012C673.26 53.3193 673.256 53.437 673.249 53.5532H673.26V83.1489H662.69V53.5532H662.702C662.694 53.437 662.69 53.3193 662.69 53.2012C662.69 50.2822 665.056 47.916 667.975 47.916C670.894 47.916 673.26 50.2822 673.26 53.2012ZM686.637 53.5532C686.645 53.437 686.649 53.3193 686.649 53.2012C686.649 50.2822 684.283 47.916 681.364 47.916C678.445 47.916 676.079 50.2822 676.079 53.2012C676.079 53.3193 676.083 53.437 676.09 53.5532H676.079V83.1489H686.649V53.5532H686.637ZM700.039 53.2012C700.039 53.3193 700.035 53.437 700.027 53.5532H700.039V83.1489H689.468V53.5532H689.48C689.472 53.437 689.468 53.3193 689.468 53.2012C689.468 50.2822 691.834 47.916 694.753 47.916C697.672 47.916 700.039 50.2822 700.039 53.2012ZM713.416 53.5532C713.423 53.437 713.427 53.3193 713.427 53.2012C713.427 50.2822 711.061 47.916 708.142 47.916C705.223 47.916 702.857 50.2822 702.857 53.2012C702.857 53.3193 702.861 53.437 702.869 53.5532H702.857V83.1489H713.427V53.5532H713.416ZM215.909 115.564C215.918 115.448 215.922 115.331 215.922 115.212C215.922 112.683 213.872 110.632 211.342 110.632C208.812 110.632 206.762 112.683 206.762 115.212C206.762 115.331 206.766 115.448 206.775 115.564H206.761V137.409H215.921V115.564H215.909ZM229.31 115.212C229.31 115.331 229.306 115.448 229.297 115.564H229.31V137.409H220.149V115.564H220.163C220.154 115.448 220.149 115.331 220.149 115.212C220.149 112.683 222.2 110.632 224.73 110.632C227.26 110.632 229.31 112.683 229.31 115.212ZM271.579 115.564C271.588 115.448 271.592 115.331 271.592 115.212C271.592 112.683 269.542 110.632 267.012 110.632C264.482 110.632 262.432 112.683 262.432 115.212C262.432 115.331 262.436 115.448 262.445 115.564H262.432V137.409H271.592V115.564H271.579ZM284.981 115.212C284.981 115.331 284.977 115.448 284.968 115.564H284.98V137.409H275.82V115.564H275.833C275.825 115.448 275.82 115.331 275.82 115.212C275.82 112.683 277.871 110.632 280.401 110.632C282.931 110.632 284.981 112.683 284.981 115.212ZM327.248 115.564C327.257 115.448 327.261 115.331 327.261 115.212C327.261 112.683 325.211 110.632 322.681 110.632C320.151 110.632 318.101 112.683 318.101 115.212C318.101 115.331 318.105 115.448 318.114 115.564H318.101V137.409H327.261V115.564H327.248ZM340.65 115.212C340.65 115.331 340.646 115.448 340.637 115.564H340.649V137.409H331.489V115.564H331.502C331.494 115.448 331.489 115.331 331.489 115.212C331.489 112.683 333.54 110.632 336.07 110.632C338.6 110.632 340.65 112.683 340.65 115.212ZM382.919 115.564C382.928 115.448 382.932 115.331 382.932 115.212C382.932 112.683 380.882 110.632 378.352 110.632C375.822 110.632 373.771 112.683 373.771 115.212C373.771 115.331 373.776 115.448 373.785 115.564H373.771V137.409H382.932V115.564H382.919ZM396.319 115.212C396.319 115.331 396.315 115.448 396.306 115.564H396.32V137.409H387.16V115.564H387.172C387.163 115.448 387.159 115.331 387.159 115.212C387.159 112.683 389.209 110.632 391.739 110.632C394.269 110.632 396.319 112.683 396.319 115.212ZM438.587 115.564C438.596 115.448 438.6 115.331 438.6 115.212C438.6 112.683 436.55 110.632 434.02 110.632C431.49 110.632 429.439 112.683 429.439 115.212C429.439 115.331 429.444 115.448 429.453 115.564H429.439V137.409H438.6V115.564H438.587ZM451.99 115.212C451.99 115.331 451.985 115.448 451.977 115.564H451.99V137.409H442.829V115.564H442.842C442.833 115.448 442.829 115.331 442.829 115.212C442.829 112.683 444.88 110.632 447.41 110.632C449.939 110.632 451.99 112.683 451.99 115.212ZM494.258 115.564C494.267 115.448 494.271 115.331 494.271 115.212C494.271 112.683 492.221 110.632 489.691 110.632C487.161 110.632 485.11 112.683 485.11 115.212C485.11 115.331 485.115 115.448 485.124 115.564H485.11V137.409H494.271V115.564H494.258ZM507.659 115.212C507.659 115.331 507.655 115.448 507.646 115.564H507.66V137.409H498.499V115.564H498.512C498.503 115.448 498.499 115.331 498.499 115.212C498.499 112.683 500.549 110.632 503.079 110.632C505.609 110.632 507.659 112.683 507.659 115.212ZM549.928 115.564C549.937 115.448 549.941 115.331 549.941 115.212C549.941 112.683 547.891 110.632 545.361 110.632C542.831 110.632 540.78 112.683 540.78 115.212C540.78 115.331 540.785 115.448 540.793 115.564H540.78V137.409H549.941V115.564H549.928ZM563.329 115.212C563.329 115.331 563.325 115.448 563.316 115.564H563.329V137.409H554.168V115.564H554.182C554.173 115.448 554.168 115.331 554.168 115.212C554.168 112.683 556.219 110.632 558.749 110.632C561.279 110.632 563.329 112.683 563.329 115.212ZM800.793 115.564C800.802 115.448 800.807 115.331 800.807 115.212C800.807 112.683 798.756 110.632 796.227 110.632C793.697 110.632 791.646 112.683 791.646 115.212C791.646 115.331 791.65 115.448 791.659 115.564H791.646V137.409H800.806V115.564H800.793ZM814.196 115.212C814.196 115.331 814.191 115.448 814.183 115.564H814.196V137.409H805.036V115.564H805.048C805.04 115.448 805.035 115.331 805.035 115.212C805.035 112.683 807.086 110.632 809.616 110.632C812.146 110.632 814.196 112.683 814.196 115.212ZM856.462 115.564C856.471 115.448 856.475 115.331 856.475 115.212C856.475 112.683 854.425 110.632 851.895 110.632C849.365 110.632 847.314 112.683 847.314 115.212C847.314 115.331 847.319 115.448 847.328 115.564H847.314V137.409H856.475V115.564H856.462ZM869.865 115.212C869.865 115.331 869.861 115.448 869.852 115.564H869.865V137.409H860.705V115.564H860.718C860.709 115.448 860.705 115.331 860.705 115.212C860.705 112.683 862.755 110.632 865.285 110.632C867.815 110.632 869.865 112.683 869.865 115.212ZM912.133 115.564C912.142 115.448 912.146 115.331 912.146 115.212C912.146 112.683 910.096 110.632 907.566 110.632C905.036 110.632 902.985 112.683 902.985 115.212C902.985 115.331 902.99 115.448 902.999 115.564H902.985V137.409H912.146V115.564H912.133ZM925.535 115.212C925.535 115.331 925.53 115.448 925.521 115.564H925.534V137.409H916.374V115.564H916.387C916.378 115.448 916.374 115.331 916.374 115.212C916.374 112.683 918.425 110.632 920.955 110.632C923.484 110.632 925.535 112.683 925.535 115.212ZM967.802 115.564C967.811 115.448 967.815 115.331 967.815 115.212C967.815 112.683 965.765 110.632 963.235 110.632C960.705 110.632 958.654 112.683 958.654 115.212C958.654 115.331 958.659 115.448 958.667 115.564H958.654V137.409H967.815V115.564H967.802ZM981.206 115.212C981.206 115.331 981.202 115.448 981.193 115.564H981.205V137.409H972.044V115.564H972.059C972.05 115.448 972.045 115.331 972.045 115.212C972.045 112.683 974.096 110.632 976.626 110.632C979.156 110.632 981.206 112.683 981.206 115.212ZM1023.47 115.564C1023.48 115.448 1023.48 115.331 1023.48 115.212C1023.48 112.683 1021.43 110.632 1018.9 110.632C1016.38 110.632 1014.32 112.683 1014.32 115.212C1014.32 115.331 1014.33 115.448 1014.34 115.564H1014.32V137.409H1023.48V115.564H1023.47ZM1036.87 115.212C1036.87 115.331 1036.87 115.448 1036.86 115.564H1036.87V137.409H1027.71V115.564H1027.73C1027.72 115.448 1027.71 115.331 1027.71 115.212C1027.71 112.683 1029.76 110.632 1032.29 110.632C1034.82 110.632 1036.87 112.683 1036.87 115.212ZM1079.14 115.564C1079.15 115.448 1079.15 115.331 1079.15 115.212C1079.15 112.683 1077.1 110.632 1074.57 110.632C1072.04 110.632 1069.99 112.683 1069.99 115.212C1069.99 115.331 1070 115.448 1070.01 115.564H1069.99V137.409H1079.15V115.564H1079.14ZM1092.54 115.212C1092.54 115.331 1092.54 115.448 1092.53 115.564H1092.54V137.409H1083.38V115.564H1083.4C1083.39 115.448 1083.38 115.331 1083.38 115.212C1083.38 112.683 1085.43 110.632 1087.96 110.632C1090.49 110.632 1092.54 112.683 1092.54 115.212ZM1134.81 115.564C1134.82 115.448 1134.83 115.331 1134.83 115.212C1134.83 112.683 1132.77 110.632 1130.25 110.632C1127.72 110.632 1125.66 112.683 1125.66 115.212C1125.66 115.331 1125.67 115.448 1125.68 115.564H1125.66V137.409H1134.82V115.564H1134.81ZM1148.21 115.212C1148.21 115.331 1148.21 115.448 1148.2 115.564H1148.21V137.409H1139.05V115.564H1139.07C1139.06 115.448 1139.05 115.331 1139.05 115.212C1139.05 112.683 1141.1 110.632 1143.63 110.632C1146.16 110.632 1148.21 112.683 1148.21 115.212ZM171.527 144.456C171.527 140.175 168.057 136.705 163.776 136.705C159.495 136.705 156.024 140.175 156.024 144.456V181.803H171.527V144.456ZM1191.9 136.705C1196.19 136.705 1199.66 140.175 1199.66 144.456L1199.66 181.803H1184.15V144.544L1184.15 144.456C1184.15 140.175 1187.62 136.705 1191.9 136.705Z" fill="#D1D2E9"/>
<rect width="960.476" height="46.5077" fill="black" fill-opacity="0" transform="translate(195.486 69.0566)"/>
<path fill-rule="evenodd" clip-rule="evenodd" d="M251.146 76.1035C251.152 75.9868 251.156 75.8696 251.156 75.7515C251.156 72.0542 248.158 69.0571 244.461 69.0571C240.764 69.0571 237.767 72.0542 237.767 75.7515C237.767 75.8696 237.77 75.9868 237.776 76.1035H237.767V79.627H195.486V97.9482H237.767V115.564H251.156V97.9482H294.846V115.564H308.235V97.9482H350.516V115.564H363.905V97.9482H406.185V115.564H419.574V97.9482H461.854V115.564H475.244V97.9482H517.525V115.564H530.914V97.9482H587.289V79.627H530.914V76.1035H530.905C530.911 75.9868 530.914 75.8696 530.914 75.7515C530.914 72.0542 527.917 69.0571 524.219 69.0571C520.522 69.0571 517.525 72.0542 517.525 75.7515C517.525 75.8696 517.528 75.9868 517.534 76.1035H517.525V79.627H475.244V76.1035H475.234C475.24 75.9868 475.244 75.8696 475.244 75.7515C475.244 72.0542 472.246 69.0571 468.549 69.0571C464.852 69.0571 461.854 72.0542 461.854 75.7515C461.854 75.8696 461.858 75.9868 461.864 76.1035H461.854V79.627H419.574V76.1035H419.565C419.571 75.9868 419.574 75.8696 419.574 75.7515C419.574 72.0542 416.577 69.0571 412.879 69.0571C409.182 69.0571 406.185 72.0542 406.185 75.7515C406.185 75.8696 406.188 75.9868 406.194 76.1035H406.185V79.627H363.905V76.1035H363.896C363.902 75.9868 363.905 75.8696 363.905 75.7515C363.905 72.0542 360.908 69.0571 357.21 69.0571C353.513 69.0571 350.516 72.0542 350.516 75.7515C350.516 75.8696 350.52 75.9868 350.525 76.1035H350.516V79.627H308.235V76.1035H308.226C308.232 75.9868 308.235 75.8696 308.235 75.7515C308.235 72.0542 305.238 69.0571 301.541 69.0571C297.843 69.0571 294.846 72.0542 294.846 75.7515C294.846 75.8696 294.85 75.9868 294.855 76.1035H294.846V79.627H251.156V76.1035H251.146Z" fill="#9FA5C3"/>
<path fill-rule="evenodd" clip-rule="evenodd" d="M1100.3 76.103C1100.3 75.9863 1100.29 75.8691 1100.29 75.751C1100.29 72.0537 1103.29 69.0566 1106.99 69.0566C1110.69 69.0566 1113.68 72.0537 1113.68 75.751C1113.68 75.8691 1113.68 75.9863 1113.67 76.103H1113.68V79.6265H1155.96V97.9478H1113.68V115.564H1100.29V97.9478H1056.6V115.564H1043.21V97.9478H1000.93V115.564H987.544V97.9478H945.263V115.564H931.874V97.9478H889.594V115.564H876.205V97.9478H833.924V115.564H820.535V97.9478H764.161V79.6265H820.535V76.103H820.544C820.538 75.9863 820.535 75.8691 820.535 75.751C820.535 72.0537 823.532 69.0566 827.229 69.0566C830.927 69.0566 833.924 72.0537 833.924 75.751C833.924 75.8691 833.92 75.9863 833.915 76.103H833.924V79.6265H876.205V76.103H876.214C876.208 75.9863 876.205 75.8691 876.205 75.751C876.205 72.0537 879.202 69.0566 882.899 69.0566C886.597 69.0566 889.594 72.0537 889.594 75.751C889.594 75.8691 889.59 75.9863 889.584 76.103H889.594V79.6265H931.874V76.103H931.883C931.877 75.9863 931.874 75.8691 931.874 75.751C931.874 72.0537 934.872 69.0566 938.569 69.0566C942.266 69.0566 945.263 72.0537 945.263 75.751C945.263 75.8691 945.26 75.9863 945.254 76.103H945.263V79.6265H987.544V76.103H987.554C987.548 75.9863 987.544 75.8691 987.544 75.751C987.544 72.0537 990.542 69.0566 994.239 69.0566C997.937 69.0566 1000.93 72.0537 1000.93 75.751C1000.93 75.8691 1000.93 75.9863 1000.92 76.103H1000.93V79.6265H1043.21V76.103H1043.22C1043.22 75.9863 1043.21 75.8691 1043.21 75.751C1043.21 72.0537 1046.21 69.0566 1049.91 69.0566C1053.61 69.0566 1056.6 72.0537 1056.6 75.751C1056.6 75.8691 1056.6 75.9863 1056.59 76.103H1056.6V79.6265H1100.29V76.103H1100.3Z" fill="#9FA5C3"/>
<rect width="1090.01" height="76.4905" fill="black" fill-opacity="0" transform="translate(129.247 195.383)"/>
<rect x="164.87" y="195.573" width="439.83" height="76.1734" fill="#9FA5C3"/>
<rect x="748.188" y="195.383" width="439.385" height="76.4901" fill="#9FA5C3"/>
<path fill-rule="evenodd" clip-rule="evenodd" d="M632.005 195.383H129.247V271.874H194.028V237.326H194.033C194.031 237.206 194.03 237.086 194.03 236.966C194.03 225.239 203.33 215.733 214.802 215.733C226.274 215.733 235.574 225.239 235.574 236.966V237.026C235.574 237.126 235.574 237.226 235.573 237.326V271.874L250.359 271.873V237.326H250.365C250.363 237.206 250.362 237.086 250.362 236.966C250.362 225.239 259.662 215.733 271.134 215.733C282.606 215.733 291.907 225.239 291.907 236.966C291.907 237.086 291.906 237.206 291.904 237.326V271.873H306.778V237.415H306.783C306.78 237.266 306.778 237.116 306.778 236.966C306.778 225.239 316.078 215.733 327.55 215.733C339.022 215.733 348.323 225.239 348.323 236.966C348.323 237.116 348.321 237.266 348.318 237.415H348.322V271.873H363.021V237.326H363.025C363.023 237.206 363.022 237.086 363.022 236.966C363.022 225.239 372.322 215.733 383.794 215.733C395.267 215.733 404.567 225.239 404.567 236.966V237.026C404.567 237.126 404.567 237.226 404.565 237.326V271.873H419.354V237.326H419.358C419.356 237.206 419.355 237.086 419.355 236.966C419.355 225.239 428.655 215.733 440.127 215.733C451.599 215.733 460.899 225.239 460.899 236.966V237.026C460.899 237.126 460.899 237.226 460.898 237.326V271.873H475.685V237.326H475.689C475.688 237.206 475.687 237.086 475.687 236.966C475.687 225.239 484.986 215.733 496.458 215.733C507.931 215.733 517.231 225.239 517.231 236.966V237.026C517.231 237.126 517.231 237.226 517.229 237.326V271.873H532.271V237.415H532.276C532.273 237.266 532.271 237.116 532.271 236.966C532.271 225.239 541.571 215.733 553.043 215.733C564.516 215.733 573.816 225.239 573.816 236.966C573.816 237.116 573.814 237.266 573.812 237.415H573.815V271.873H632.005V195.383ZM720.727 271.873H776.354V237.326H776.358C776.356 237.206 776.355 237.086 776.355 236.966C776.355 225.239 785.655 215.733 797.127 215.733C808.6 215.733 817.9 225.239 817.9 236.966V237.056C817.9 237.146 817.9 237.236 817.899 237.326V271.873H832.685V237.326H832.69C832.688 237.206 832.687 237.086 832.687 236.966C832.687 225.239 841.987 215.733 853.459 215.733C864.931 215.733 874.231 225.239 874.231 236.966C874.231 237.086 874.231 237.206 874.229 237.326V271.873H889.565V237.415H889.571C889.568 237.266 889.566 237.116 889.566 236.966C889.566 225.239 898.866 215.733 910.338 215.733C921.811 215.733 931.111 225.239 931.111 236.966L931.111 237.094V237.148C931.111 237.237 931.111 237.326 931.11 237.415V271.873H945.348V237.326H945.353C945.351 237.206 945.35 237.086 945.35 236.966C945.35 225.239 954.649 215.733 966.122 215.733C977.594 215.733 986.894 225.239 986.894 236.966V237.026C986.894 237.126 986.894 237.226 986.893 237.326V271.873H1001.68V237.326H1001.69C1001.68 237.206 1001.68 237.086 1001.68 236.966C1001.68 225.239 1010.98 215.733 1022.45 215.733C1033.93 215.733 1043.23 225.239 1043.23 236.966C1043.23 237.086 1043.23 237.206 1043.22 237.326V271.873H1058.01V237.326H1058.02C1058.01 237.206 1058.01 237.086 1058.01 236.966C1058.01 225.239 1067.31 215.733 1078.78 215.733C1090.26 215.733 1099.56 225.239 1099.56 236.966C1099.56 237.086 1099.56 237.206 1099.55 237.326V271.873H1114.34V237.326L1114.34 237.125V237.074L1114.34 236.966C1114.34 225.239 1123.64 215.733 1135.11 215.733C1146.59 215.733 1155.89 225.239 1155.89 236.966L1155.89 237.095L1155.89 237.133L1155.89 237.326V271.873L1219.26 271.874V195.383H720.727V271.873Z" fill="#EFF0F8"/>
<path fill-rule="evenodd" clip-rule="evenodd" d="M194.028 271.874H184.874V236.786H184.882C184.877 236.553 184.874 236.319 184.874 236.084C184.874 219.032 198.272 205.208 214.8 205.208C227.77 205.208 238.812 213.72 242.966 225.626C247.119 213.72 258.162 205.208 271.132 205.208C284.102 205.208 295.144 213.72 299.297 225.626C303.451 213.72 314.494 205.208 327.463 205.208C340.432 205.208 351.475 213.72 355.628 225.625C359.782 213.72 370.825 205.208 383.794 205.208C396.764 205.208 407.807 213.721 411.96 225.627C416.113 213.721 427.156 205.208 440.126 205.208C453.095 205.208 464.138 213.72 468.292 225.625C472.445 213.72 483.488 205.208 496.457 205.208C509.427 205.208 520.47 213.721 524.623 225.627C528.776 213.721 539.819 205.208 552.79 205.208C569.317 205.208 582.715 219.032 582.715 236.084C582.715 236.319 582.712 236.553 582.708 236.786H582.715V271.874H573.815V237.416H573.812C573.814 237.267 573.816 237.117 573.816 236.966C573.816 225.24 564.516 215.734 553.043 215.734C541.571 215.734 532.271 225.24 532.271 236.966C532.271 237.117 532.273 237.267 532.276 237.416H532.271V271.874H526.383H522.863H517.229V237.326C517.231 237.227 517.231 237.126 517.231 237.026V236.966C517.231 225.24 507.931 215.734 496.458 215.734C484.986 215.734 475.687 225.24 475.687 236.966C475.687 237.086 475.688 237.207 475.689 237.326H475.685V271.874H470.052H466.531H460.898V237.326C460.899 237.227 460.899 237.126 460.899 237.026V236.966C460.899 225.24 451.599 215.734 440.127 215.734C428.655 215.734 419.355 225.24 419.355 236.966C419.355 237.086 419.356 237.207 419.358 237.326H419.354V271.874H413.72H410.2H404.565V237.326C404.567 237.227 404.567 237.126 404.567 237.026V236.966C404.567 225.24 395.267 215.734 383.794 215.734C372.322 215.734 363.022 225.24 363.022 236.966C363.022 237.086 363.023 237.207 363.025 237.326H363.021V271.874H357.389H353.868H348.322V237.416H348.318C348.321 237.267 348.323 237.117 348.323 236.966C348.323 225.24 339.022 215.734 327.55 215.734C316.078 215.734 306.778 225.24 306.778 236.966C306.778 237.117 306.78 237.267 306.783 237.416H306.778V271.874H301.058H297.537H291.904V237.326C291.906 237.207 291.907 237.086 291.907 236.966C291.907 225.24 282.606 215.734 271.134 215.734C259.662 215.734 250.362 225.24 250.362 236.966C250.362 237.086 250.363 237.207 250.365 237.326H250.359V271.874H244.726H241.206H235.573V237.326C235.574 237.227 235.574 237.126 235.574 237.026V236.966C235.574 225.24 226.274 215.734 214.802 215.734C203.33 215.734 194.03 225.24 194.03 236.966C194.03 237.086 194.031 237.207 194.033 237.326H194.028V271.874Z" fill="#D1D2E9"/>
<path fill-rule="evenodd" clip-rule="evenodd" d="M776.354 271.873H767.2V237.155H767.208C767.203 236.924 767.2 236.692 767.2 236.46C767.2 219.587 780.598 205.909 797.126 205.909C810.096 205.909 821.139 214.332 825.292 226.113C829.445 214.332 840.488 205.909 853.458 205.909C866.428 205.909 877.47 214.332 881.624 226.112C885.777 214.332 896.82 205.909 909.79 205.909C922.759 205.909 933.802 214.332 937.955 226.112C942.108 214.332 953.151 205.909 966.121 205.909C979.09 205.909 990.132 214.331 994.286 226.11C998.44 214.331 1009.48 205.909 1022.45 205.909C1035.42 205.909 1046.46 214.332 1050.62 226.113C1054.77 214.332 1065.81 205.909 1078.78 205.909C1091.75 205.909 1102.79 214.331 1106.95 226.111C1111.1 214.331 1122.14 205.909 1135.11 205.909C1151.64 205.909 1165.04 219.587 1165.04 236.46C1165.04 236.692 1165.04 236.924 1165.03 237.155H1165.04V271.873H1155.89V238.028C1155.89 237.928 1155.89 237.828 1155.89 237.728V237.667C1155.89 225.941 1146.59 216.435 1135.12 216.435C1123.64 216.435 1114.34 225.941 1114.34 237.667C1114.34 237.788 1114.35 237.908 1114.35 238.028H1114.34V271.873H1108.71H1105.19H1099.77V238.118H1099.76C1099.77 237.968 1099.77 237.818 1099.77 237.667C1099.77 225.941 1090.47 216.435 1078.99 216.435C1067.52 216.435 1058.22 225.941 1058.22 237.667L1058.22 237.796V237.85C1058.22 237.939 1058.22 238.029 1058.22 238.118V271.873H1052.38H1048.86H1043.39V238.118H1043.39C1043.39 237.968 1043.39 237.818 1043.39 237.667C1043.39 225.941 1034.09 216.435 1022.62 216.435C1011.15 216.435 1001.85 225.941 1001.85 237.667C1001.85 237.818 1001.85 237.968 1001.85 238.118H1001.85V271.873H996.047H992.525H986.894V238.028C986.895 237.928 986.895 237.828 986.895 237.728V237.667C986.895 225.941 977.595 216.435 966.123 216.435C954.65 216.435 945.351 225.941 945.351 237.667C945.351 237.788 945.352 237.908 945.354 238.028H945.349V271.873H939.715H936.195H930.647V238.118H930.643C930.646 237.968 930.647 237.818 930.647 237.667C930.647 225.941 921.347 216.435 909.875 216.435C898.403 216.435 889.103 225.941 889.103 237.667C889.103 237.818 889.104 237.968 889.107 238.118H889.103V271.873H883.384H879.863H874.23V238.028C874.231 237.928 874.231 237.828 874.231 237.728V237.667C874.231 225.941 864.931 216.435 853.459 216.435C841.987 216.435 832.687 225.941 832.687 237.667C832.687 237.788 832.688 237.908 832.69 238.028H832.686V271.873H827.052H823.532H817.899V238.028C817.9 237.938 817.9 237.849 817.9 237.758V237.668C817.9 225.942 808.6 216.436 797.127 216.436C785.655 216.436 776.355 225.942 776.355 237.668C776.355 237.789 776.356 237.908 776.358 238.028H776.354V271.873Z" fill="#D1D2E9"/>
<rect width="936.52" height="38.7565" fill="black" fill-opacity="0" transform="translate(209.58 160.662)"/>
<rect width="936.52" height="38.7565" fill="black" fill-opacity="0" transform="translate(209.58 160.662)"/>
<rect x="209.58" y="160.662" width="15.503" height="38.7564" fill="#EFF0F8"/>
<rect x="265.25" y="160.662" width="15.503" height="38.7564" fill="#EFF0F8"/>
<rect x="320.92" y="160.662" width="15.503" height="38.7564" fill="#EFF0F8"/>
<rect x="376.59" y="160.662" width="15.503" height="38.7564" fill="#EFF0F8"/>
<rect x="432.259" y="160.662" width="15.503" height="38.7564" fill="#EFF0F8"/>
<rect x="487.929" y="160.662" width="15.503" height="38.7564" fill="#EFF0F8"/>
<rect x="543.599" y="160.662" width="15.503" height="38.7564" fill="#EFF0F8"/>
<rect x="796.579" y="160.662" width="15.503" height="38.7564" fill="#EFF0F8"/>
<rect x="852.249" y="160.662" width="15.503" height="38.7564" fill="#EFF0F8"/>
<rect x="907.918" y="160.662" width="15.503" height="38.7564" fill="#EFF0F8"/>
<rect x="963.588" y="160.662" width="15.503" height="38.7564" fill="#EFF0F8"/>
<rect x="1019.26" y="160.662" width="15.503" height="38.7564" fill="#EFF0F8"/>
<rect x="1074.93" y="160.662" width="15.503" height="38.7564" fill="#EFF0F8"/>
<rect x="1130.6" y="160.662" width="15.503" height="38.7564" fill="#EFF0F8"/>
<rect width="932.29" height="34.5285" fill="black" fill-opacity="0" transform="translate(211.695 162.776)"/>
<rect x="211.695" y="162.776" width="11.2749" height="34.5284" fill="#9FA5C3"/>
<rect x="267.363" y="162.776" width="11.2749" height="34.5284" fill="#9FA5C3"/>
<rect x="323.033" y="162.776" width="11.2749" height="34.5284" fill="#9FA5C3"/>
<rect x="378.705" y="162.776" width="11.2749" height="34.5284" fill="#9FA5C3"/>
<rect x="434.373" y="162.776" width="11.2749" height="34.5284" fill="#9FA5C3"/>
<rect x="490.042" y="162.776" width="11.2749" height="34.5284" fill="#9FA5C3"/>
<rect x="545.712" y="162.776" width="11.2749" height="34.5284" fill="#9FA5C3"/>
<rect x="798.693" y="162.776" width="11.2749" height="34.5284" fill="#9FA5C3"/>
<rect x="854.362" y="162.776" width="11.2749" height="34.5284" fill="#9FA5C3"/>
<rect x="910.032" y="162.776" width="11.2749" height="34.5284" fill="#9FA5C3"/>
<rect x="965.702" y="162.776" width="11.2749" height="34.5284" fill="#9FA5C3"/>
<rect x="1021.37" y="162.776" width="11.2749" height="34.5284" fill="#9FA5C3"/>
<rect x="1077.04" y="162.776" width="11.2749" height="34.5284" fill="#9FA5C3"/>
<rect x="1132.71" y="162.776" width="11.2749" height="34.5284" fill="#9FA5C3"/>
<rect width="104.009" height="130.659" fill="black" fill-opacity="0" transform="translate(622.665 141.34)"/>
<path fill-rule="evenodd" clip-rule="evenodd" d="M726.673 192.279V271.873H713.155V193.93C713.156 193.802 713.155 193.674 713.155 193.546C713.155 172.098 695.751 154.71 674.284 154.71C652.816 154.71 635.413 172.098 635.413 193.546C635.413 193.674 635.411 193.802 635.413 193.93V271.873H622.665L622.665 192.057C622.665 164.047 645.948 141.34 674.669 141.34C703.391 141.34 726.674 164.047 726.674 192.057L726.673 192.279Z" fill="#EFF0F8"/>
<path fill-rule="evenodd" clip-rule="evenodd" d="M720.472 193.817V272H709.903V195.191C709.904 195.074 709.903 194.957 709.903 194.839C709.903 175.186 693.97 159.253 674.316 159.253C654.663 159.253 638.73 175.186 638.73 194.839C638.73 194.957 638.729 195.074 638.73 195.191V272H628.864L628.864 193.601C628.864 168.016 649.372 147.274 674.668 147.274C699.965 147.274 720.473 168.016 720.473 193.601L720.472 193.817Z" fill="#B7BCD4"/>
<rect width="1050.68" height="52.8492" fill="black" fill-opacity="0" transform="translate(152.5 132.476)"/>
<path fill-rule="evenodd" clip-rule="evenodd" d="M175.05 185.325V143.75V143.045H175.029C174.665 137.147 169.766 132.476 163.775 132.476C157.785 132.476 152.886 137.147 152.522 143.045H152.5V143.75V185.325H175.05ZM163.776 136.703C168.057 136.703 171.527 140.173 171.527 144.454V181.802H156.024V144.454C156.024 140.173 159.495 136.703 163.776 136.703Z" fill="#EFF0F8"/>
<path fill-rule="evenodd" clip-rule="evenodd" d="M1203.18 185.325V143.9L1203.18 143.75L1203.18 143.6V143.045H1203.16C1202.79 137.147 1197.9 132.476 1191.9 132.476C1185.91 132.476 1181.02 137.147 1180.65 143.045H1180.63V185.325H1203.18ZM1191.9 136.703C1196.19 136.703 1199.66 140.173 1199.66 144.454V181.802H1184.15V144.454C1184.15 140.173 1187.62 136.703 1191.9 136.703Z" fill="#EFF0F8"/>
<rect width="176.875" height="136.705" fill="black" fill-opacity="0" transform="translate(587.288)"/>
<rect x="587.288" y="133.181" width="176.875" height="3.52331" fill="#EFF0F8"/>
<path fill-rule="evenodd" clip-rule="evenodd" d="M733.862 0H615.476V33.8237H628.864V83.1494H635.912V53.5537H635.923C635.916 53.4375 635.912 53.3203 635.912 53.2021C635.912 50.2832 638.278 47.917 641.197 47.917C644.116 47.917 646.482 50.2832 646.482 53.2021C646.482 53.3203 646.478 53.4375 646.47 53.5537H646.482V83.1494H649.3V53.5537H649.312C649.304 53.4375 649.3 53.3203 649.3 53.2021C649.3 50.2832 651.667 47.917 654.585 47.917C657.504 47.917 659.871 50.2832 659.871 53.2021C659.871 53.3203 659.867 53.4375 659.859 53.5537H659.871V83.1494H662.689V53.5537H662.701C662.693 53.4375 662.689 53.3203 662.689 53.2021C662.689 50.2832 665.056 47.917 667.975 47.917C670.894 47.917 673.26 50.2832 673.26 53.2021C673.26 53.3203 673.256 53.4375 673.248 53.5537H673.26V83.1494H676.078V53.5537H676.09C676.082 53.4375 676.078 53.3203 676.078 53.2021C676.078 50.2832 678.444 47.917 681.363 47.917C684.282 47.917 686.648 50.2832 686.648 53.2021C686.648 53.3203 686.645 53.4375 686.637 53.5537H686.648V83.1494H689.467V53.5537H689.479C689.471 53.4375 689.467 53.3203 689.467 53.2021C689.467 50.2832 691.833 47.917 694.752 47.917C697.671 47.917 700.037 50.2832 700.037 53.2021C700.037 53.3203 700.033 53.4375 700.025 53.5537H700.037V83.1494H702.855V53.5537H702.867C702.859 53.4375 702.855 53.3203 702.855 53.2021C702.855 50.2832 705.222 47.917 708.141 47.917C711.06 47.917 713.426 50.2832 713.426 53.2021C713.426 53.3203 713.422 53.4375 713.414 53.5537H713.426V83.1494H720.473V33.8237H733.862V0Z" fill="#EFF0F8"/>
<path fill-rule="evenodd" clip-rule="evenodd" d="M654.258 111.336C654.809 100.347 663.894 91.606 675.02 91.606C686.146 91.606 695.231 100.347 695.782 111.336H697.922C697.922 105.11 702.97 100.062 709.197 100.062C715.424 100.062 720.472 105.11 720.473 111.336V133.181H675.02H629.569V111.336C629.569 105.11 634.617 100.062 640.844 100.062C647.071 100.062 652.119 105.11 652.119 111.336H654.258Z" fill="#EFF0F8"/>
<rect width="77.5145" height="26.7776" fill="black" fill-opacity="0" transform="translate(635.911 106.404)"/>
<path fill-rule="evenodd" clip-rule="evenodd" d="M672.54 111.336C672.549 111.22 672.553 111.103 672.553 110.984C672.553 108.455 670.503 106.404 667.973 106.404C665.443 106.404 663.393 108.455 663.393 110.984C663.393 111.103 663.397 111.22 663.406 111.336H663.393V133.181H672.553V111.336H672.54Z" fill="#B7BCD4"/>
<path fill-rule="evenodd" clip-rule="evenodd" d="M645.058 111.337C645.067 111.221 645.071 111.103 645.071 110.984C645.071 108.455 643.021 106.404 640.491 106.404C637.961 106.404 635.911 108.455 635.911 110.984C635.911 111.103 635.915 111.221 635.924 111.337H635.911V133.182H645.071V111.337H645.058Z" fill="#B7BCD4"/>
<path fill-rule="evenodd" clip-rule="evenodd" d="M685.931 111.336C685.939 111.22 685.944 111.103 685.944 110.984C685.944 108.455 683.894 106.404 681.364 106.404C678.834 106.404 676.783 108.455 676.783 110.984C676.783 111.103 676.788 111.22 676.796 111.336H676.783V133.181H685.944V111.336H685.931Z" fill="#B7BCD4"/>
<path fill-rule="evenodd" clip-rule="evenodd" d="M713.412 111.336C713.421 111.22 713.425 111.103 713.425 110.984C713.425 108.455 711.375 106.404 708.845 106.404C706.315 106.404 704.265 108.455 704.265 110.984C704.265 111.103 704.269 111.22 704.278 111.336H704.265V133.181H713.425V111.336H713.412Z" fill="#B7BCD4"/>
<rect width="70.4678" height="3.52353" fill="black" fill-opacity="0" transform="translate(639.435 28.8911)"/>
<ellipse cx="641.196" cy="30.6528" rx="1.7617" ry="1.76165" fill="#B7BCD4"/>
<ellipse cx="654.584" cy="30.6528" rx="1.7617" ry="1.76165" fill="#B7BCD4"/>
<ellipse cx="667.974" cy="30.6528" rx="1.7617" ry="1.76165" fill="#B7BCD4"/>
<ellipse cx="681.363" cy="30.6528" rx="1.7617" ry="1.76165" fill="#B7BCD4"/>
<ellipse cx="694.752" cy="30.6528" rx="1.7617" ry="1.76165" fill="#B7BCD4"/>
<ellipse cx="708.141" cy="30.6528" rx="1.7617" ry="1.76165" fill="#B7BCD4"/>
<path fill-rule="evenodd" clip-rule="evenodd" d="M647.186 83.1494L646.481 83.1489V53.5532H646.47C646.478 53.437 646.481 53.3198 646.481 53.2017C646.481 50.2827 644.115 47.9165 641.196 47.9165C638.277 47.9165 635.911 50.2827 635.911 53.2017C635.911 53.3198 635.915 53.437 635.923 53.5532H635.911V83.1489L633.797 83.1494V53.2017V52.8491H633.805C633.989 48.9263 637.228 45.8027 641.196 45.8027C644.153 45.8027 646.706 47.5381 647.89 50.0459C649.074 47.5381 651.627 45.8027 654.584 45.8027C657.542 45.8027 660.094 47.5376 661.279 50.0454C662.463 47.5376 665.015 45.8027 667.973 45.8027C670.931 45.8027 673.483 47.5381 674.667 50.0469C675.852 47.5381 678.404 45.8027 681.362 45.8027C684.32 45.8027 686.873 47.5381 688.057 50.0464C689.241 47.5381 691.793 45.8027 694.751 45.8027C697.709 45.8027 700.261 47.5381 701.446 50.0459C702.63 47.5381 705.183 45.8027 708.14 45.8027C712.108 45.8027 715.347 48.9263 715.531 52.8491H715.54V53.2017V83.1494L713.426 83.1489V53.5532H713.414C713.422 53.437 713.426 53.3193 713.426 53.2012C713.426 50.2822 711.06 47.916 708.141 47.916C705.222 47.916 702.855 50.2822 702.855 53.2012C702.855 53.3193 702.859 53.437 702.867 53.5532H702.855V83.1489L702.151 83.1494H700.741L700.037 83.1489V53.5532H700.025C700.033 53.437 700.037 53.3193 700.037 53.2012C700.037 50.2822 697.67 47.916 694.751 47.916C691.833 47.916 689.466 50.2822 689.466 53.2012C689.466 53.3193 689.47 53.437 689.478 53.5532H689.466V83.1489L688.762 83.1494H687.353L686.647 83.1489V53.5532H686.636C686.644 53.437 686.647 53.3193 686.647 53.2012C686.647 50.2822 684.281 47.916 681.362 47.916C678.443 47.916 676.077 50.2822 676.077 53.2012C676.077 53.3193 676.081 53.437 676.089 53.5532H676.077V83.1489L675.372 83.1494H673.963L673.259 83.1489V53.5532H673.248C673.255 53.437 673.259 53.3193 673.259 53.2012C673.259 50.2822 670.893 47.916 667.974 47.916C665.055 47.916 662.689 50.2822 662.689 53.2012C662.689 53.3193 662.693 53.437 662.701 53.5532H662.689V83.1489L661.984 83.1494H660.574L659.87 83.1489V53.5532H659.858C659.866 53.437 659.87 53.3193 659.87 53.2012C659.87 50.2822 657.503 47.916 654.584 47.916C651.666 47.916 649.299 50.2822 649.299 53.2012C649.299 53.3193 649.303 53.437 649.311 53.5532H649.299V83.1489L648.595 83.1494H647.186Z" fill="#B7BCD4"/>
<rect width="1350" height="161.928" fill="black" fill-opacity="0" transform="translate(0.000488281 110.071)"/>
<path fill-rule="evenodd" clip-rule="evenodd" d="M73.4204 142.871C76.5498 145.126 78.1699 149.903 78.1699 156.053C78.1699 157.284 78.2173 158.484 78.2632 159.634L78.2642 159.662L78.2651 159.686L78.2656 159.703C78.3408 161.584 78.4102 163.326 78.2588 164.843C79.8154 165.975 80.7344 167.824 80.3589 170.637C80.1025 172.56 79.6025 174.032 78.8784 175.132C80.6997 177.752 81.8188 181.307 81.8188 185.222C81.8188 188.772 80.8994 192.024 79.3706 194.553C79.7534 195.335 80.0781 196.337 80.3584 197.619C80.6128 198.783 80.7422 199.88 80.7246 200.887C83.7935 205.255 85.832 211.764 85.832 217.672C85.832 224.027 85.1055 230.639 81.8179 234.652L81.8184 234.809C81.8184 242.058 79.9941 247.935 72.6973 247.935C71.7095 247.935 70.8218 247.827 70.0254 247.623C69.0498 257.422 70.8735 272 70.8735 272H65.0361C65.0361 272 67.2886 253.145 65.8569 245.351C65.5977 245.372 65.3242 245.382 65.0356 245.382C57.7388 245.382 55.5498 238.488 55.5498 230.434C55.5498 228.946 55.6616 227.51 55.8687 226.157C53.877 223.926 52.6318 221.048 52.6318 218.766C52.6318 217.606 52.9536 216.292 53.5312 214.987C51.604 212.069 50.4424 208.298 50.4424 204.181C50.4424 198.139 52.9448 192.842 56.6982 189.89C55.4043 186.473 55.4927 181.595 55.915 176.106C56.5044 168.447 58.3491 162.453 60.5239 160.434L60.5615 159.522C60.6084 158.423 60.6577 157.263 60.6577 156.053C60.6577 149.707 62.5273 144.081 66.1299 142.158V141.263V140.739C66.1299 126.241 68.3462 100.997 70.8726 113.394C73.0825 124.235 73.3804 131.517 73.4204 142.871Z" fill="#D1D2E9"/>
<path fill-rule="evenodd" clip-rule="evenodd" d="M19.6089 265.103H15.4981C16.0303 256.572 16.6548 242.489 15.437 236.876C6.37941 235.871 5.5464 231.665 5.10109 226.852C5.08156 226.641 5.07277 226.429 5.07472 226.217C1.4629 224.804 -0.804674 221.119 0.267592 214.089C0.744154 210.964 2.59181 207.593 4.91749 205.084C4.56691 204.194 4.3716 203.206 4.3716 202.166C4.3716 200.386 4.94337 198.759 5.88869 197.513C1.16945 195.337 0.803724 189.554 1.45314 182.215C1.95997 176.485 4.01076 171.536 6.72316 168.549C6.74318 168.14 6.77589 167.723 6.82179 167.302C7.00538 165.621 7.37892 164.07 7.87745 162.759C7.49904 161.358 7.29005 159.82 7.29005 158.206C7.29005 152.703 9.72169 148.077 13.0156 146.752C12.7422 145.15 12.6924 143.211 12.9956 140.96L13.0962 140.213C14.0049 133.455 14.6587 128.592 16.6441 125.426C18.3628 122.685 19.2466 130.875 19.916 137.393C21.3096 138.661 22.3818 141.606 22.7398 145.111L22.7901 145.601C23.1524 149.113 23.4776 152.264 22.0054 153.578C22.271 154.543 22.4566 155.574 22.5479 156.65C24.3994 157.37 26.0029 158.72 26.3633 161.249C26.603 162.933 26.1904 164.094 25.3643 164.894C26.7778 166.302 27.936 168.226 28.6021 170.483C29.6968 174.194 29.1841 177.868 27.5122 180.254C28.6987 182.108 29.5943 184.126 30.0117 185.951C30.6958 188.943 30.1182 192.383 28.3169 194.777C28.4043 195.309 28.4502 195.857 28.4502 196.418C28.4502 197.203 28.3604 197.964 28.1919 198.689C30.4326 201.513 32.0308 205.513 32.565 209.606C33.3345 215.503 32.4732 220.178 28.0972 221.985C28.3281 223.288 28.4507 224.888 28.4507 226.852C28.4507 231.849 27.3706 236.581 19.8184 237.03C18.6714 244.662 19.1455 257.292 19.6089 265.103Z" fill="#D1D2E9"/>
<path fill-rule="evenodd" clip-rule="evenodd" d="M1280.23 265.104H1276C1276.37 256.672 1276.65 245.262 1275.95 237.247C1267.96 236.821 1264.15 230.361 1265.2 223.05C1265.51 220.828 1266.09 218.685 1266.92 216.766C1264.38 214.63 1262.94 210.735 1262.59 204.387C1262.48 202.225 1262.96 199.935 1263.85 197.672C1260.17 194.781 1259.79 188.637 1260.61 183.058C1261.4 177.73 1263.14 173.699 1265.08 171.369C1264.95 170.402 1265.06 169.338 1265.15 168.378L1265.2 167.949C1265.44 165.399 1267.1 161.906 1269.06 161.474C1269.08 159.903 1269.25 158.39 1269.55 156.965C1268.27 154.471 1268.31 150.463 1268.62 145.844C1269.03 139.863 1271.08 134.452 1273.59 132.447C1273.72 122.809 1275.11 115.217 1276.8 115.217C1277.69 115.217 1278.49 117.27 1279.07 120.595C1280.34 120.949 1281.32 123.313 1281.32 126.178C1281.32 128.293 1280.78 130.135 1279.99 131.097C1280 131.51 1280.01 131.927 1280.02 132.348C1280.41 132.328 1280.84 132.344 1281.32 132.399C1283.25 132.624 1285.19 136.25 1286.09 142.826C1286.34 144.649 1285.91 146.362 1285.11 147.782C1288.03 150.143 1289.49 154.869 1290.34 161.864C1290.74 165.139 1290.46 167.929 1289.71 170.223C1291.27 171.881 1292.39 174.381 1292.95 178.021C1293.39 180.855 1292.7 182.991 1291.34 184.533C1292.52 187.7 1292.93 191.707 1292.93 196.092C1292.93 202.025 1292.3 207.433 1289.91 210.885C1290.19 211.732 1290.35 212.634 1290.35 213.57C1290.35 214.919 1290.03 216.199 1289.46 217.344C1290.03 219.309 1290.37 221.876 1290.78 225.179C1291.47 230.719 1288.35 233.494 1284.65 234.472C1283.51 235.577 1282.07 236.398 1280.3 236.856C1279.67 244.96 1279.91 256.565 1280.23 265.104Z" fill="#D1D2E9"/>
<path fill-rule="evenodd" clip-rule="evenodd" d="M1337.39 265.103H1333.04C1333.37 259.321 1333.62 251.796 1333.26 245.676C1330.86 245.124 1329.49 243.63 1328.71 241.614C1328.05 241.715 1327.3 241.744 1326.42 241.689C1321.16 241.357 1320.21 239.313 1320.21 236.383C1320.21 236.227 1320.22 236.072 1320.24 235.919C1318.25 234.7 1316.61 231.145 1317.11 226.103C1317.45 222.667 1318.31 219.922 1319.45 218.135C1317.32 216.328 1316.16 213.413 1316.49 209.19C1316.86 204.453 1318.99 200.655 1321.57 198.357C1320.71 195.59 1320.21 192.381 1320.21 188.961C1320.21 181.865 1322.33 175.681 1325.47 172.449C1324.02 171.354 1323.64 169.346 1323.64 166.743C1323.64 163.374 1325.1 160.538 1327.08 159.7C1327.05 159.304 1327.04 158.888 1327.04 158.453C1327.04 156.171 1327.81 154.088 1329.08 152.507C1328.22 150.925 1327.96 148.613 1328.28 145.852C1328.86 140.894 1330.18 136.804 1332.44 136.29C1333.12 131.686 1334.53 127.613 1336.35 127.613C1338.29 127.613 1339.45 131.924 1340.07 137.23C1340.41 140.103 1339.99 142.684 1339.16 144.447C1340.8 145.907 1341.93 148.958 1341.93 152.484C1341.93 152.866 1341.92 153.242 1341.89 153.611C1342.7 155.007 1343.17 156.669 1343.17 158.453C1343.17 160.763 1342.94 162.526 1342.4 163.85C1343.08 164.801 1343.66 165.996 1344.1 167.366C1346.16 169.55 1347.52 173.356 1347.52 177.687C1347.52 181.829 1346.27 185.492 1344.36 187.713C1345.17 188.656 1345.66 189.909 1345.66 191.283C1345.66 192.163 1345.46 192.992 1345.1 193.722C1347.08 195.726 1348.37 199.556 1348.76 205.874C1348.97 209.27 1348.63 211.947 1347.94 214.008C1349.21 215.394 1350 217.329 1350 219.47C1350 222.065 1348.84 223.476 1347.07 224.178C1348.14 226.355 1348.76 228.952 1348.76 231.74C1348.76 239.433 1348.76 243.924 1338.21 245.668C1337.86 245.725 1337.53 245.772 1337.21 245.809C1336.91 251.933 1337.12 259.376 1337.39 265.103Z" fill="#D1D2E9"/>
</svg>
