<svg xmlns="http://www.w3.org/2000/svg" viewBox="0 0 514.18 127.4"><defs><style>.cls-1{fill:#006e9a;}.cls-2{fill:#00aeef;}.cls-3{fill:#6d6e71;}</style></defs><title>logotype</title><g id="Layer_2" data-name="Layer 2"><g id="Layer_1-2" data-name="Layer 1"><path class="cls-1" d="M39.1,127.4A32.51,32.51,0,0,1,28.6,119a39,39,0,0,1-7.1-12.4,45,45,0,0,1-2.7-15.2c0-32,26.7-49.4,23.8-81.8a17.82,17.82,0,0,0-.9-5.3A11.36,11.36,0,0,0,39.2,0,32.51,32.51,0,0,1,49.7,8.4a39,39,0,0,1,7.1,12.4A47.58,47.58,0,0,1,59.5,36c0,27.7-25.3,48-25.3,77.7a23.3,23.3,0,0,0,1.3,7.6,28.79,28.79,0,0,0,3.6,6.1"/><polygon class="cls-2" points="124.1 80.8 124.1 60.7 105.4 60.7 105.4 80.8 97.4 80.8 97.4 35.3 105.4 35.3 105.4 54.3 124.1 54.3 124.1 35.3 132 35.3 132 80.8 124.1 80.8"/><path class="cls-2" d="M144.1,67c.4,6.7,3.9,8.3,9.3,8.3a105.62,105.62,0,0,0,12.4-.9l.6,5.6a88.5,88.5,0,0,1-15,1.3c-11.7,0-14.7-7.6-14.7-17.9,0-12.6,3.9-17.9,15.5-17.9,12.6,0,15.2,6.6,15.2,17a20.08,20.08,0,0,1-.1,2.5,165.61,165.61,0,0,1-17.2,1.8Zm6.8-5.3c2.5-.1,6.6-.5,9-.8,0-.5.1-1.1.1-1.7,0-5.3-1.9-8.3-7.7-8.3-7.4,0-8.4,4.6-8.4,10.9Zm20.4,8.8c0-6.1,2.7-9.9,9.4-10.9a94.76,94.76,0,0,1,12.3-.9c0-4.8-2.2-7.2-7.4-7.2a90.35,90.35,0,0,0-12.1.9l-.6-5.5a83.51,83.51,0,0,1,13.5-1.3c7.6,0,14,2,14,10.9V71.9c0,2.3-.1,4.3-.3,6.4-3.9,2.2-9,3-15.6,3-9.6,0-13.2-3.7-13.2-10.8Zm21.5-7c-3,.1-6.6.1-9.5.9-3.6.9-5,1.9-5,6,0,4.3,2.4,5.5,6.9,5.5,2.3,0,5.1-.1,7.2-1.1.1-1.4.3-3,.3-4.7V63.6h.1Zm13.4-31h7.5v39a12.63,12.63,0,0,0,2.5,7.9l-6.5,3c-2.3-2.5-3.6-5.7-3.6-10.5l.1-39.4Zm33.9,48.3a32.57,32.57,0,0,1-5.2.5c-7.1,0-10-3-10-9.5V51.5h-5.8V46h5.8V37.4l7.5-1.3v9.8h7.2v5.5h-7.2V71.1c0,3.3,1.4,4.4,4.7,4.4a24.37,24.37,0,0,0,2.7-.1Zm35.1,0h-7.5V59.3c0-5.6-1-7.9-8.3-7.9a15.92,15.92,0,0,0-6.6,1.4v28h-7.5V32.5h7.5V46.8a28.75,28.75,0,0,1,8.6-1.3c12.3,0,13.6,5.7,13.6,13V80.8Z"/><path class="cls-1" d="M312.5,42a51.07,51.07,0,0,0-9-.8c-12.2,0-12.3,7.1-12.3,16.6,0,9.7.1,16.6,12.3,16.6a53.78,53.78,0,0,0,9-.8l.8,6.1A45.29,45.29,0,0,1,301.9,81c-15,0-18.7-7.1-18.7-23.2s3.7-23.2,18.7-23.2a44.15,44.15,0,0,1,11.4,1.3ZM318,70.5c0-6.1,2.7-9.9,9.4-10.9a94.76,94.76,0,0,1,12.3-.9c0-4.8-2.2-7.2-7.4-7.2a90.35,90.35,0,0,0-12.1.9l-.6-5.5a83.51,83.51,0,0,1,13.5-1.3c7.6,0,14,2,14,10.9V71.9c0,2.3-.1,4.3-.3,6.4-3.9,2.2-9,3-15.6,3-9.5,0-13.2-3.7-13.2-10.8Zm21.7-7c-3,.1-6.6.1-9.5.9-3.6.9-5,1.9-5,6,0,4.3,2.4,5.5,6.9,5.5,2.3,0,5.1-.1,7.2-1.1.1-1.4.3-3,.3-4.7V63.6h.1Zm32,17.3a32.57,32.57,0,0,1-5.2.5c-7.1,0-10-3-10-9.5V51.5h-5.8V46h5.8V37.4l7.5-1.3v9.8h7.2v5.5h-7.4V71.1c0,3.3,1.4,4.4,4.7,4.4a24.37,24.37,0,0,0,2.7-.1Zm5.4-10.3c0-6.1,2.7-9.9,9.4-10.9a94.76,94.76,0,0,1,12.3-.9c0-4.8-2.2-7.2-7.4-7.2a90.35,90.35,0,0,0-12.1.9l-.6-5.5a83.51,83.51,0,0,1,13.5-1.3c7.6,0,14,2,14,10.9V71.9c0,2.3-.1,4.3-.3,6.4-3.9,2.2-9,3-15.6,3-9.6,0-13.2-3.7-13.2-10.8Zm21.7-7c-3,.1-6.6.1-9.5.9-3.6.9-5,1.9-5,6,0,4.3,2.4,5.5,6.9,5.5,2.3,0,5.1-.1,7.2-1.1.1-1.4.3-3,.3-4.7V63.6h.1Zm11.9-31h7.5v39a12.63,12.63,0,0,0,2.5,7.9l-6.5,3c-2.3-2.5-3.6-5.7-3.6-10.5V32.5Z"/><polygon class="cls-1" points="440.8 69.2 448.2 45.9 455.8 45.9 439.6 93.6 432.1 93.6 437.4 78.5 423.4 45.9 431.2 45.9 440.8 69.2"/><path class="cls-1" d="M474.5,71.2c0-3.9-3.6-4.3-6.9-5.3-5.6-1.7-10.9-3.2-10.9-10.7s5.3-9.8,12.3-9.8a47.25,47.25,0,0,1,12.3,1.4l-.8,5.5a47.24,47.24,0,0,0-8.6-.9c-2.8,0-7.9,0-7.9,3.6s4.2,4.3,7.1,5.3c6,2,10.8,3.2,10.8,10.8,0,8-6,10.3-13.6,10.3A55.48,55.48,0,0,1,456.2,80l.8-5.6a57.52,57.52,0,0,0,9.3,1c2.9-.1,8.2,0,8.2-4.2m32.9,9.6a32.57,32.57,0,0,1-5.2.5c-7.1,0-10-3-10-9.5V51.5h-5.8V46h5.8V37.4l7.5-1.3v9.8h7.2v5.5h-7.2V71.1c0,3.3,1.4,4.4,4.7,4.4a24.37,24.37,0,0,0,2.7-.1Z"/><path class="cls-2" d="M63.1,125.6A22.59,22.59,0,0,1,56,120a26.69,26.69,0,0,1-4.8-8.4,31.23,31.23,0,0,1-1.8-10.2C49.4,79.9,69.1,67.7,66,40c3.8,3.4,7,9.5,8.8,14a31.23,31.23,0,0,1,1.8,10.2c0,18.5-16.9,32.1-16.9,52.1a14,14,0,0,0,.9,5.1,12.33,12.33,0,0,0,2.5,4.2M13.7,89.1a22.59,22.59,0,0,1-7.1-5.6,26.69,26.69,0,0,1-4.8-8.4A31.23,31.23,0,0,1,0,64.9C0,43.4,19.7,31.2,16.6,3.5c3.8,3.4,7,9.5,8.8,14a31.23,31.23,0,0,1,1.8,10.2c0,18.5-16.9,32.1-16.9,52.1a14,14,0,0,0,.9,5.1,12.33,12.33,0,0,0,2.5,4.2"/><path class="cls-3" d="M97.3,94.5c0-.9.3-1.1,1-1.1s1,.3,1,1.1-.3,1.1-1,1.1-1-.2-1-1.1Zm.1,3.5h1.7v11.8H97.4Zm5.5,14.6a18.4,18.4,0,0,0,4.1.4c2.5,0,3.2-.8,3.2-2.7v-1a11.94,11.94,0,0,1-3.3.4c-3.4,0-5-1.5-5-6s1.7-6,5.3-6a10.49,10.49,0,0,1,4.4.9c0,.6.1,1.3.1,2v9.9c0,2.9-2,3.6-4.4,3.6-1.7,0-3.2-.3-4.4-.4Zm.6-8.9c0,3.2.6,4.6,3.8,4.6a12.61,12.61,0,0,0,2.8-.5V99.5a6.63,6.63,0,0,0-2.8-.5c-2.9.2-3.8,1.7-3.8,4.7Zm13.4,6.1h-1.7V98.9a13.53,13.53,0,0,1,5.3-1c4.1,0,4.4,1.9,4.4,4.3v7.6h-1.5v-7.4c0-2.2-.4-3.2-3.3-3.2a10.7,10.7,0,0,0-3.2.6v10Zm11.4-15.3c0-.9.3-1.1,1-1.1s1,.3,1,1.1-.3,1.1-1,1.1c-.9,0-1-.2-1-1.1Zm.1,3.5h1.7v11.8h-1.7Zm7.8-3.3V98h2.7v1.3h-2.7v7.4c0,1.7.6,2,2,2h.6l.1,1.3a5.7,5.7,0,0,1-1.3.1c-2.2,0-3-.9-3-3V99.5h-2.2V98.2h2.2V95Zm4.6,9.2c0-4.3,1.3-6.1,5.2-6.1s5.1,2,5.1,5.3v1.1a35.78,35.78,0,0,1-5.8.5l-2.8.1c.3,2.4.9,3.7,3.9,3.7a18.72,18.72,0,0,0,4.2-.4l.1,1.3a22.3,22.3,0,0,1-5,.4c-3.9.2-4.9-2.4-4.9-5.9Zm4.7-.3a17.82,17.82,0,0,0,3.9-.4v-.9c0-2-.9-3.3-3.4-3.3-2.9,0-3.6,1.5-3.6,4.6Zm14.4.3c0-4.4,1.4-6.1,5.2-6.1s5.2,1.7,5.2,6.1-1.4,6.1-5.2,6.1-5.2-1.7-5.2-6.1m8.7,0c0-3.6-.9-4.7-3.6-4.7s-3.6.9-3.6,4.7.9,4.7,3.6,4.7,3.6-1.2,3.6-4.7m4.7-5.9H175v7.4c0,2.2.4,3.2,3.3,3.2a10.7,10.7,0,0,0,3.2-.6V98h1.7v10.9a13.53,13.53,0,0,1-5.3,1c-4.1,0-4.4-1.9-4.4-4.3l-.2-7.6Zm16.1-3.3V98h2.7v1.3h-2.7v7.4c0,1.7.6,2,2,2h.6l.1,1.3a5.7,5.7,0,0,1-1.3.1c-2.2,0-3-.9-3-3V99.5h-2.2V98.2h2.2V95Zm12.3,14.9a9.48,9.48,0,0,1-3,.4c-3.9,0-4.7-2.8-4.7-6.2,0-3.8.9-6,5.1-6a7.66,7.66,0,0,1,2.7.4l-.1,1.3a10.79,10.79,0,0,0-1.9-.3c-3.7,0-4.1,1.3-4.1,4.6,0,3,.3,4.8,4.1,4.8a6.93,6.93,0,0,0,2-.3Zm2.1-5.7c0-4.4,1.4-6.1,5.2-6.1s5.2,1.7,5.2,6.1-1.4,6.1-5.2,6.1-5.2-1.7-5.2-6.1m8.6,0c0-3.6-.9-4.7-3.6-4.7s-3.6.9-3.6,4.7.9,4.7,3.6,4.7,3.6-1.2,3.6-4.7m6.4,5.9h-1.7v-8.9a13.4,13.4,0,0,1,.1-2,14.64,14.64,0,0,1,4.8-1,4.45,4.45,0,0,1,3,.9,9.42,9.42,0,0,1,4.3-.9c3.6,0,4.1,1.9,4.1,4.3v7.6h-1.7v-7.4c0-2.3-.5-3.2-2.9-3.2a7.09,7.09,0,0,0-3,.8,5.11,5.11,0,0,1,.3,2.2v7.6h-1.7v-7.4c0-2.3-.5-3.2-2.9-3.2a13.73,13.73,0,0,0-2.8.5v1.9l.1,8.2Zm17.9-5.9c0-4.3,1.3-6.1,5.2-6.1s5.1,2,5.1,5.3v1.1a35.78,35.78,0,0,1-5.8.5l-2.8.1c.3,2.4.9,3.7,3.9,3.7a18.72,18.72,0,0,0,4.2-.4l.1,1.3a22.3,22.3,0,0,1-5,.4c-3.9.2-4.9-2.4-4.9-5.9Zm4.7-.3a17.82,17.82,0,0,0,3.9-.4v-.9c0-2-.9-3.3-3.4-3.3-2.9,0-3.6,1.5-3.6,4.6Zm9.6-2.8c0,1.5,1.3,1.8,2.9,2.3,2.4.8,3.7,1.4,3.7,3.6,0,2.5-1.9,3.3-4.4,3.3a15,15,0,0,1-3.7-.4l.1-1.3c1,.1,2,.3,3,.3,1.4,0,3.4,0,3.4-1.9,0-1.5-1-1.8-2.9-2.3s-3.7-1-3.7-3.4,1.7-3.2,4.1-3.2a15.29,15.29,0,0,1,3.8.4l-.1,1.3a25.82,25.82,0,0,0-2.9-.3c-1.5,0-3.3.1-3.3,1.6m15.4-6.3c0-.9.3-1.1,1-1.1s1,.3,1,1.1-.3,1.1-1,1.1-1-.2-1-1.1Zm.1,3.5h1.7v11.8h-1.7Zm6.6,11.8h-1.7v-8.9a13.4,13.4,0,0,1,.1-2,14.64,14.64,0,0,1,4.8-1,4.45,4.45,0,0,1,3,.9,9.42,9.42,0,0,1,4.3-.9c3.6,0,4.1,1.9,4.1,4.3v7.6H286v-7.4c0-2.3-.5-3.2-2.9-3.2a7.09,7.09,0,0,0-3,.8,5.11,5.11,0,0,1,.3,2.2v7.6h-1.7v-7.4c0-2.3-.5-3.2-2.9-3.2a13.73,13.73,0,0,0-2.8.5v1.9l.1,8.2Zm19.9,4.4h-1.6V98.8a10.82,10.82,0,0,1,4.4-.9c3.7,0,5.3,1.4,5.3,6.1,0,4.4-1.4,6.1-5,6.1a12.42,12.42,0,0,1-3.3-.4v4.5Zm2.8-5.6c3.3,0,3.8-1.4,3.8-4.7s-.8-4.7-3.7-4.7a6.63,6.63,0,0,0-2.8.5v8.5a10.26,10.26,0,0,0,2.7.4Zm8.5,1.2v-9a13.4,13.4,0,0,1,.1-2,10.82,10.82,0,0,1,4.4-.9h1.1l-.1,1.4h-1a6.63,6.63,0,0,0-2.8.5v10Zm7.2-5.9c0-4.4,1.4-6.1,5.2-6.1s5.2,1.7,5.2,6.1-1.4,6.1-5.2,6.1-5.2-1.7-5.2-6.1m8.8,0c0-3.6-.9-4.7-3.6-4.7s-3.6.9-3.6,4.7.9,4.7,3.6,4.7,3.6-1.2,3.6-4.7m10,4.9c-.3.8-.6,1.1-1.3,1.1s-1-.4-1.3-1.1L323.5,98h1.7l3.7,10,3.8-10h1.7Zm6.1-4.9c0-4.3,1.3-6.1,5.2-6.1s5.1,2,5.1,5.3v1.1a35.78,35.78,0,0,1-5.8.5l-2.8.1c.3,2.4.9,3.7,3.9,3.7a18.72,18.72,0,0,0,4.2-.4l.1,1.3a22.3,22.3,0,0,1-5,.4c-3.9.2-4.9-2.4-4.9-5.9Zm4.6-.3a17.82,17.82,0,0,0,3.9-.4v-.9c0-2-.9-3.3-3.4-3.3-2.9,0-3.6,1.5-3.6,4.6Zm10.1,6.2h-1.7v-8.9a13.4,13.4,0,0,1,.1-2,14.64,14.64,0,0,1,4.8-1,4.45,4.45,0,0,1,3,.9,9.42,9.42,0,0,1,4.3-.9c3.6,0,4.1,1.9,4.1,4.3v7.6H364v-7.4c0-2.3-.5-3.2-2.9-3.2a7.09,7.09,0,0,0-3,.8,5.11,5.11,0,0,1,.3,2.2v7.6h-1.7v-7.4c0-2.3-.5-3.2-2.9-3.2a13.73,13.73,0,0,0-2.8.5v1.9l.1,8.2Zm17.8-5.9c0-4.3,1.3-6.1,5.2-6.1s5.1,2,5.1,5.3v1.1a35.78,35.78,0,0,1-5.8.5l-2.8.1c.3,2.4.9,3.7,3.9,3.7a18.72,18.72,0,0,0,4.2-.4l.1,1.3a22.3,22.3,0,0,1-5,.4c-3.9.2-4.9-2.4-4.9-5.9Zm4.7-.3a17.82,17.82,0,0,0,3.9-.4v-.9c0-2-.9-3.3-3.4-3.3-2.9,0-3.6,1.5-3.6,4.6Zm10.1,6.2H382V98.9a13.53,13.53,0,0,1,5.3-1c4.1,0,4.4,1.9,4.4,4.3v7.6H390v-7.4c0-2.2-.4-3.2-3.3-3.2a10.7,10.7,0,0,0-3.2.6v1.9l.2,8.1Zm14.2-15.1V98h2.7v1.3h-2.7v7.4c0,1.7.6,2,2,2h.6l.1,1.3a5.7,5.7,0,0,1-1.3.1c-2.2,0-3-.9-3-3V99.5h-2.2V98.2h2.2V95Z"/><path class="cls-1" d="M514.18,36.08a3.48,3.48,0,1,1-3.47-3.39,3.4,3.4,0,0,1,3.47,3.39Zm-6.09,0a2.62,2.62,0,0,0,2.64,2.71,2.65,2.65,0,1,0-2.65-2.68Zm2.09,1.78h-.78V34.47a6.84,6.84,0,0,1,1.3-.1,2.11,2.11,0,0,1,1.18.25.94.94,0,0,1,.33.74.87.87,0,0,1-.7.78h0a1,1,0,0,1,.62.83,2.6,2.6,0,0,0,.25.85h-.85a2.9,2.9,0,0,1-.27-.83c-.06-.37-.27-.54-.7-.54h-.37Zm0-1.92h.37c.43,0,.78-.14.78-.5s-.23-.52-.72-.52a1.88,1.88,0,0,0-.43,0Z"/></g></g></svg>