<?xml version="1.0" encoding="utf-8"?>
<!-- Generator: Adobe Illustrator 16.0.0, SVG Export Plug-In . SVG Version: 6.00 Build 0)  -->
<!DOCTYPE svg PUBLIC "-//W3C//DTD SVG 1.1//EN" "http://www.w3.org/Graphics/SVG/1.1/DTD/svg11.dtd">
<svg version="1.1" id="Layer_1" xmlns="http://www.w3.org/2000/svg" xmlns:xlink="http://www.w3.org/1999/xlink" x="0px" y="0px"
	 width="215px" height="71px" viewBox="0 0 215 71" enable-background="new 0 0 215 71" xml:space="preserve">
<path fill-rule="evenodd" clip-rule="evenodd" fill="#008454" d="M0,8l50-8v71L0,63V8z M10.68,8.24c0,0.14,0,0.19-0.14,0.38
	c-2.8,3.49-4.58,7.14-5.18,10.66c-0.08,0.43-0.16,1.3-0.16,1.38v1.83c0.11,1.99,0.52,4.11,1.31,6.1c0.22,0.6,0.57,1.28,0.95,1.94
	c0.22,0.38,0.52,0.79,0.87,1.19c0.22,0.25,0.5,0.52,0.77,0.71c0.33,0.28,0.54,0.41,0.54,0.71c0,0.38-0.32,0.6-0.6,0.6
	c-0.35,0-0.68-0.33-0.98-0.6c-1.5-1.33-2.18-2.94-2.75-4.33c-0.36-0.9-0.6-1.8-0.82-2.7c-0.08-0.41-0.19-0.87-0.24-1.28
	C4.11,24.04,4,22.49,4,22.44v-1.72c0.05-0.76,0.14-1.66,0.33-2.4c0.13-0.6,0.3-1.25,0.49-1.82c0.19-0.63,0.43-1.26,0.68-1.83
	c0.33-0.79,0.71-1.58,1.12-2.31c0.79-1.5,1.77-3.11,3.05-4.53c0.14-0.19,0.27-0.236,0.439-0.236C10.459,7.594,10.68,7.89,10.68,8.24
	z M26.75,24.52c0-1.38,1.08-2.5,2.4-2.5c1.33,0,2.4,1.12,2.4,2.5c0,1.39-1.07,2.51-2.4,2.51C27.83,27.03,26.75,25.91,26.75,24.52z
	 M24.68,23.76c0,0,1.63-1.28,2.4-2.07c0.76-0.79,1.96-2.29,1.96-2.29s2.05,0.25,3.16,1.74c1.12,1.5,2.13,3.46,1.09,5.56
	c-1.03,2.1-3.08,3.16-4.47,2.94c-1.39-0.22-3.3-1.5-3.7-2.83C24.71,25.47,24.68,23.76,24.68,23.76z M19.55,64.95
	c0.22,0,0.8,0.44,0.84,0.63c0.03,0.18-0.69,0.32-1.56,0.811C18,66.85,17.26,67.42,17.05,67.46c-0.22,0.03-0.3-0.41-0.26-0.88
	c0.03-0.48,0.2-0.801,0.31-0.87C17.53,65.46,19.23,64.95,19.55,64.95z M14.32,63.42c0,0,1.45,0.24,1.45,0.51
	c0,0.28-0.96,0.45-1.12,0.58c-0.17,0.141-0.82,1.45-0.88,1.641c-0.05,0.189,0.16,1.229,0.12,1.479C13.84,67.88,13.66,68,13.66,68
	c-0.27-0.061-1.25-1.6-1.27-1.85c-0.01-0.16-0.01-0.271,0.18-0.66c0.2-0.381,1.44-1.87,1.53-1.961
	C14.21,63.43,14.32,63.42,14.32,63.42z M18.9,29.86c0,0,0.98,1.69,1.31,2.73c0.33,1.03,0.54,2.07,0.54,2.07s0.06-0.6,0.33-1.53
	C21.35,32.2,21.44,32,21.44,32l1.06,1.2c0.43,0.49,1.09,1.02,1.09,1.02s-1.66,1.4-2.2,2.27c-0.55,0.87-1.43,3.48-1.67,5.59
	c-0.26,2.24-0.06,6.311,0.69,9.449c0.74,3.101,1.14,4.25,2.54,6.66c1.38,2.381,5.44,6.871,5.44,6.871s-0.71,0.649-1.75,0.649
	c-1.03,0-3.05-0.11-4.03-0.431c-0.98-0.329-2.67-0.709-3.6-1.309c-0.93-0.601-1.53-0.871-2.51-0.98c-0.98-0.11-1.91-0.33-2.73-0.33
	h-1.3c0,0-1.64-2.4-1.97-4.79c-0.32-2.399,0.66-14.61,0.44-17.11c-0.22-2.51-1.47-6.23-1.2-6.78c0.27-0.54,0.27-0.58,0.87-0.41
	c0.6,0.16,1.88,0.71,2.93,0.65c1.58-0.09,3.6-1.45,4.2-2.36C18.3,31,18.9,29.86,18.9,29.86z M23.92,34.58c0,0,1.25,1.07,3.87,1.89
	c2.3,0.72,5.85,0.64,5.85,0.64s3.47,5.66,4.67,9.97c1.2,4.3,2.56,10.57,3.05,13.29C41.85,63.1,43,66.91,43,66.91
	s-9.87,0.33-12.1-0.54c-2.24-0.88-7.6-7.42-8.97-11.08c-1.58-4.25-2.16-7.89-1.89-11.7c0.28-3.811,1.28-6.21,1.88-7.12
	C22.62,35.41,23.92,34.58,23.92,34.58z M21.73,25.94c0,0,0.22,1.52,0.11,2.94c-0.11,1.42-0.32,2.4-0.32,2.4s2.01,3.4,5.45,4.47
	c3.43,1.06,6.52,1.3,8.29,0.43c1.77-0.87,3.81-4.47,4.03-7.19c0.22-2.73,0.47-6.57-0.43-8.94c-0.9-2.37-4.88-7.24-5.13-7.3
	c-0.24-0.05-0.44,0.22-0.44,0.22s-1.8,3.27-2.29,3.92l-1.56,2.08c0.38,0.07,2.21,0.41,3.2,1.74c1.12,1.5,2.13,4.11,1.09,6.21
	s-3.52,3.49-4.91,3.27c-1.39-0.22-3.62-1.72-4.03-3.05c-0.35-1.15-0.53-2.69-0.54-3.07c-0.28,0.2-0.65,0.57-1.1,0.89L21.73,25.94z
	 M19.1,27.54c0,0,0.4-0.15,0.87-0.37c0.47-0.21,1-0.69,1-0.69s0.07,1.02,0.07,2.25c0,1.22-0.29,2.82-0.29,2.82s-0.81-2.16-1-2.6
	C19.57,28.52,19.1,27.54,19.1,27.54z M11.81,20.6c0-1.39,1.08-2.51,2.4-2.51c1.33,0,2.4,1.12,2.4,2.51c0,1.38-1.07,2.5-2.4,2.5
	C12.89,23.1,11.81,21.98,11.81,20.6z M18.54,23.9c-0.04-0.83-1.4-4.19-1.95-5.57c-0.76-1.93-1.49-3.43-2.65-3.47
	c-0.87-0.03-2.8,1.49-3.51,2.98c-0.72,1.51-0.75,3.87-0.38,5.39c0.36,1.53,2.11,2.89,3.54,3.43c1.16,0.45,2.62-0.23,3.42-0.92
	C17.81,25.05,18.56,24.52,18.54,23.9z M8.79,3c0,0,2.9,1.04,6.22,1.53c3.38,0.49,9.28,2.2,10.38,2.52c2.03,0.6,3.57,1.21,5.65,1.69
	c0.47,0.11,4.42-4.36,4.42-4.36s-2.42,7.92-5.73,12.46c-2.8,3.83-5.69,6.5-8.81,8.1c-0.75,0.38-0.91,0.27-1.15-0.45
	c-0.25-0.79-2.86-7.43-3.91-10.08c-0.96-2.44-3.74-6.49-4.74-7.78C10.22,5.48,8.79,3,8.79,3z"/>
<g>
	<rect x="57.5" y="4.31" fill-rule="evenodd" clip-rule="evenodd" fill="none" width="157.5" height="57.13"/>
	<path fill="#008454" stroke="#008454" stroke-width="0.25" stroke-miterlimit="10" d="M58.522,10.42l0.26-0.207
		c0.165,0,0.391,0.008,0.679,0.025s0.521,0.025,0.698,0.025c0.588,0,1.051-0.019,1.389-0.057s0.886-0.112,1.644-0.222
		s1.419-0.19,1.986-0.241s1.242-0.076,2.024-0.076c1.188,0,2.271,0.17,3.249,0.511c0.977,0.341,1.767,0.917,2.37,1.727
		c0.603,0.811,0.913,1.876,0.93,3.196c0,0.812-0.178,1.521-0.533,2.126s-0.889,1.179-1.6,1.72L70.5,19.804
		c-0.749,0.597-1.497,1.01-2.244,1.241c-0.747,0.231-1.636,0.346-2.669,0.346c-0.774,0-1.676-0.14-2.704-0.419l0.152,6.608
		c0,0.656,0.148,1.149,0.444,1.479c0.157,0.14,0.383,0.25,0.679,0.333c0.296,0.082,0.529,0.136,0.698,0.162l-0.209,0.209
		c-0.558-0.106-1.12-0.159-1.686-0.159c-0.769,0-1.521,0.087-2.256,0.26l-0.209-0.152c0.059-0.322,0.134-0.826,0.226-1.514
		c0.091-0.688,0.136-1.414,0.136-2.18c0-1.493-0.042-3.241-0.127-5.242c-0.084-2.001-0.169-3.688-0.254-5.062
		s-0.148-2.357-0.19-2.954c0-0.812-0.146-1.392-0.438-1.739C59.536,10.684,59.093,10.483,58.522,10.42z M66.99,10.968h-4.367
		l0.208,8.576c0.601,0.262,1.084,0.449,1.45,0.562c0.366,0.112,0.765,0.168,1.197,0.168l2.082-0.108
		c0.792-0.021,1.502-0.194,2.133-0.52s1.126-0.797,1.489-1.415c0.361-0.618,0.542-1.341,0.542-2.169
		c-0.025-1.721-0.468-3-1.327-3.838C69.54,11.387,68.403,10.968,66.99,10.968z"/>
	<path fill="#008454" stroke="#008454" stroke-width="0.25" stroke-miterlimit="10" d="M78.327,29.656l-0.209,0.26
		c-0.538-0.034-1.352-0.051-2.444-0.051l-0.159-0.209c0.406-0.63,0.764-1.222,1.073-1.774c0.309-0.553,0.595-1.103,0.857-1.65
		c0.262-0.548,0.542-1.159,0.838-1.832s0.597-1.356,0.901-2.05c1.041-2.624,1.562-4.452,1.562-5.484
		c-0.017-0.106-0.049-0.201-0.095-0.286s-0.113-0.182-0.2-0.292c-0.087-0.11-0.154-0.203-0.2-0.279l2.082-0.159
		c1.083,2.742,2.251,5.248,3.504,7.516c0.503,0.922,0.993,1.818,1.47,2.688c0.476,0.869,0.923,1.605,1.342,2.209
		c0.419,0.603,0.8,1,1.143,1.19c0.076,0.055,0.362,0.123,0.857,0.203l-0.051,0.209c-0.605-0.084-1.125-0.127-1.562-0.127
		c-0.381,0-0.804,0.025-1.27,0.076l-3.307-5.853h-5.123l-2,4.685c-0.034,0.135-0.051,0.256-0.051,0.362
		c0,0.169,0.034,0.298,0.102,0.387C77.493,29.569,77.806,29.656,78.327,29.656z M84.097,23.416l-2.78-5.586l-1.873,5.586H84.097z"/>
	<path fill="#008454" stroke="#008454" stroke-width="0.25" stroke-miterlimit="10" d="M92.571,16.218l0.051-0.209
		c0.347,0.034,0.599,0.051,0.755,0.051c0.508-0.021,1.09-0.142,1.746-0.362l0.102,0.051c0,0.639-0.001,1.201-0.003,1.686
		c-0.002,0.484-0.004,0.929-0.006,1.333c-0.002,0.404-0.005,0.81-0.01,1.219c-0.004,0.408-0.006,0.938-0.006,1.59
		c0,2.895,0.087,5.319,0.26,7.274c1.028,0.14,2.059,0.209,3.091,0.209c1.079,0,1.944-0.027,2.596-0.083s1.079-0.184,1.282-0.387
		c0.246-0.246,0.444-0.565,0.597-0.958l0.152-0.102l-0.438,2.285h-8.842l-0.26-11.572c0-0.326-0.049-0.652-0.146-0.978
		s-0.222-0.563-0.375-0.711C93.011,16.423,92.829,16.311,92.571,16.218z"/>
	<path fill="#008454" stroke="#008454" stroke-width="0.25" stroke-miterlimit="10" d="M105.361,16.218l0.051-0.209
		c0.347,0.034,0.599,0.051,0.755,0.051c0.508-0.021,1.09-0.142,1.746-0.362l0.102,0.051c0,0.639-0.001,1.201-0.003,1.686
		c-0.002,0.484-0.004,0.929-0.007,1.333c-0.002,0.404-0.005,0.81-0.009,1.219c-0.004,0.408-0.006,0.938-0.006,1.59
		c0,2.895,0.087,5.319,0.26,7.274c1.028,0.14,2.059,0.209,3.091,0.209c1.079,0,1.944-0.027,2.596-0.083s1.079-0.184,1.282-0.387
		c0.246-0.246,0.444-0.565,0.597-0.958l0.152-0.102l-0.438,2.285h-8.842l-0.26-11.572c0-0.326-0.049-0.652-0.146-0.978
		s-0.222-0.563-0.375-0.711C105.801,16.423,105.62,16.311,105.361,16.218z"/>
	<path fill="#008454" stroke="#008454" stroke-width="0.25" stroke-miterlimit="10" d="M120.754,29.656l-0.209,0.26
		c-0.538-0.034-1.352-0.051-2.444-0.051l-0.159-0.209c0.406-0.63,0.764-1.222,1.073-1.774c0.309-0.553,0.595-1.103,0.857-1.65
		c0.262-0.548,0.542-1.159,0.838-1.832s0.597-1.356,0.901-2.05c1.041-2.624,1.562-4.452,1.562-5.484
		c-0.017-0.106-0.049-0.201-0.095-0.286s-0.113-0.182-0.2-0.292c-0.087-0.11-0.154-0.203-0.2-0.279l2.082-0.159
		c1.083,2.742,2.251,5.248,3.504,7.516c0.503,0.922,0.993,1.818,1.47,2.688c0.476,0.869,0.923,1.605,1.342,2.209
		c0.419,0.603,0.8,1,1.143,1.19c0.076,0.055,0.362,0.123,0.857,0.203l-0.051,0.209c-0.605-0.084-1.125-0.127-1.562-0.127
		c-0.381,0-0.804,0.025-1.27,0.076l-3.307-5.853h-5.123l-2,4.685c-0.034,0.135-0.051,0.256-0.051,0.362
		c0,0.169,0.034,0.298,0.102,0.387C119.921,29.569,120.234,29.656,120.754,29.656z M126.524,23.416l-2.78-5.586l-1.873,5.586
		H126.524z"/>
	<path fill="#008454" stroke="#008454" stroke-width="0.25" stroke-miterlimit="10" d="M135.76,16.973
		c-0.144-0.14-0.337-0.245-0.581-0.314c-0.244-0.07-0.405-0.105-0.486-0.105l0.209-0.159c0.477,0.055,0.91,0.083,1.298,0.083
		c0.422,0,0.872-0.027,1.349-0.083c0.381-0.034,0.935-0.146,1.663-0.336h3.897c1.27,0,2.41,0.23,3.421,0.692
		s1.812,1.189,2.402,2.184c0.591,0.995,0.886,2.255,0.886,3.783c0,1.143-0.132,2.115-0.396,2.917
		c-0.265,0.802-0.644,1.455-1.137,1.958c-0.493,0.503-1.101,0.922-1.825,1.257l-1.06,0.495c-0.931,0.453-1.755,0.679-2.474,0.679
		c-0.783,0-1.778-0.043-2.985-0.13c-1.208-0.086-2.003-0.13-2.388-0.13c-0.487,0-0.825,0.017-1.015,0.051l-0.367-0.209V18.351
		C136.173,17.708,136.035,17.248,135.76,16.973z M142.514,16.916h-4.913v11.781l5.929,0.152c0.817,0,1.509-0.081,2.076-0.241
		s1.045-0.451,1.435-0.87s0.681-1.007,0.876-1.765s0.292-1.731,0.292-2.92c0-2.184-0.508-3.752-1.523-4.707
		C145.669,17.393,144.279,16.916,142.514,16.916z"/>
	<path fill="#008454" stroke="#008454" stroke-width="0.25" stroke-miterlimit="10" d="M153.502,16.167l0.051-0.209
		c1.132,0,1.968-0.053,2.506-0.159l0.204,0.209v12.378c0,0.389,0.148,0.684,0.444,0.882c0.267,0.157,0.597,0.235,0.99,0.235
		l-0.21,0.209c-0.738-0.123-1.198-0.184-1.38-0.184c-0.263,0-0.689,0.078-1.278,0.235l-0.153-0.108V18.243
		c0-0.901-0.095-1.481-0.286-1.739C154.188,16.279,153.891,16.167,153.502,16.167z"/>
	<path fill="#008454" stroke="#008454" stroke-width="0.25" stroke-miterlimit="10" d="M160.643,16.059v-0.152
		c0.283,0.051,0.568,0.076,0.855,0.076c0.224,0,0.933-0.062,2.128-0.184l-0.495,7.516c-0.017,0.173-0.025,0.417-0.025,0.73
		c0,1.363,0.256,2.421,0.768,3.177c0.512,0.755,1.196,1.268,2.052,1.539s1.881,0.406,3.073,0.406c1.311,0,2.328-0.234,3.051-0.701
		c0.723-0.468,1.085-1.171,1.085-2.111l-0.209-8.734c0-0.262-0.049-0.516-0.146-0.762s-0.222-0.417-0.374-0.514
		c-0.313-0.19-0.548-0.286-0.705-0.286l0.261-0.209c0.382,0.055,0.766,0.083,1.151,0.083c0.551,0,1.08-0.062,1.584-0.184
		c-0.034,1.456-0.051,3.388-0.051,5.795c0,0.402-0.009,1.005-0.026,1.809s-0.025,1.407-0.025,1.809c0,1.655,0.121,3.007,0.362,4.056
		c0.034,0.148,0.084,0.252,0.149,0.311s0.159,0.105,0.279,0.136c0.121,0.032,0.213,0.065,0.276,0.099l-0.051,0.152
		c-0.497-0.084-0.915-0.127-1.253-0.127c-0.335,0-0.7,0.025-1.095,0.076v-1.974c0,0.059-0.279,0.273-0.837,0.641
		s-1.256,0.709-2.093,1.022s-1.731,0.47-2.682,0.47c-1.192,0-2.225-0.168-3.098-0.504c-0.873-0.337-1.566-0.923-2.08-1.759
		c-0.514-0.835-0.771-1.962-0.771-3.38c0-0.732,0.035-1.666,0.104-2.803c0.07-1.136,0.104-1.971,0.104-2.504
		c0-0.851-0.069-1.587-0.208-2.209c-0.063-0.3-0.214-0.51-0.451-0.628S160.812,16.059,160.643,16.059z"/>
	<path fill="#008454" stroke="#008454" stroke-width="0.25" stroke-miterlimit="10" d="M177.744,16.269v-0.209
		c0.952,0,1.663-0.051,2.133-0.152c1.917,4.189,4.187,8.349,6.811,12.479c0.774-1.206,1.496-2.464,2.164-3.774
		c0.669-1.31,1.233-2.654,1.692-4.034s0.725-2.687,0.796-3.923c0-0.182-0.02-0.313-0.06-0.394s-0.093-0.14-0.155-0.178
		c-0.064-0.038-0.138-0.081-0.223-0.127l0.102-0.108c0.372,0.055,0.728,0.083,1.066,0.083c0.355,0,0.711-0.027,1.066-0.083
		c0,0.944,0.064,2.153,0.193,3.628c0.129,1.475,0.193,2.72,0.193,3.735c0.03,1.261,0.068,2.246,0.115,2.955
		c0.046,0.708,0.146,1.374,0.301,1.996s0.389,1.033,0.701,1.231c0.203,0.123,0.48,0.209,0.832,0.26l-0.203,0.209
		c-0.829-0.14-1.445-0.209-1.848-0.209c-0.33,0-0.581,0.019-0.755,0.057c-0.212-1.701-0.377-3.193-0.495-4.475
		c-0.063-0.795-0.122-1.565-0.175-2.307c-0.053-0.743-0.092-1.419-0.117-2.028s-0.049-1.417-0.069-2.425
		c-1.258,4.245-3.233,8.127-5.93,11.648c-1.201-1.811-2.305-3.625-3.31-5.44s-1.92-3.677-2.746-5.586l-0.419,8.48
		c0,0.719,0.087,1.291,0.26,1.714c0.025,0.081,0.14,0.181,0.343,0.302c0.203,0.12,0.392,0.193,0.565,0.219l-0.051,0.159
		c-0.208-0.055-0.493-0.083-0.857-0.083c-0.123,0-0.313,0.004-0.571,0.013s-0.457,0.013-0.597,0.013l-0.184-0.152
		c0.144-0.969,0.323-2.449,0.537-4.44c0.213-1.991,0.32-3.883,0.32-5.678c0-1.058-0.103-1.833-0.308-2.326
		c-0.206-0.493-0.432-0.789-0.68-0.886C177.938,16.336,177.79,16.281,177.744,16.269z"/>
	<path fill="#008454" stroke="#008454" stroke-width="0.25" stroke-miterlimit="10" d="M61.715,43.958l0.908-0.729
		c1.113-0.854,2.281-1.424,3.504-1.708c1.223-0.283,2.594-0.425,4.113-0.425c1.045,0,2.216,0.072,3.513,0.216
		c1.297,0.144,2.276,0.265,2.936,0.361l0.152,0.312c-0.258,0.491-0.421,0.863-0.489,1.117c-0.241,0.686-0.381,1.273-0.419,1.765
		l-0.362,0.444c0-0.169-0.035-0.416-0.105-0.739c-0.069-0.324-0.233-0.615-0.492-0.873c-0.241-0.225-0.732-0.435-1.473-0.632
		c-0.741-0.196-1.599-0.354-2.574-0.47c-0.976-0.116-1.899-0.175-2.771-0.175c-1.219,0.013-2.253,0.113-3.104,0.302
		s-1.605,0.553-2.263,1.092c-0.658,0.54-1.171,1.344-1.54,2.412s-0.552,2.462-0.552,4.18c0,2.446,0.425,4.341,1.276,5.685
		s1.97,2.251,3.358,2.724c1.388,0.472,3.077,0.729,5.065,0.771c1.16,0,2.183-0.114,3.069-0.343c0.886-0.229,1.618-0.497,2.196-0.806
		c0.577-0.309,1.02-0.596,1.326-0.86c0.307-0.265,0.484-0.418,0.53-0.46l0.336,0.102c-0.042,0.047-0.29,0.298-0.743,0.755
		s-1.059,0.942-1.818,1.454c-0.76,0.512-1.688,0.956-2.787,1.333c-1.098,0.376-2.296,0.564-3.596,0.564
		c-2.167-0.08-3.928-0.394-5.284-0.939c-1.356-0.546-2.391-1.282-3.104-2.209c-0.713-0.927-1.206-1.964-1.479-3.113
		c-0.273-1.148-0.467-2.571-0.581-4.269c0-1.342,0.271-2.604,0.812-3.79C59.819,45.82,60.631,44.805,61.715,43.958z"/>
	<path fill="#008454" stroke="#008454" stroke-width="0.25" stroke-miterlimit="10" d="M81.062,49.132l2.57-1.587
		c0.431-0.229,0.942-0.368,1.532-0.419c0.59-0.051,1.458-0.076,2.604-0.076c1.806,0.047,3.192,0.381,4.159,1.003
		c0.966,0.623,1.611,1.425,1.935,2.407c0.324,0.981,0.5,2.194,0.53,3.639c0,2.663-0.893,4.494-2.679,5.493l-1.066,0.622
		c-1.222,0.673-2.375,1.01-3.458,1.01c-1.641,0-2.961-0.193-3.962-0.58c-1-0.388-1.745-0.919-2.233-1.594
		c-0.489-0.675-0.815-1.423-0.98-2.244c-0.165-0.82-0.292-1.887-0.38-3.199c-0.021-0.156-0.032-0.383-0.032-0.679
		C79.603,51.015,80.089,49.75,81.062,49.132z M86.331,48.065c-1.414,0.038-2.488,0.198-3.225,0.479s-1.262,0.757-1.577,1.426
		c-0.315,0.669-0.49,1.639-0.524,2.908c0,1.359,0.16,2.561,0.479,3.604c0.32,1.044,0.946,1.9,1.879,2.569
		c0.934,0.669,2.244,1.003,3.933,1.003c1.633,0,2.858-0.168,3.675-0.505c0.817-0.336,1.345-0.781,1.583-1.333
		c0.239-0.553,0.359-1.266,0.359-2.138c0-0.33,0.008-0.582,0.025-0.756c-0.017-1.16-0.071-2.104-0.162-2.832
		c-0.091-0.729-0.338-1.437-0.74-2.125c-0.402-0.688-1.061-1.243-1.977-1.667C89.144,48.277,87.901,48.065,86.331,48.065z"/>
	<path fill="#008454" stroke="#008454" stroke-width="0.25" stroke-miterlimit="10" d="M96.417,47.469l0.051-0.102
		c1.024,0,1.788-0.036,2.292-0.108c0.914,1.135,1.848,2.239,2.803,3.313c0.954,1.075,1.934,2.12,2.938,3.136
		c1.005,1.016,2.008,1.985,3.009,2.907c1.001,0.923,2.062,1.86,3.184,2.812l-0.597-10.448c0-0.491-0.123-0.899-0.368-1.226
		c-0.055-0.089-0.168-0.18-0.34-0.272c-0.171-0.093-0.344-0.15-0.517-0.172l0.108-0.152c0.106,0,0.25,0.005,0.432,0.013
		c0.182,0.009,0.315,0.013,0.4,0.013c0.406,0,0.787-0.078,1.143-0.234h0.209c-0.072,1.079-0.108,1.859-0.108,2.342
		c0,2.023,0.014,4.005,0.042,5.945c0.027,1.939,0.049,3.354,0.066,4.243l-0.368,2.057c-2.052-1.718-4.054-3.525-6.005-5.421
		s-3.91-3.921-5.878-6.075l0.057,8.087c0,0.851,0.121,1.598,0.362,2.241c0.059,0.131,0.125,0.23,0.197,0.298
		c0.072,0.068,0.18,0.13,0.324,0.185s0.239,0.093,0.286,0.114v0.152c-0.309-0.102-0.698-0.152-1.168-0.152
		c-0.296,0-0.506,0.017-0.628,0.051l-0.235-0.159c0.03-0.677,0.068-1.654,0.114-2.933c0.046-1.277,0.07-2.501,0.07-3.669
		c0-1.582-0.03-2.852-0.089-3.809c-0.059-0.956-0.211-1.663-0.457-2.12c-0.19-0.343-0.423-0.57-0.698-0.682
		C96.771,47.531,96.562,47.473,96.417,47.469z"/>
	<path fill="#008454" stroke="#008454" stroke-width="0.25" stroke-miterlimit="10" d="M115.016,48.662l1.066-0.857
		c0.436-0.317,0.853-0.513,1.25-0.587c0.397-0.074,0.908-0.111,1.529-0.111c0.698,0,1.59,0.061,2.675,0.183
		c1.085,0.121,1.573,0.182,1.463,0.182l0.126,0.128c-0.223,0.745-0.335,1.492-0.335,2.241l-0.158,0.155
		c-0.025-0.118-0.067-0.289-0.124-0.511c-0.057-0.223-0.12-0.407-0.188-0.556c-0.084-0.169-0.342-0.319-0.772-0.451
		c-0.43-0.131-0.943-0.231-1.541-0.301c-0.597-0.07-1.196-0.105-1.798-0.105c-0.949,0.034-1.693,0.168-2.233,0.403
		c-0.54,0.234-0.81,0.74-0.81,1.518c0,1.057,0.351,1.837,1.054,2.34s1.841,0.754,3.415,0.754c1.21,0.03,2.259,0.329,3.145,0.897
		c0.887,0.569,1.33,1.438,1.33,2.61c0,1.069-0.544,2.012-1.633,2.828l-0.418,0.311c-0.046,0.072-0.237,0.224-0.571,0.453
		s-0.75,0.441-1.248,0.638c-0.497,0.195-1.017,0.293-1.559,0.293c-0.762,0-1.609-0.072-2.542-0.218
		c-0.933-0.145-1.628-0.264-2.085-0.357l-0.158-0.236c0.231-0.978,0.387-1.81,0.467-2.496l0.126,0.212
		c0,0.71,0.293,1.16,0.879,1.351c0.466,0.174,1.087,0.331,1.865,0.473s1.579,0.228,2.405,0.257c2.028,0,3.043-0.833,3.043-2.498
		c-0.025-1.104-0.353-1.89-0.981-2.359c-0.629-0.469-1.723-0.729-3.281-0.779c-1.362-0.034-2.482-0.279-3.362-0.736
		s-1.319-1.331-1.319-2.622c0.034-0.617,0.127-1.08,0.279-1.387S114.504,49.06,115.016,48.662z"/>
	<path fill="#008454" stroke="#008454" stroke-width="0.25" stroke-miterlimit="10" d="M125.89,47.259v-0.152
		c0.283,0.051,0.568,0.076,0.855,0.076c0.224,0,0.933-0.061,2.128-0.184l-0.495,7.516c-0.017,0.174-0.025,0.417-0.025,0.729
		c0,1.363,0.256,2.422,0.768,3.178c0.512,0.755,1.196,1.269,2.052,1.539s1.881,0.406,3.073,0.406c1.311,0,2.328-0.234,3.051-0.701
		c0.723-0.468,1.085-1.172,1.085-2.111l-0.209-8.734c0-0.262-0.049-0.516-0.146-0.762c-0.097-0.245-0.222-0.416-0.374-0.514
		c-0.313-0.19-0.548-0.286-0.705-0.286l0.261-0.209c0.382,0.055,0.766,0.082,1.151,0.082c0.551,0,1.079-0.061,1.584-0.184
		c-0.034,1.456-0.051,3.388-0.051,5.795c0,0.402-0.009,1.006-0.026,1.81s-0.025,1.407-0.025,1.809c0,1.655,0.121,3.007,0.362,4.057
		c0.034,0.148,0.084,0.252,0.149,0.311c0.065,0.06,0.159,0.105,0.279,0.137c0.121,0.032,0.213,0.064,0.276,0.099l-0.051,0.152
		c-0.497-0.085-0.915-0.127-1.254-0.127c-0.335,0-0.7,0.025-1.094,0.076v-1.975c0,0.06-0.279,0.273-0.837,0.642
		s-1.256,0.709-2.093,1.021c-0.837,0.313-1.731,0.47-2.682,0.47c-1.192,0-2.225-0.168-3.098-0.504
		c-0.873-0.337-1.566-0.923-2.08-1.759s-0.771-1.962-0.771-3.38c0-0.732,0.035-1.666,0.104-2.803
		c0.07-1.136,0.104-1.971,0.104-2.504c0-0.851-0.069-1.587-0.208-2.209c-0.063-0.301-0.214-0.51-0.451-0.629
		C126.262,47.318,126.059,47.259,125.89,47.259z"/>
	<path fill="#008454" stroke="#008454" stroke-width="0.25" stroke-miterlimit="10" d="M143.041,47.418l0.051-0.21
		c0.347,0.034,0.599,0.051,0.755,0.051c0.508-0.021,1.09-0.142,1.746-0.361l0.102,0.051c0,0.639-0.001,1.2-0.003,1.686
		c-0.002,0.484-0.004,0.929-0.007,1.333c-0.002,0.403-0.005,0.81-0.009,1.219c-0.004,0.408-0.006,0.938-0.006,1.59
		c0,2.895,0.087,5.319,0.26,7.274c1.028,0.14,2.059,0.209,3.091,0.209c1.079,0,1.944-0.027,2.596-0.082s1.079-0.185,1.282-0.388
		c0.246-0.245,0.444-0.564,0.597-0.958l0.152-0.102l-0.438,2.285h-8.842l-0.26-11.572c0-0.325-0.049-0.651-0.146-0.978
		c-0.097-0.325-0.222-0.562-0.375-0.711C143.481,47.623,143.299,47.511,143.041,47.418z"/>
	<path fill="#008454" stroke="#008454" stroke-width="0.25" stroke-miterlimit="10" d="M155.882,49.341l-0.152-0.102
		c0.347-0.838,0.521-1.48,0.521-1.93c1.9,0.056,3.857,0.083,5.872,0.083c2.201,0,4.577-0.045,7.128-0.134l0.102,0.159
		c-0.381,0.521-0.571,1.092-0.571,1.714l-0.159-0.051c0-0.47-0.087-0.738-0.26-0.807c-0.119-0.033-1.93-0.051-5.434-0.051
		l0.159,10.506c0,0.821,0.138,1.409,0.413,1.765c0.195,0.241,0.482,0.415,0.863,0.521l-0.159,0.158
		c-0.482-0.14-1.003-0.209-1.562-0.209c-0.381,0-0.684,0.017-0.908,0.051l-0.159-0.159c0.038-1.074,0.057-2.685,0.057-4.83
		c-0.017-1.151-0.034-2.149-0.051-2.996s-0.031-1.644-0.042-2.39c-0.01-0.747-0.016-1.553-0.016-2.416
		c-0.152-0.008-0.411-0.019-0.774-0.031s-0.781-0.02-1.25-0.02c-1.202,0-2.103,0.051-2.704,0.152
		c-0.093,0.018-0.19,0.08-0.292,0.188c-0.102,0.108-0.224,0.266-0.368,0.473C155.992,49.193,155.908,49.312,155.882,49.341z"/>
	<path fill="#008454" stroke="#008454" stroke-width="0.25" stroke-miterlimit="10" d="M172.932,47.367l0.051-0.21
		c1.132,0,1.968-0.053,2.506-0.158l0.204,0.209v12.378c0,0.39,0.148,0.684,0.444,0.883c0.267,0.156,0.597,0.234,0.99,0.234
		l-0.21,0.21c-0.738-0.123-1.198-0.185-1.38-0.185c-0.263,0-0.689,0.079-1.279,0.235l-0.153-0.108V49.442
		c0-0.901-0.095-1.48-0.286-1.739C173.618,47.479,173.321,47.367,172.932,47.367z"/>
	<path fill="#008454" stroke="#008454" stroke-width="0.25" stroke-miterlimit="10" d="M179.959,47.469l0.051-0.102
		c1.024,0,1.788-0.036,2.291-0.108c0.914,1.135,1.849,2.239,2.803,3.313c0.954,1.075,1.935,2.12,2.939,3.136
		s2.008,1.985,3.009,2.907c1.001,0.923,2.062,1.86,3.183,2.812l-0.596-10.448c0-0.491-0.123-0.899-0.369-1.226
		c-0.055-0.089-0.168-0.18-0.339-0.272c-0.172-0.093-0.344-0.15-0.518-0.172l0.108-0.152c0.105,0,0.249,0.005,0.432,0.013
		c0.182,0.009,0.314,0.013,0.399,0.013c0.406,0,0.787-0.078,1.143-0.234h0.21c-0.072,1.079-0.108,1.859-0.108,2.342
		c0,2.023,0.014,4.005,0.041,5.945c0.027,1.939,0.05,3.354,0.067,4.243l-0.369,2.057c-2.052-1.718-4.054-3.525-6.004-5.421
		c-1.951-1.896-3.91-3.921-5.879-6.075l0.058,8.087c0,0.851,0.12,1.598,0.362,2.241c0.059,0.131,0.124,0.23,0.196,0.298
		c0.072,0.068,0.18,0.13,0.323,0.185c0.145,0.055,0.239,0.093,0.286,0.114v0.152c-0.309-0.102-0.698-0.152-1.168-0.152
		c-0.296,0-0.506,0.017-0.628,0.051l-0.235-0.159c0.029-0.677,0.067-1.654,0.114-2.933c0.047-1.277,0.07-2.501,0.07-3.669
		c0-1.582-0.03-2.852-0.09-3.809c-0.059-0.956-0.211-1.663-0.457-2.12c-0.189-0.343-0.423-0.57-0.698-0.682
		C180.312,47.531,180.103,47.473,179.959,47.469z"/>
	<path fill="#008454" stroke="#008454" stroke-width="0.25" stroke-miterlimit="10" d="M209.679,59.586v-3.459
		c0-0.542-0.138-0.939-0.413-1.193c-0.08-0.085-0.245-0.176-0.494-0.273c-0.25-0.097-0.527-0.146-0.832-0.146l0.26-0.261h1.066
		c0.783,0,1.407-0.086,1.873-0.26l0.152,0.102v5.281c-0.669,0.334-1.344,0.611-2.025,0.831c-0.347,0.11-0.766,0.274-1.256,0.492
		c-0.491,0.218-0.912,0.368-1.264,0.451c-0.352,0.082-0.863,0.123-1.536,0.123h-0.628c-1.523-0.042-2.773-0.247-3.749-0.615
		s-1.729-0.867-2.26-1.498s-0.902-1.365-1.114-2.203c-0.211-0.838-0.323-1.809-0.336-2.913c0-1.993,0.778-3.578,2.336-4.755
		l0.629-0.47c1.527-1.108,3.504-1.663,5.928-1.663c0.838,0.021,1.904,0.109,3.199,0.264s1.875,0.231,1.74,0.231l0.076,0.152
		c-0.364,0.792-0.547,1.485-0.547,2.082l-0.26,0.362c0-0.161-0.029-0.38-0.089-0.657s-0.194-0.481-0.406-0.612
		c-0.136-0.118-0.515-0.256-1.136-0.413c-0.623-0.156-1.316-0.287-2.082-0.394c-0.767-0.105-1.452-0.158-2.057-0.158
		c-1.228,0.021-2.24,0.159-3.038,0.416c-0.798,0.256-1.439,0.792-1.927,1.608c-0.486,0.817-0.729,2.006-0.729,3.567
		c0,1.262,0.185,2.326,0.552,3.193c0.369,0.867,0.877,1.551,1.523,2.05c0.648,0.5,1.387,0.851,2.216,1.054s1.748,0.305,2.755,0.305
		c0.829-0.017,1.523-0.071,2.082-0.165c0.559-0.093,1.006-0.192,1.343-0.298C209.567,59.64,209.717,59.586,209.679,59.586z"/>
</g>
<g>
</g>
<g>
</g>
<g>
</g>
<g>
</g>
<g>
</g>
<g>
</g>
</svg>
