<svg width="99" height="36" viewBox="0 0 99 36" fill="none" xmlns="http://www.w3.org/2000/svg">
<path d="M67.1893 26.0358C67.1837 26.0415 67.1781 26.0415 67.1781 26.0471C62.9607 29.0705 57.9678 32.2466 52.5956 35.5808L52.3836 35.7052C52.3111 35.756 52.2943 35.8577 52.3446 35.9312C52.3948 36.0047 52.4952 36.0216 52.5677 35.9708L52.7462 35.8747C57.304 33.4672 62.5367 30.6077 67.8029 27.6747C67.8308 27.6577 67.8587 27.6408 67.8866 27.6295C67.5965 27.1435 67.3566 26.6122 67.1893 26.0358ZM94.8592 3.34589C88.2151 -4.0799 45.455 2.59992 27.2742 6.62364L26.8503 6.71406C26.761 6.73101 26.7052 6.81578 26.722 6.90055C26.7387 6.99097 26.8224 7.04749 26.906 7.03053L27.3244 6.94576C42.3867 4.22749 73.7162 0.463738 80.4552 7.23398C82.5137 9.30235 82.0228 11.9585 79.6352 15.1006C80.9183 15.937 81.8331 17.2537 82.246 18.8982C91.5623 12.6366 97.8159 6.6519 94.8592 3.34589Z" fill="white"/>
<path d="M69.8782 24.0863C69.9618 26.6972 71.5964 28.839 73.7218 28.839C77.8444 28.839 79.6017 23.7076 79.479 20.283C79.3897 17.6664 77.7161 15.5302 75.5907 15.5302C72.0482 15.5246 69.7554 20.6333 69.8782 24.0863ZM67.7025 23.945C67.5519 19.4861 70.9995 14.9255 76.0091 14.9255C79.3562 14.9255 81.5486 17.1861 81.6714 20.6503C81.8331 25.3522 78.6087 29.6697 73.3704 29.6697C70.0121 29.6697 67.8197 27.4149 67.7025 23.945Z" fill="white"/>
<path d="M20.2578 22.7693C20.0793 22.8371 19.8506 22.9049 19.5605 22.9671C19.276 23.0349 18.7516 23.1253 17.9929 23.2497C17.4685 23.3344 17.1059 23.4418 16.8995 23.5944C16.7043 23.7413 16.5871 23.9165 16.5536 24.1369C16.5146 24.3686 16.5871 24.5495 16.7824 24.6964C16.9832 24.8377 17.3179 24.9111 17.7921 24.9111C18.1491 24.9111 18.495 24.8546 18.8297 24.7416C19.17 24.6286 19.4601 24.476 19.6777 24.2838C19.8394 24.1426 19.9566 23.9617 20.0458 23.7413C20.1016 23.5944 20.1742 23.2723 20.2578 22.7693ZM24.6092 20.0284C24.5924 20.4353 24.5199 20.797 24.4139 21.4243L23.6775 25.6119C23.6162 25.9849 23.75 26.2731 24.0903 26.4765L24.068 26.6404L19.8506 26.6348L19.8115 25.5723C19.1979 25.9453 18.4559 26.2618 17.7865 26.4483C17.1171 26.6235 16.5759 26.6969 15.767 26.6969C14.4059 26.6969 13.6249 26.5557 13.0837 26.0753C12.537 25.5836 12.2692 25.2559 12.2971 24.5777C12.3195 24.1878 12.5203 23.6848 12.8048 23.3344C13.0949 22.9784 13.4965 22.7467 13.9261 22.5376C14.3612 22.3285 14.8745 22.1759 15.6164 22.0572C16.364 21.9329 17.4016 21.8142 18.7907 21.6956C19.5215 21.6334 19.9677 21.4638 20.1742 21.3791C20.4642 21.2661 20.5814 21.1361 20.6204 20.8987C20.6985 20.4692 20.5647 20.2206 19.9956 20.1075C18.4783 19.8024 15.6276 20.3053 14.1604 20.6727L14.9581 18.4913C16.8939 18.2031 18.707 18.0222 20.6204 18.0222C23.6719 18.0222 24.6426 18.8982 24.6092 20.0284Z" fill="white"/>
<path d="M36.8374 26.635L38.299 18.2654H42.3379L40.8763 26.635H36.8374ZM38.5221 16.327C38.6449 15.6376 39.716 15.0837 40.9098 15.0837C42.1092 15.0837 42.985 15.6432 42.8679 16.327C42.7396 17.0165 41.6741 17.576 40.4691 17.576C39.2753 17.576 38.405 17.0165 38.5221 16.327Z" fill="white"/>
<path d="M56.679 22.7865C56.4949 22.8486 56.2606 22.9164 55.9761 22.9843C55.6916 23.0521 55.1672 23.1368 54.4085 23.2612C53.8897 23.3459 53.5215 23.4533 53.3207 23.6059C53.1254 23.7472 53.0139 23.928 52.9692 24.1428C52.9246 24.3745 53.0083 24.561 53.198 24.7022C53.4044 24.8435 53.7391 24.9113 54.2133 24.9113C54.5647 24.9113 54.9106 24.8605 55.2509 24.7531C55.5968 24.6344 55.8813 24.4875 56.1044 24.2954C56.2606 24.1541 56.3778 23.9676 56.4614 23.7528C56.5172 23.6115 56.5898 23.2894 56.679 22.7865ZM61.0303 20.0399C61.0136 20.4525 60.9411 20.8142 60.8295 21.4358L60.0987 25.6291C60.0373 25.9964 60.1712 26.2903 60.5115 26.4937L60.4892 26.6406L56.2718 26.6463L56.2383 25.5782C55.6246 25.9568 54.8771 26.2733 54.2133 26.4541C53.5438 26.635 53.0027 26.7085 52.1826 26.7085C50.8215 26.7085 50.046 26.5728 49.5049 26.0868C48.9526 25.5895 48.6904 25.2674 48.7183 24.5892C48.7351 24.1936 48.9359 23.6907 49.226 23.3459C49.5161 22.9843 49.9177 22.7582 50.3529 22.5491C50.788 22.34 51.3012 22.1874 52.0376 22.0631C52.7851 21.9444 53.8283 21.8201 55.2174 21.7014C55.9426 21.6392 56.3889 21.4754 56.5953 21.3906C56.891 21.2776 57.0026 21.1476 57.0472 20.9046C57.1197 20.4807 56.9914 20.2321 56.428 20.1134C54.8994 19.8082 52.0599 20.3112 50.5927 20.6785L51.3849 18.4971C53.3263 18.2089 55.1337 18.0281 57.0472 18.0281C60.0875 18.0337 61.0582 18.9153 61.0303 20.0399Z" fill="white"/>
<path d="M11.7504 23.6285C10.4339 23.8941 9.69748 23.9958 8.39767 23.9958C6.46746 23.9958 4.93334 23.0238 5.01702 21.2436C5.07839 20.0569 6.46188 17.559 9.98199 17.559C11.0921 17.559 11.9568 17.7568 13.1228 18.4293L13.636 15.5245C12.0517 14.9198 11.0029 14.8294 9.6417 14.8407C5.0226 14.8916 0.593177 17.0165 0.0408931 21.3397C-0.516969 25.7308 4.77714 26.8328 7.12574 26.8214C8.48135 26.8158 9.89274 26.7593 11.2093 26.6237L11.7504 23.6285Z" fill="white"/>
<path d="M44.5643 18.2202L44.8544 16.5135L49.0774 15.5811L48.6255 18.2146H50.6952L50.3047 19.8986L48.2964 19.893L47.0747 26.6237C47.0747 26.6237 43.0079 26.5954 42.9911 26.6237L44.2073 19.9099H42.6787L42.9911 18.2146H44.5643V18.2202Z" fill="white"/>
<path d="M67.0959 15.0723L65.1322 26.6291L61.0208 26.6348L63.0904 14.9592L67.0959 15.0723Z" fill="white"/>
<path d="M31.4932 20.2264C30.9633 20.2264 30.4835 20.3903 30.0595 20.7124C29.6356 21.0402 29.3678 21.5149 29.2618 22.1422C29.1335 22.8712 29.2116 23.3968 29.4961 23.7189C29.7862 24.041 30.199 24.2049 30.7457 24.2049C31.1139 24.2049 31.4932 24.1371 31.7722 23.9958C32.1181 23.8093 32.3579 23.6172 32.5643 23.3063C32.7875 22.9842 32.9325 22.6225 33.0106 22.2043C33.1278 21.5431 33.0274 21.0515 32.7261 20.7237C32.4305 20.3959 32.0232 20.2264 31.4932 20.2264ZM24.1406 29.5228L26.1099 18.3106H29.6579L29.3845 19.7404C29.6914 19.3109 30.1823 18.9605 30.8629 18.6779C31.549 18.3954 32.3189 18.1863 33.1557 18.1863C34.0817 18.1863 34.6507 18.2371 35.3425 18.5988C36.0287 18.9662 36.514 19.4974 36.7706 20.1868C37.0384 20.865 37.0942 21.6336 36.9491 22.4643C36.7093 23.8489 36.0454 24.9339 34.952 25.7364C33.8697 26.5389 32.8935 26.748 31.5044 26.7536C31.0135 26.7536 30.6007 26.7028 30.2604 26.618C29.9257 26.5276 29.6579 26.4202 29.4571 26.2902C29.2618 26.1602 29.0554 25.9738 28.7932 25.6799L28.1349 29.5228H24.1406Z" fill="white"/>
<path d="M97.4529 21.2549C97.4305 20.5824 97.0958 20.1246 96.4097 20.1246C94.7528 20.1246 92.99 23.4137 92.6887 24.7361C95.4055 24.7417 97.5198 23.1028 97.4529 21.2549ZM97.8099 26.4088L98.1279 26.6292C97.319 28.2964 95.6733 29.6357 93.7431 29.6357C92.1643 29.6357 90.8645 28.5676 90.7976 26.5671C90.6692 22.9785 93.9885 19.6499 96.7053 19.6499C97.8713 19.6499 98.9535 20.1642 98.9981 21.4357C99.0985 24.2896 95.1433 25.1599 92.5381 25.2221C92.4544 25.5216 92.4209 25.8211 92.4377 26.2732C92.4823 27.4543 93.1852 28.449 94.6468 28.449C95.9076 28.449 97.1683 27.4204 97.8099 26.4088Z" fill="white"/>
<path d="M81.6098 21.1642C81.8888 21.1247 82.3406 21.0738 82.5359 21.0738C82.8316 21.0738 83.1105 21.1303 83.1272 21.4298C83.1328 21.605 82.8204 22.8766 82.7535 23.1704L82.1231 25.9848C81.8665 27.1376 81.5931 28.3414 81.3477 29.2964H82.9655L83.8748 24.8376C86.6473 21.9102 87.7184 20.9551 88.3711 20.9551C88.6668 20.9551 88.8676 21.1134 88.8844 21.4694C88.9011 21.9837 88.5831 23.1535 88.4771 23.4926L87.5511 26.7421C87.3391 27.4711 87.1829 28.1323 87.1996 28.6013C87.2275 29.3134 87.6515 29.6299 88.2875 29.6299C89.4701 29.6299 90.3292 28.3809 91.0768 27.1546L90.8592 26.7534C90.558 27.245 89.855 28.3244 89.3028 28.3244C89.1298 28.3244 88.9625 28.2057 88.9569 27.9119C88.9402 27.5332 89.0964 26.9625 89.2079 26.5838L90.24 22.7749C90.5189 21.7237 90.6472 21.0512 90.6416 20.6895C90.6137 19.9775 90.2065 19.644 89.5761 19.644C88.5106 19.644 87.0992 20.4352 84.1035 23.9221H84.0589L84.4382 22.221C84.6446 21.2886 84.8454 20.3165 85.0351 19.644C83.9975 20.0227 82.5136 20.4465 81.5987 20.6274L81.6098 21.1642Z" fill="white"/>
</svg>
