<svg width="459" height="190" viewBox="0 0 459 190" fill="none" xmlns="http://www.w3.org/2000/svg">
<path fill-rule="evenodd" clip-rule="evenodd" d="M0 189.019L1.26318 187.318C84.9355 74.6631 204.349 49.3989 269.231 47.5903C298.912 46.7632 337.619 40.2192 374.444 30.5898C407.997 21.8164 438.729 10.8086 459 0V32.1733C437.205 42.0742 409.823 51.228 381.712 58.5781C343.598 68.5444 302.609 75.5942 270.032 76.5024C213.53 78.0771 112.308 99.1016 36.6909 189.019H29.1934C73.2979 134.981 126.431 104.629 174.758 88.2227C121.589 103.235 62.0249 132.668 16.3711 189.019H0Z" transform="translate(459 0.980957) scale(-1 1)" fill="#979CD8"/>
</svg>
