<?xml version="1.0" encoding="utf-8"?>
<!-- Generator: Adobe Illustrator 19.0.1, SVG Export Plug-In . SVG Version: 6.00 Build 0)  -->
<svg version="1.1" xmlns="http://www.w3.org/2000/svg" xmlns:xlink="http://www.w3.org/1999/xlink" x="0px" y="0px"
	 viewBox="0 0 163 163" style="enable-background:new 0 0 163 163;" xml:space="preserve">
<style type="text/css">
	.st0{fill:#5E5E5E;}
	.st1{fill:none;stroke:#FFFFFF;stroke-width:3;stroke-miterlimit:10;}
	.st2{fill:#BBBDBF;}
	.st3{fill:#FFFFFF;}
	.st4{fill:none;stroke:#6D6E71;stroke-width:3;stroke-miterlimit:10;}
	.st5{fill:#6D6E71;}
	.st6{fill:#414042;}
</style>
<g id="Layer_2">
</g>
<g id="Layer_3">
</g>
<g id="Layer_1">
	<g>
		<polygon class="st1" points="161.5,161.5 1.5,161.5 1.5,1.5 81.8,1.5 161.5,1.5 		"/>
		<g>
			<path class="st3" d="M24.8,143.6v-6.4h-5.5v6.4h-5.9v-17.8h5.9v6.9h5.5v-6.9h5.9v17.8H24.8z"/>
			<path class="st3" d="M38.7,141.1l-0.9,2.5h-6.1l7.5-17.8h6.1l7.2,17.8h-6.3l-0.9-2.5H38.7z M42.1,131.7l-1.9,5.2h3.7L42.1,131.7z
				"/>
			<path class="st3" d="M69.3,128.9l-3.4,4c-1.1-1.4-2.7-2.4-4-2.4c-2.1,0-3.7,1.7-3.7,4.1c0,2.4,1.6,4.1,3.7,4.1c1.3,0,2.9-0.8,4-2
				l3.4,3.6c-2,2.2-5,3.6-7.8,3.6c-5.5,0-9.4-3.9-9.4-9.2c0-5.2,4.1-9.1,9.7-9.1C64.5,125.6,67.5,126.9,69.3,128.9z"/>
			<path class="st3" d="M78.2,137.5l-1.7,1.9v4.2h-5.9v-17.8h5.9v6.2l5.3-6.2h6.8l-6.4,7.2l6.7,10.7h-7L78.2,137.5z"/>
			<path class="st2" d="M98.1,139h-2.2v4.6H90v-17.8h8.6c4.8,0,7.6,2.3,7.6,6.4c0,2.6-1,4.5-2.8,5.6l3.5,5.8h-6.7L98.1,139z
				 M98.6,134.5c1.3,0,2-0.8,2-2.2c0-1.3-0.7-2.1-2-2.1h-2.7v4.2H98.6z"/>
			<path class="st2" d="M108.4,143.6v-17.8h5.9v17.8H108.4z"/>
			<path class="st2" d="M133.1,128.9l-3.4,4c-1.1-1.4-2.7-2.4-4-2.4c-2.1,0-3.7,1.7-3.7,4.1c0,2.4,1.6,4.1,3.7,4.1
				c1.3,0,2.9-0.8,4-2l3.4,3.6c-2,2.2-5,3.6-7.8,3.6c-5.5,0-9.4-3.9-9.4-9.2c0-5.2,4.1-9.1,9.7-9.1
				C128.3,125.6,131.3,126.9,133.1,128.9z"/>
			<path class="st2" d="M140.2,130.3v2.2h8.3v4.5h-8.3v2.2h9.4v4.5h-15.3v-17.8h15.1v4.5H140.2z"/>
		</g>
		<g>
			<polygon class="st2" points="91.5,67.8 71.5,56.3 91.5,44.7 			"/>
			<polygon class="st2" points="111.5,56.3 91.5,44.7 111.5,33.2 			"/>
			<polygon class="st3" points="91.5,44.7 111.5,56.3 91.5,67.8 			"/>
			<polygon class="st2" points="71.5,56.3 91.5,67.8 71.5,79.3 			"/>
			<polygon class="st3" points="71.5,79.3 51.5,67.8 71.5,56.3 			"/>
			<polygon class="st2" points="91.5,67.8 111.5,79.3 91.5,90.9 			"/>
			<polygon class="st3" points="111.5,79.3 91.5,67.8 111.5,56.3 			"/>
			<polygon class="st2" points="111.5,102.4 91.5,90.9 111.5,79.3 			"/>
			<polygon class="st2" points="71.5,102.4 51.5,90.9 71.5,79.3 			"/>
			<polygon class="st2" points="51.5,67.8 71.5,79.3 51.5,90.9 			"/>
			<polygon class="st2" points="91.5,21.6 111.5,33.2 91.5,44.7 			"/>
			<polygon class="st2" points="71.5,56.3 51.5,44.7 71.5,33.2 			"/>
			<polygon class="st3" points="51.5,44.7 71.5,56.3 51.5,67.8 			"/>
			<polygon class="st2" points="51.5,21.6 71.5,33.2 51.5,44.7 			"/>
		</g>
	</g>
</g>
</svg>
