<?xml version="1.0" encoding="utf-8"?>
<!-- Generator: Adobe Illustrator 19.0.1, SVG Export Plug-In . SVG Version: 6.00 Build 0)  -->
<svg version="1.1" xmlns="http://www.w3.org/2000/svg" xmlns:xlink="http://www.w3.org/1999/xlink" x="0px" y="0px"
	 viewBox="0 0 236.6 54" style="enable-background:new 0 0 236.6 54;" xml:space="preserve">
<style type="text/css">
	.st0{fill:#5E5E5E;}
	.st1{fill:none;stroke:#FFFFFF;stroke-width:3;stroke-miterlimit:10;}
	.st2{fill:#BBBDBF;}
	.st3{fill:#FFFFFF;}
	.st4{fill:none;stroke:#6D6E71;stroke-width:3;stroke-miterlimit:10;}
	.st5{fill:#6D6E71;}
	.st6{fill:#414042;}
</style>
<g id="Layer_2">
</g>
<g id="Layer_3">
</g>
<g id="Layer_1">
	<g>
		<polygon class="st2" points="13.4,23.1 13.4,38.6 26.7,30.8 26.7,15.4 		"/>
		<polygon class="st3" points="40.1,23.1 26.7,15.4 26.7,30.8 26.7,30.8 40.1,38.6 		"/>
		<polygon class="st2" points="26.7,30.8 26.7,46.3 40.1,54 40.1,38.6 		"/>
		<polygon class="st2" points="13.4,38.6 0,30.8 0,46.3 13.4,54 13.4,38.6 		"/>
		<polygon class="st2" points="40.1,7.7 40.1,7.7 26.7,0 26.7,15.4 26.7,15.4 26.7,15.4 26.7,15.4 26.7,15.4 40.1,23.1 		"/>
		<polygon class="st3" points="13.4,23.1 0,15.4 0,30.8 0,30.8 0,30.8 0,30.8 0,30.8 13.4,38.6 		"/>
		<polygon class="st2" points="0,0 0,15.4 0,15.4 13.4,23.1 13.4,7.7 		"/>
	</g>
	<g>
		<path class="st3" d="M76.3,38.6v-9.1h-9.7v9.1h-5.9V15.3h5.9v9.6h9.7v-9.6h5.9v23.4H76.3z"/>
		<path class="st3" d="M92.2,34.3l-1.7,4.3h-6.1l10.1-23.4h6.1l9.8,23.4h-6.3l-1.7-4.3H92.2z M97.4,21.2L94,29.8h6.7L97.4,21.2z"/>
		<path class="st3" d="M132.3,19l-3.4,4.1c-1.5-1.9-3.8-3-5.9-3c-3.7,0-6.5,2.9-6.5,6.8c0,3.9,2.8,6.9,6.5,6.9c2,0,4.2-1.1,5.9-2.7
			l3.5,3.7c-2.5,2.6-6.2,4.3-9.6,4.3c-7,0-12.3-5.2-12.3-12c0-6.7,5.4-11.8,12.5-11.8C126.4,15.1,130,16.6,132.3,19z"/>
		<path class="st3" d="M144.1,29.5l-3.1,3.4v5.7h-5.9V15.3h5.9v10.1l8.9-10.1h6.9l-8.7,9.7l9.2,13.7h-7.1L144.1,29.5z"/>
		<path class="st3" d="M170.6,32.1h-0.2H166v6.6H160V15.3h10.5c6.2,0,9.7,2.9,9.7,8.1c0,3.6-1.5,6.1-4.2,7.5l4.9,7.7h-6.7
			L170.6,32.1z M170.5,27.4c2.6,0,4.1-1.3,4.1-3.8c0-2.4-1.5-3.7-4.1-3.7H166v7.4H170.5z"/>
		<path class="st3" d="M184.2,38.6V15.3h5.9v23.4H184.2z"/>
		<path class="st3" d="M215.2,19l-3.4,4.1c-1.5-1.9-3.8-3-5.9-3c-3.7,0-6.5,2.9-6.5,6.8c0,3.9,2.8,6.9,6.5,6.9c2,0,4.2-1.1,5.9-2.7
			l3.5,3.7c-2.5,2.6-6.2,4.3-9.6,4.3c-7,0-12.3-5.2-12.3-12c0-6.7,5.4-11.8,12.5-11.8C209.2,15.1,212.8,16.6,215.2,19z"/>
		<path class="st3" d="M223.8,19.9v4.6H235v4.7h-11.2V34h12.7v4.7h-18.7V15.3h18.3v4.7H223.8z"/>
	</g>
</g>
</svg>
